M48
;DRILL file {KiCad 4.0.2-stable} date 17.08.2016 12:28:44
;FORMAT={-:-/ absolute / metric / decimal}
FMAT,2
METRIC,TZ
T1C0.400
T2C0.813
T3C1.500
T4C0.600
%
G90
G05
M71
T1
X36.698Y-36.774
X36.767Y-41.91
X39.116Y-35.56
X39.929Y-30.439
X41.661Y-38.903
X41.666Y-37.734
X41.783Y-40.767
X45.075Y-30.526
X46.797Y-32.614
X52.578Y-42.291
X53.086Y-35.941
X54.229Y-35.814
X54.392Y-33.645
X54.752Y-32.644
X54.818Y-38.186
X55.504Y-34.895
X55.58Y-37.384
X55.697Y-42.393
X56.291Y-33.894
X56.586Y-36.114
X57.678Y-35.072
X58.166Y-36.068
X59.035Y-36.779
X59.736Y-31.775
X59.919Y-39.182
X60.178Y-30.008
X60.569Y-41.392
X61.468Y-32.067
X61.468Y-40.64
X61.859Y-35.235
X61.91Y-37.592
X61.946Y-42.306
X61.986Y-38.659
X62.039Y-36.386
X62.166Y-31.242
X62.311Y-33.741
X67.246Y-33.591
X67.754Y-38.291
X68.367Y-34.971
X68.834Y-42.1
X69.406Y-35.496
T2
X46.452Y-40.726
X47.513Y-30.14
X54.102Y-41.974
T3
X32.736Y-33.243
X32.736Y-38.893
T4
X34.886Y-34.068
X34.886Y-38.068
T0
M30
