  0
SECTION
  2
HEADER
  9
$ANGBASE
  50
0.0
  9
$ANGDIR
  70
  1
  9
$MEASUREMENT
  70
0
  0
ENDSEC
  0
SECTION
  2
TABLES
  0
TABLE
  2
LTYPE
  70
1
  0
LTYPE
  2
CONTINUOUS
  70
0
  3
Solid line
  72
65
  73
0
  40
0.0
  0
ENDTAB
  0
TABLE
  2
STYLE
  70
4
  0
STYLE
  2
KICAD
  70
0
  40
0
  41
1
  42
1
  50
0
  71
0
  3
isocp.shx
  0
STYLE
  2
KICADB
  70
0
  40
0
  41
1
  42
1
  50
0
  71
0
  3
isocp.shx
  0
STYLE
  2
KICADI
  70
0
  40
0
  41
1
  42
1
  50
15
  71
0
  3
isocp.shx
  0
STYLE
  2
KICADBI
  70
0
  40
0
  41
1
  42
1
  50
15
  71
0
  3
isocp.shx
  0
ENDTAB
  0
TABLE
  2
LAYER
  70
30
  0
LAYER
  2
BLACK
  70
0
  62
7
  6
CONTINUOUS
  0
LAYER
  2
GRAY1
  70
0
  62
251
  6
CONTINUOUS
  0
LAYER
  2
GRAY2
  70
0
  62
8
  6
CONTINUOUS
  0
LAYER
  2
GRAY3
  70
0
  62
9
  6
CONTINUOUS
  0
LAYER
  2
WHITE
  70
0
  62
7
  6
CONTINUOUS
  0
LAYER
  2
LYELLOW
  70
0
  62
51
  6
CONTINUOUS
  0
LAYER
  2
BLUE1
  70
0
  62
178
  6
CONTINUOUS
  0
LAYER
  2
GREEN1
  70
0
  62
98
  6
CONTINUOUS
  0
LAYER
  2
CYAN1
  70
0
  62
138
  6
CONTINUOUS
  0
LAYER
  2
RED1
  70
0
  62
18
  6
CONTINUOUS
  0
LAYER
  2
MAGENTA1
  70
0
  62
228
  6
CONTINUOUS
  0
LAYER
  2
BROWN1
  70
0
  62
58
  6
CONTINUOUS
  0
LAYER
  2
BLUE2
  70
0
  62
5
  6
CONTINUOUS
  0
LAYER
  2
GREEN2
  70
0
  62
3
  6
CONTINUOUS
  0
LAYER
  2
CYAN2
  70
0
  62
4
  6
CONTINUOUS
  0
LAYER
  2
RED2
  70
0
  62
1
  6
CONTINUOUS
  0
LAYER
  2
MAGENTA2
  70
0
  62
6
  6
CONTINUOUS
  0
LAYER
  2
BROWN2
  70
0
  62
54
  6
CONTINUOUS
  0
LAYER
  2
BLUE3
  70
0
  62
171
  6
CONTINUOUS
  0
LAYER
  2
GREEN3
  70
0
  62
91
  6
CONTINUOUS
  0
LAYER
  2
CYAN3
  70
0
  62
131
  6
CONTINUOUS
  0
LAYER
  2
RED3
  70
0
  62
11
  6
CONTINUOUS
  0
LAYER
  2
MAGENTA3
  70
0
  62
221
  6
CONTINUOUS
  0
LAYER
  2
YELLOW3
  70
0
  62
2
  6
CONTINUOUS
  0
LAYER
  2
BLUE4
  70
0
  62
5
  6
CONTINUOUS
  0
LAYER
  2
GREEN4
  70
0
  62
3
  6
CONTINUOUS
  0
LAYER
  2
CYAN4
  70
0
  62
4
  6
CONTINUOUS
  0
LAYER
  2
RED4
  70
0
  62
1
  6
CONTINUOUS
  0
LAYER
  2
MAGENTA4
  70
0
  62
6
  6
CONTINUOUS
  0
LAYER
  2
YELLOW4
  70
0
  62
2
  6
CONTINUOUS
  0
ENDTAB
  0
ENDSEC
  0
SECTION
  2
ENTITIES
0
LINE
8
Black
10
30.988
20
-28.777
11
31.623
21
-28.777
0
LINE
8
Black
10
30.988
20
-28.627
11
31.623
21
-28.627
0
ARC
8
Black
10
31.623
20
-28.702
40
0.075
50
270
51
450
0
ARC
8
Black
10
30.988
20
-28.702
40
0.075
50
90
51
270
0
LINE
8
Black
10
31.063
20
-43.3705
11
31.063
21
-28.702
0
LINE
8
Black
10
30.913
20
-43.3705
11
30.913
21
-28.702
0
ARC
8
Black
10
30.988
20
-28.702
40
0.075
50
360
51
540
0
ARC
8
Black
10
30.988
20
-43.3705
40
0.075
50
180
51
360
0
LINE
8
Black
10
30.988
20
-43.4455
11
31.4325
21
-43.4455
0
LINE
8
Black
10
30.988
20
-43.2955
11
31.4325
21
-43.2955
0
ARC
8
Black
10
31.4325
20
-43.3705
40
0.075
50
270
51
450
0
ARC
8
Black
10
30.988
20
-43.3705
40
0.075
50
90
51
270
0
LINE
8
Black
10
31.4325
20
-43.4455
11
71.8185
21
-43.4455
0
LINE
8
Black
10
31.4325
20
-43.2955
11
71.8185
21
-43.2955
0
ARC
8
Black
10
71.8185
20
-43.3705
40
0.075
50
270
51
450
0
ARC
8
Black
10
31.4325
20
-43.3705
40
0.075
50
90
51
270
0
LINE
8
Black
10
71.8935
20
-43.3705
11
71.8935
21
-28.702
0
LINE
8
Black
10
71.7435
20
-43.3705
11
71.7435
21
-28.702
0
ARC
8
Black
10
71.8185
20
-28.702
40
0.075
50
360
51
540
0
ARC
8
Black
10
71.8185
20
-43.3705
40
0.075
50
180
51
360
0
LINE
8
Black
10
31.242
20
-28.777
11
71.8185
21
-28.777
0
LINE
8
Black
10
31.242
20
-28.627
11
71.8185
21
-28.627
0
ARC
8
Black
10
71.8185
20
-28.702
40
0.075
50
270
51
450
0
ARC
8
Black
10
31.242
20
-28.702
40
0.075
50
90
51
270
0
LINE
8
Black
10
36.5665
20
-36.4395
11
36.9665
21
-36.8395
0
LINE
8
Black
10
36.9665
20
-36.4395
11
36.5665
21
-36.8395
0
LINE
8
Black
10
36.5665
20
-41.71
11
36.9665
21
-42.11
0
LINE
8
Black
10
36.9665
20
-41.71
11
36.5665
21
-42.11
0
LINE
8
Black
10
38.916
20
-35.36
11
39.316
21
-35.76
0
LINE
8
Black
10
39.316
20
-35.36
11
38.916
21
-35.76
0
LINE
8
Black
10
39.6145
20
-30.026
11
40.0145
21
-30.426
0
LINE
8
Black
10
40.0145
20
-30.026
11
39.6145
21
-30.426
0
LINE
8
Black
10
41.5195
20
-37.4555
11
41.9195
21
-37.8555
0
LINE
8
Black
10
41.9195
20
-37.4555
11
41.5195
21
-37.8555
0
LINE
8
Black
10
41.5195
20
-39.043
11
41.9195
21
-39.443
0
LINE
8
Black
10
41.9195
20
-39.043
11
41.5195
21
-39.443
0
LINE
8
Black
10
41.583
20
-40.567
11
41.983
21
-40.967
0
LINE
8
Black
10
41.983
20
-40.567
11
41.583
21
-40.967
0
LINE
8
Black
10
44.758
20
-30.0895
11
45.158
21
-30.4895
0
LINE
8
Black
10
45.158
20
-30.0895
11
44.758
21
-30.4895
0
LINE
8
Black
10
46.3455
20
-32.3755
11
46.7455
21
-32.7755
0
LINE
8
Black
10
46.7455
20
-32.3755
11
46.3455
21
-32.7755
0
LINE
8
Black
10
52.886
20
-35.741
11
53.286
21
-36.141
0
LINE
8
Black
10
53.286
20
-35.741
11
52.886
21
-36.141
0
LINE
8
Black
10
54.029
20
-29.7085
11
54.429
21
-30.1085
0
LINE
8
Black
10
54.429
20
-29.7085
11
54.029
21
-30.1085
0
LINE
8
Black
10
54.029
20
-35.614
11
54.429
21
-36.014
0
LINE
8
Black
10
54.429
20
-35.614
11
54.029
21
-36.014
0
LINE
8
Black
10
54.537
20
-32.439
11
54.937
21
-32.839
0
LINE
8
Black
10
54.937
20
-32.439
11
54.537
21
-32.839
0
LINE
8
Black
10
54.9815
20
-37.8365
11
55.3815
21
-38.2365
0
LINE
8
Black
10
55.3815
20
-37.8365
11
54.9815
21
-38.2365
0
LINE
8
Black
10
55.299
20
-33.074
11
55.699
21
-33.474
0
LINE
8
Black
10
55.699
20
-33.074
11
55.299
21
-33.474
0
LINE
8
Black
10
55.3625
20
-34.725
11
55.7625
21
-35.125
0
LINE
8
Black
10
55.7625
20
-34.725
11
55.3625
21
-35.125
0
LINE
8
Black
10
55.6165
20
-37.2015
11
56.0165
21
-37.6015
0
LINE
8
Black
10
56.0165
20
-37.2015
11
55.6165
21
-37.6015
0
LINE
8
Black
10
56.1245
20
-36.1855
11
56.5245
21
-36.5855
0
LINE
8
Black
10
56.5245
20
-36.1855
11
56.1245
21
-36.5855
0
LINE
8
Black
10
57.712
20
-35.0425
11
58.112
21
-35.4425
0
LINE
8
Black
10
58.112
20
-35.0425
11
57.712
21
-35.4425
0
LINE
8
Black
10
58.6645
20
-33.3915
11
59.0645
21
-33.7915
0
LINE
8
Black
10
59.0645
20
-33.3915
11
58.6645
21
-33.7915
0
LINE
8
Black
10
58.6645
20
-36.4395
11
59.0645
21
-36.8395
0
LINE
8
Black
10
59.0645
20
-36.4395
11
58.6645
21
-36.8395
0
LINE
8
Black
10
59.363
20
-38.8525
11
59.763
21
-39.2525
0
LINE
8
Black
10
59.763
20
-38.8525
11
59.363
21
-39.2525
0
LINE
8
Black
10
59.4265
20
-31.423
11
59.8265
21
-31.823
0
LINE
8
Black
10
59.8265
20
-31.423
11
59.4265
21
-31.823
0
LINE
8
Black
10
59.5535
20
-30.153
11
59.9535
21
-30.553
0
LINE
8
Black
10
59.9535
20
-30.153
11
59.5535
21
-30.553
0
LINE
8
Black
10
60.125
20
-41.202
11
60.525
21
-41.602
0
LINE
8
Black
10
60.525
20
-41.202
11
60.125
21
-41.602
0
LINE
8
Black
10
61.268
20
-31.8675
11
61.668
21
-32.2675
0
LINE
8
Black
10
61.668
20
-31.8675
11
61.268
21
-32.2675
0
LINE
8
Black
10
61.268
20
-40.44
11
61.668
21
-40.84
0
LINE
8
Black
10
61.668
20
-40.44
11
61.268
21
-40.84
0
LINE
8
Black
10
61.5855
20
-37.138
11
61.9855
21
-37.538
0
LINE
8
Black
10
61.9855
20
-37.138
11
61.5855
21
-37.538
0
LINE
8
Black
10
61.5855
20
-38.662
11
61.9855
21
-39.062
0
LINE
8
Black
10
61.9855
20
-38.662
11
61.5855
21
-39.062
0
LINE
8
Black
10
61.8395
20
-34.9155
11
62.2395
21
-35.3155
0
LINE
8
Black
10
62.2395
20
-34.9155
11
61.8395
21
-35.3155
0
LINE
8
Black
10
61.8395
20
-36.1855
11
62.2395
21
-36.5855
0
LINE
8
Black
10
62.2395
20
-36.1855
11
61.8395
21
-36.5855
0
LINE
8
Black
10
61.9665
20
-31.042
11
62.3665
21
-31.442
0
LINE
8
Black
10
62.3665
20
-31.042
11
61.9665
21
-31.442
0
LINE
8
Black
10
61.9665
20
-33.455
11
62.3665
21
-33.855
0
LINE
8
Black
10
62.3665
20
-33.455
11
61.9665
21
-33.855
0
LINE
8
Black
10
62.03
20
-41.9005
11
62.43
21
-42.3005
0
LINE
8
Black
10
62.43
20
-41.9005
11
62.03
21
-42.3005
0
LINE
8
Black
10
67.0465
20
-33.3915
11
67.4465
21
-33.7915
0
LINE
8
Black
10
67.4465
20
-33.3915
11
67.0465
21
-33.7915
0
LINE
8
Black
10
68.253
20
-34.9155
11
68.653
21
-35.3155
0
LINE
8
Black
10
68.653
20
-34.9155
11
68.253
21
-35.3155
0
LINE
8
Black
10
68.634
20
-41.9005
11
69.034
21
-42.3005
0
LINE
8
Black
10
69.034
20
-41.9005
11
68.634
21
-42.3005
0
CIRCLE
8
Black
10
46.736
20
-40.64
40
0.4064
0
CIRCLE
8
Black
10
47.8155
20
-30.4165
40
0.4064
0
CIRCLE
8
Black
10
53.5305
20
-41.91
40
0.4064
0
LINE
8
Black
10
32.5755
20
-31.9795
11
32.5755
21
-33.2295
0
LINE
8
Black
10
31.9505
20
-32.6045
11
33.2005
21
-32.6045
0
LINE
8
Black
10
32.5755
20
-38.7795
11
32.5755
21
-40.0295
0
LINE
8
Black
10
31.9505
20
-39.4045
11
33.2005
21
-39.4045
0
LINE
8
Black
10
33.6273
20
-48.1026
11
33.6273
21
-45.1026
0
LINE
8
Black
10
33.6273
20
-45.1026
11
34.3416
21
-45.1026
0
LINE
8
Black
10
34.3416
20
-45.1026
11
34.7701
21
-45.2455
0
LINE
8
Black
10
34.7701
20
-45.2455
11
35.0559
21
-45.5312
0
LINE
8
Black
10
35.0559
20
-45.5312
11
35.1987
21
-45.8169
0
LINE
8
Black
10
35.1987
20
-45.8169
11
35.3416
21
-46.3884
0
LINE
8
Black
10
35.3416
20
-46.3884
11
35.3416
21
-46.8169
0
LINE
8
Black
10
35.3416
20
-46.8169
11
35.1987
21
-47.3884
0
LINE
8
Black
10
35.1987
20
-47.3884
11
35.0559
21
-47.6741
0
LINE
8
Black
10
35.0559
20
-47.6741
11
34.7701
21
-47.9598
0
LINE
8
Black
10
34.7701
20
-47.9598
11
34.3416
21
-48.1026
0
LINE
8
Black
10
34.3416
20
-48.1026
11
33.6273
21
-48.1026
0
LINE
8
Black
10
36.6273
20
-48.1026
11
36.6273
21
-46.1026
0
LINE
8
Black
10
36.6273
20
-46.6741
11
36.7701
21
-46.3884
0
LINE
8
Black
10
36.7701
20
-46.3884
11
36.913
21
-46.2455
0
LINE
8
Black
10
36.913
20
-46.2455
11
37.1987
21
-46.1026
0
LINE
8
Black
10
37.1987
20
-46.1026
11
37.4844
21
-46.1026
0
LINE
8
Black
10
38.4844
20
-48.1026
11
38.4844
21
-46.1026
0
LINE
8
Black
10
38.4844
20
-45.1026
11
38.3416
21
-45.2455
0
LINE
8
Black
10
38.3416
20
-45.2455
11
38.4844
21
-45.3884
0
LINE
8
Black
10
38.4844
20
-45.3884
11
38.6273
21
-45.2455
0
LINE
8
Black
10
38.6273
20
-45.2455
11
38.4844
21
-45.1026
0
LINE
8
Black
10
38.4844
20
-45.1026
11
38.4844
21
-45.3884
0
LINE
8
Black
10
40.3416
20
-48.1026
11
40.0559
21
-47.9598
0
LINE
8
Black
10
40.0559
20
-47.9598
11
39.913
21
-47.6741
0
LINE
8
Black
10
39.913
20
-47.6741
11
39.913
21
-45.1026
0
LINE
8
Black
10
41.913
20
-48.1026
11
41.6273
21
-47.9598
0
LINE
8
Black
10
41.6273
20
-47.9598
11
41.4844
21
-47.6741
0
LINE
8
Black
10
41.4844
20
-47.6741
11
41.4844
21
-45.1026
0
LINE
8
Black
10
45.3416
20
-48.1026
11
45.3416
21
-45.1026
0
LINE
8
Black
10
45.3416
20
-45.1026
11
46.3416
21
-47.2455
0
LINE
8
Black
10
46.3416
20
-47.2455
11
47.3416
21
-45.1026
0
LINE
8
Black
10
47.3416
20
-45.1026
11
47.3416
21
-48.1026
0
LINE
8
Black
10
50.0559
20
-48.1026
11
50.0559
21
-46.5312
0
LINE
8
Black
10
50.0559
20
-46.5312
11
49.913
21
-46.2455
0
LINE
8
Black
10
49.913
20
-46.2455
11
49.6273
21
-46.1026
0
LINE
8
Black
10
49.6273
20
-46.1026
11
49.0559
21
-46.1026
0
LINE
8
Black
10
49.0559
20
-46.1026
11
48.7701
21
-46.2455
0
LINE
8
Black
10
50.0559
20
-47.9598
11
49.7701
21
-48.1026
0
LINE
8
Black
10
49.7701
20
-48.1026
11
49.0559
21
-48.1026
0
LINE
8
Black
10
49.0559
20
-48.1026
11
48.7701
21
-47.9598
0
LINE
8
Black
10
48.7701
20
-47.9598
11
48.6273
21
-47.6741
0
LINE
8
Black
10
48.6273
20
-47.6741
11
48.6273
21
-47.3884
0
LINE
8
Black
10
48.6273
20
-47.3884
11
48.7701
21
-47.1026
0
LINE
8
Black
10
48.7701
20
-47.1026
11
49.0559
21
-46.9598
0
LINE
8
Black
10
49.0559
20
-46.9598
11
49.7701
21
-46.9598
0
LINE
8
Black
10
49.7701
20
-46.9598
11
50.0559
21
-46.8169
0
LINE
8
Black
10
51.4844
20
-46.1026
11
51.4844
21
-49.1026
0
LINE
8
Black
10
51.4844
20
-46.2455
11
51.7701
21
-46.1026
0
LINE
8
Black
10
51.7701
20
-46.1026
11
52.3416
21
-46.1026
0
LINE
8
Black
10
52.3416
20
-46.1026
11
52.6273
21
-46.2455
0
LINE
8
Black
10
52.6273
20
-46.2455
11
52.7701
21
-46.3884
0
LINE
8
Black
10
52.7701
20
-46.3884
11
52.913
21
-46.6741
0
LINE
8
Black
10
52.913
20
-46.6741
11
52.913
21
-47.5312
0
LINE
8
Black
10
52.913
20
-47.5312
11
52.7701
21
-47.8169
0
LINE
8
Black
10
52.7701
20
-47.8169
11
52.6273
21
-47.9598
0
LINE
8
Black
10
52.6273
20
-47.9598
11
52.3416
21
-48.1026
0
LINE
8
Black
10
52.3416
20
-48.1026
11
51.7701
21
-48.1026
0
LINE
8
Black
10
51.7701
20
-48.1026
11
51.4844
21
-47.9598
0
LINE
8
Black
10
54.1987
20
-47.8169
11
54.3416
21
-47.9598
0
LINE
8
Black
10
54.3416
20
-47.9598
11
54.1987
21
-48.1026
0
LINE
8
Black
10
54.1987
20
-48.1026
11
54.0559
21
-47.9598
0
LINE
8
Black
10
54.0559
20
-47.9598
11
54.1987
21
-47.8169
0
LINE
8
Black
10
54.1987
20
-47.8169
11
54.1987
21
-48.1026
0
LINE
8
Black
10
54.1987
20
-46.2455
11
54.3416
21
-46.3884
0
LINE
8
Black
10
54.3416
20
-46.3884
11
54.1987
21
-46.5312
0
LINE
8
Black
10
54.1987
20
-46.5312
11
54.0559
21
-46.3884
0
LINE
8
Black
10
54.0559
20
-46.3884
11
54.1987
21
-46.2455
0
LINE
8
Black
10
54.1987
20
-46.2455
11
54.1987
21
-46.5312
0
LINE
8
Black
10
30.513
20
-52.8455
11
30.913
21
-53.2455
0
LINE
8
Black
10
30.913
20
-52.8455
11
30.513
21
-53.2455
0
LINE
8
Black
10
34.1987
20
-51.4026
11
34.4844
21
-51.4026
0
LINE
8
Black
10
34.4844
20
-51.4026
11
34.7701
21
-51.5455
0
LINE
8
Black
10
34.7701
20
-51.5455
11
34.913
21
-51.6884
0
LINE
8
Black
10
34.913
20
-51.6884
11
35.0559
21
-51.9741
0
LINE
8
Black
10
35.0559
20
-51.9741
11
35.1987
21
-52.5455
0
LINE
8
Black
10
35.1987
20
-52.5455
11
35.1987
21
-53.2598
0
LINE
8
Black
10
35.1987
20
-53.2598
11
35.0559
21
-53.8312
0
LINE
8
Black
10
35.0559
20
-53.8312
11
34.913
21
-54.1169
0
LINE
8
Black
10
34.913
20
-54.1169
11
34.7701
21
-54.2598
0
LINE
8
Black
10
34.7701
20
-54.2598
11
34.4844
21
-54.4026
0
LINE
8
Black
10
34.4844
20
-54.4026
11
34.1987
21
-54.4026
0
LINE
8
Black
10
34.1987
20
-54.4026
11
33.913
21
-54.2598
0
LINE
8
Black
10
33.913
20
-54.2598
11
33.7701
21
-54.1169
0
LINE
8
Black
10
33.7701
20
-54.1169
11
33.6273
21
-53.8312
0
LINE
8
Black
10
33.6273
20
-53.8312
11
33.4844
21
-53.2598
0
LINE
8
Black
10
33.4844
20
-53.2598
11
33.4844
21
-52.5455
0
LINE
8
Black
10
33.4844
20
-52.5455
11
33.6273
21
-51.9741
0
LINE
8
Black
10
33.6273
20
-51.9741
11
33.7701
21
-51.6884
0
LINE
8
Black
10
33.7701
20
-51.6884
11
33.913
21
-51.5455
0
LINE
8
Black
10
33.913
20
-51.5455
11
34.1987
21
-51.4026
0
LINE
8
Black
10
36.4844
20
-54.1169
11
36.6273
21
-54.2598
0
LINE
8
Black
10
36.6273
20
-54.2598
11
36.4844
21
-54.4026
0
LINE
8
Black
10
36.4844
20
-54.4026
11
36.3416
21
-54.2598
0
LINE
8
Black
10
36.3416
20
-54.2598
11
36.4844
21
-54.1169
0
LINE
8
Black
10
36.4844
20
-54.1169
11
36.4844
21
-54.4026
0
LINE
8
Black
10
39.1987
20
-52.4026
11
39.1987
21
-54.4026
0
LINE
8
Black
10
38.4844
20
-51.2598
11
37.7701
21
-53.4026
0
LINE
8
Black
10
37.7701
20
-53.4026
11
39.6273
21
-53.4026
0
LINE
8
Black
10
41.3416
20
-51.4026
11
41.6273
21
-51.4026
0
LINE
8
Black
10
41.6273
20
-51.4026
11
41.913
21
-51.5455
0
LINE
8
Black
10
41.913
20
-51.5455
11
42.0559
21
-51.6884
0
LINE
8
Black
10
42.0559
20
-51.6884
11
42.1987
21
-51.9741
0
LINE
8
Black
10
42.1987
20
-51.9741
11
42.3416
21
-52.5455
0
LINE
8
Black
10
42.3416
20
-52.5455
11
42.3416
21
-53.2598
0
LINE
8
Black
10
42.3416
20
-53.2598
11
42.1987
21
-53.8312
0
LINE
8
Black
10
42.1987
20
-53.8312
11
42.0559
21
-54.1169
0
LINE
8
Black
10
42.0559
20
-54.1169
11
41.913
21
-54.2598
0
LINE
8
Black
10
41.913
20
-54.2598
11
41.6273
21
-54.4026
0
LINE
8
Black
10
41.6273
20
-54.4026
11
41.3416
21
-54.4026
0
LINE
8
Black
10
41.3416
20
-54.4026
11
41.0559
21
-54.2598
0
LINE
8
Black
10
41.0559
20
-54.2598
11
40.913
21
-54.1169
0
LINE
8
Black
10
40.913
20
-54.1169
11
40.7701
21
-53.8312
0
LINE
8
Black
10
40.7701
20
-53.8312
11
40.6273
21
-53.2598
0
LINE
8
Black
10
40.6273
20
-53.2598
11
40.6273
21
-52.5455
0
LINE
8
Black
10
40.6273
20
-52.5455
11
40.7701
21
-51.9741
0
LINE
8
Black
10
40.7701
20
-51.9741
11
40.913
21
-51.6884
0
LINE
8
Black
10
40.913
20
-51.6884
11
41.0559
21
-51.5455
0
LINE
8
Black
10
41.0559
20
-51.5455
11
41.3416
21
-51.4026
0
LINE
8
Black
10
43.6273
20
-54.4026
11
43.6273
21
-52.4026
0
LINE
8
Black
10
43.6273
20
-52.6884
11
43.7701
21
-52.5455
0
LINE
8
Black
10
43.7701
20
-52.5455
11
44.0559
21
-52.4026
0
LINE
8
Black
10
44.0559
20
-52.4026
11
44.4844
21
-52.4026
0
LINE
8
Black
10
44.4844
20
-52.4026
11
44.7701
21
-52.5455
0
LINE
8
Black
10
44.7701
20
-52.5455
11
44.913
21
-52.8312
0
LINE
8
Black
10
44.913
20
-52.8312
11
44.913
21
-54.4026
0
LINE
8
Black
10
44.913
20
-52.8312
11
45.0559
21
-52.5455
0
LINE
8
Black
10
45.0559
20
-52.5455
11
45.3416
21
-52.4026
0
LINE
8
Black
10
45.3416
20
-52.4026
11
45.7701
21
-52.4026
0
LINE
8
Black
10
45.7701
20
-52.4026
11
46.0559
21
-52.5455
0
LINE
8
Black
10
46.0559
20
-52.5455
11
46.1987
21
-52.8312
0
LINE
8
Black
10
46.1987
20
-52.8312
11
46.1987
21
-54.4026
0
LINE
8
Black
10
47.6273
20
-54.4026
11
47.6273
21
-52.4026
0
LINE
8
Black
10
47.6273
20
-52.6884
11
47.7701
21
-52.5455
0
LINE
8
Black
10
47.7701
20
-52.5455
11
48.0559
21
-52.4026
0
LINE
8
Black
10
48.0559
20
-52.4026
11
48.4844
21
-52.4026
0
LINE
8
Black
10
48.4844
20
-52.4026
11
48.7701
21
-52.5455
0
LINE
8
Black
10
48.7701
20
-52.5455
11
48.913
21
-52.8312
0
LINE
8
Black
10
48.913
20
-52.8312
11
48.913
21
-54.4026
0
LINE
8
Black
10
48.913
20
-52.8312
11
49.0559
21
-52.5455
0
LINE
8
Black
10
49.0559
20
-52.5455
11
49.3416
21
-52.4026
0
LINE
8
Black
10
49.3416
20
-52.4026
11
49.7701
21
-52.4026
0
LINE
8
Black
10
49.7701
20
-52.4026
11
50.0559
21
-52.5455
0
LINE
8
Black
10
50.0559
20
-52.5455
11
50.1987
21
-52.8312
0
LINE
8
Black
10
50.1987
20
-52.8312
11
50.1987
21
-54.4026
0
LINE
8
Black
10
56.0559
20
-51.2598
11
53.4844
21
-55.1169
0
LINE
8
Black
10
59.913
20
-51.4026
11
60.1987
21
-51.4026
0
LINE
8
Black
10
60.1987
20
-51.4026
11
60.4844
21
-51.5455
0
LINE
8
Black
10
60.4844
20
-51.5455
11
60.6273
21
-51.6884
0
LINE
8
Black
10
60.6273
20
-51.6884
11
60.7701
21
-51.9741
0
LINE
8
Black
10
60.7701
20
-51.9741
11
60.913
21
-52.5455
0
LINE
8
Black
10
60.913
20
-52.5455
11
60.913
21
-53.2598
0
LINE
8
Black
10
60.913
20
-53.2598
11
60.7701
21
-53.8312
0
LINE
8
Black
10
60.7701
20
-53.8312
11
60.6273
21
-54.1169
0
LINE
8
Black
10
60.6273
20
-54.1169
11
60.4844
21
-54.2598
0
LINE
8
Black
10
60.4844
20
-54.2598
11
60.1987
21
-54.4026
0
LINE
8
Black
10
60.1987
20
-54.4026
11
59.913
21
-54.4026
0
LINE
8
Black
10
59.913
20
-54.4026
11
59.6273
21
-54.2598
0
LINE
8
Black
10
59.6273
20
-54.2598
11
59.4844
21
-54.1169
0
LINE
8
Black
10
59.4844
20
-54.1169
11
59.3416
21
-53.8312
0
LINE
8
Black
10
59.3416
20
-53.8312
11
59.1987
21
-53.2598
0
LINE
8
Black
10
59.1987
20
-53.2598
11
59.1987
21
-52.5455
0
LINE
8
Black
10
59.1987
20
-52.5455
11
59.3416
21
-51.9741
0
LINE
8
Black
10
59.3416
20
-51.9741
11
59.4844
21
-51.6884
0
LINE
8
Black
10
59.4844
20
-51.6884
11
59.6273
21
-51.5455
0
LINE
8
Black
10
59.6273
20
-51.5455
11
59.913
21
-51.4026
0
LINE
8
Black
10
62.1987
20
-54.1169
11
62.3416
21
-54.2598
0
LINE
8
Black
10
62.3416
20
-54.2598
11
62.1987
21
-54.4026
0
LINE
8
Black
10
62.1987
20
-54.4026
11
62.0559
21
-54.2598
0
LINE
8
Black
10
62.0559
20
-54.2598
11
62.1987
21
-54.1169
0
LINE
8
Black
10
62.1987
20
-54.1169
11
62.1987
21
-54.4026
0
LINE
8
Black
10
64.1987
20
-51.4026
11
64.4844
21
-51.4026
0
LINE
8
Black
10
64.4844
20
-51.4026
11
64.7701
21
-51.5455
0
LINE
8
Black
10
64.7701
20
-51.5455
11
64.913
21
-51.6884
0
LINE
8
Black
10
64.913
20
-51.6884
11
65.0559
21
-51.9741
0
LINE
8
Black
10
65.0559
20
-51.9741
11
65.1987
21
-52.5455
0
LINE
8
Black
10
65.1987
20
-52.5455
11
65.1987
21
-53.2598
0
LINE
8
Black
10
65.1987
20
-53.2598
11
65.0559
21
-53.8312
0
LINE
8
Black
10
65.0559
20
-53.8312
11
64.913
21
-54.1169
0
LINE
8
Black
10
64.913
20
-54.1169
11
64.7701
21
-54.2598
0
LINE
8
Black
10
64.7701
20
-54.2598
11
64.4844
21
-54.4026
0
LINE
8
Black
10
64.4844
20
-54.4026
11
64.1987
21
-54.4026
0
LINE
8
Black
10
64.1987
20
-54.4026
11
63.913
21
-54.2598
0
LINE
8
Black
10
63.913
20
-54.2598
11
63.7701
21
-54.1169
0
LINE
8
Black
10
63.7701
20
-54.1169
11
63.6273
21
-53.8312
0
LINE
8
Black
10
63.6273
20
-53.8312
11
63.4844
21
-53.2598
0
LINE
8
Black
10
63.4844
20
-53.2598
11
63.4844
21
-52.5455
0
LINE
8
Black
10
63.4844
20
-52.5455
11
63.6273
21
-51.9741
0
LINE
8
Black
10
63.6273
20
-51.9741
11
63.7701
21
-51.6884
0
LINE
8
Black
10
63.7701
20
-51.6884
11
63.913
21
-51.5455
0
LINE
8
Black
10
63.913
20
-51.5455
11
64.1987
21
-51.4026
0
LINE
8
Black
10
68.0559
20
-54.4026
11
66.3416
21
-54.4026
0
LINE
8
Black
10
67.1987
20
-54.4026
11
67.1987
21
-51.4026
0
LINE
8
Black
10
67.1987
20
-51.4026
11
66.913
21
-51.8312
0
LINE
8
Black
10
66.913
20
-51.8312
11
66.6273
21
-52.1169
0
LINE
8
Black
10
66.6273
20
-52.1169
11
66.3416
21
-52.2598
0
LINE
8
Black
10
70.6273
20
-51.4026
11
70.0559
21
-51.4026
0
LINE
8
Black
10
70.0559
20
-51.4026
11
69.7701
21
-51.5455
0
LINE
8
Black
10
69.7701
20
-51.5455
11
69.6273
21
-51.6884
0
LINE
8
Black
10
69.6273
20
-51.6884
11
69.3416
21
-52.1169
0
LINE
8
Black
10
69.3416
20
-52.1169
11
69.1987
21
-52.6884
0
LINE
8
Black
10
69.1987
20
-52.6884
11
69.1987
21
-53.8312
0
LINE
8
Black
10
69.1987
20
-53.8312
11
69.3416
21
-54.1169
0
LINE
8
Black
10
69.3416
20
-54.1169
11
69.4844
21
-54.2598
0
LINE
8
Black
10
69.4844
20
-54.2598
11
69.7701
21
-54.4026
0
LINE
8
Black
10
69.7701
20
-54.4026
11
70.3416
21
-54.4026
0
LINE
8
Black
10
70.3416
20
-54.4026
11
70.6273
21
-54.2598
0
LINE
8
Black
10
70.6273
20
-54.2598
11
70.7701
21
-54.1169
0
LINE
8
Black
10
70.7701
20
-54.1169
11
70.913
21
-53.8312
0
LINE
8
Black
10
70.913
20
-53.8312
11
70.913
21
-53.1169
0
LINE
8
Black
10
70.913
20
-53.1169
11
70.7701
21
-52.8312
0
LINE
8
Black
10
70.7701
20
-52.8312
11
70.6273
21
-52.6884
0
LINE
8
Black
10
70.6273
20
-52.6884
11
70.3416
21
-52.5455
0
LINE
8
Black
10
70.3416
20
-52.5455
11
69.7701
21
-52.5455
0
LINE
8
Black
10
69.7701
20
-52.5455
11
69.4844
21
-52.6884
0
LINE
8
Black
10
69.4844
20
-52.6884
11
69.3416
21
-52.8312
0
LINE
8
Black
10
69.3416
20
-52.8312
11
69.1987
21
-53.1169
0
LINE
8
Black
10
72.0559
20
-51.4026
11
72.0559
21
-51.9741
0
LINE
8
Black
10
73.1987
20
-51.4026
11
73.1987
21
-51.9741
0
LINE
8
Black
10
77.6273
20
-55.5455
11
77.4844
21
-55.4026
0
LINE
8
Black
10
77.4844
20
-55.4026
11
77.1987
21
-54.9741
0
LINE
8
Black
10
77.1987
20
-54.9741
11
77.0559
21
-54.6884
0
LINE
8
Black
10
77.0559
20
-54.6884
11
76.913
21
-54.2598
0
LINE
8
Black
10
76.913
20
-54.2598
11
76.7701
21
-53.5455
0
LINE
8
Black
10
76.7701
20
-53.5455
11
76.7701
21
-52.9741
0
LINE
8
Black
10
76.7701
20
-52.9741
11
76.913
21
-52.2598
0
LINE
8
Black
10
76.913
20
-52.2598
11
77.0559
21
-51.8312
0
LINE
8
Black
10
77.0559
20
-51.8312
11
77.1987
21
-51.5455
0
LINE
8
Black
10
77.1987
20
-51.5455
11
77.4844
21
-51.1169
0
LINE
8
Black
10
77.4844
20
-51.1169
11
77.6273
21
-50.9741
0
LINE
8
Black
10
78.4844
20
-51.4026
11
80.3416
21
-51.4026
0
LINE
8
Black
10
80.3416
20
-51.4026
11
79.3416
21
-52.5455
0
LINE
8
Black
10
79.3416
20
-52.5455
11
79.7701
21
-52.5455
0
LINE
8
Black
10
79.7701
20
-52.5455
11
80.0559
21
-52.6884
0
LINE
8
Black
10
80.0559
20
-52.6884
11
80.1987
21
-52.8312
0
LINE
8
Black
10
80.1987
20
-52.8312
11
80.3416
21
-53.1169
0
LINE
8
Black
10
80.3416
20
-53.1169
11
80.3416
21
-53.8312
0
LINE
8
Black
10
80.3416
20
-53.8312
11
80.1987
21
-54.1169
0
LINE
8
Black
10
80.1987
20
-54.1169
11
80.0559
21
-54.2598
0
LINE
8
Black
10
80.0559
20
-54.2598
11
79.7701
21
-54.4026
0
LINE
8
Black
10
79.7701
20
-54.4026
11
78.913
21
-54.4026
0
LINE
8
Black
10
78.913
20
-54.4026
11
78.6273
21
-54.2598
0
LINE
8
Black
10
78.6273
20
-54.2598
11
78.4844
21
-54.1169
0
LINE
8
Black
10
81.3416
20
-51.4026
11
83.3416
21
-51.4026
0
LINE
8
Black
10
83.3416
20
-51.4026
11
82.0559
21
-54.4026
0
LINE
8
Black
10
86.7701
20
-54.4026
11
86.7701
21
-51.4026
0
LINE
8
Black
10
88.0559
20
-54.4026
11
88.0559
21
-52.8312
0
LINE
8
Black
10
88.0559
20
-52.8312
11
87.913
21
-52.5455
0
LINE
8
Black
10
87.913
20
-52.5455
11
87.6273
21
-52.4026
0
LINE
8
Black
10
87.6273
20
-52.4026
11
87.1987
21
-52.4026
0
LINE
8
Black
10
87.1987
20
-52.4026
11
86.913
21
-52.5455
0
LINE
8
Black
10
86.913
20
-52.5455
11
86.7701
21
-52.6884
0
LINE
8
Black
10
89.913
20
-54.4026
11
89.6273
21
-54.2598
0
LINE
8
Black
10
89.6273
20
-54.2598
11
89.4844
21
-54.1169
0
LINE
8
Black
10
89.4844
20
-54.1169
11
89.3416
21
-53.8312
0
LINE
8
Black
10
89.3416
20
-53.8312
11
89.3416
21
-52.9741
0
LINE
8
Black
10
89.3416
20
-52.9741
11
89.4844
21
-52.6884
0
LINE
8
Black
10
89.4844
20
-52.6884
11
89.6273
21
-52.5455
0
LINE
8
Black
10
89.6273
20
-52.5455
11
89.913
21
-52.4026
0
LINE
8
Black
10
89.913
20
-52.4026
11
90.3416
21
-52.4026
0
LINE
8
Black
10
90.3416
20
-52.4026
11
90.6273
21
-52.5455
0
LINE
8
Black
10
90.6273
20
-52.5455
11
90.7701
21
-52.6884
0
LINE
8
Black
10
90.7701
20
-52.6884
11
90.913
21
-52.9741
0
LINE
8
Black
10
90.913
20
-52.9741
11
90.913
21
-53.8312
0
LINE
8
Black
10
90.913
20
-53.8312
11
90.7701
21
-54.1169
0
LINE
8
Black
10
90.7701
20
-54.1169
11
90.6273
21
-54.2598
0
LINE
8
Black
10
90.6273
20
-54.2598
11
90.3416
21
-54.4026
0
LINE
8
Black
10
90.3416
20
-54.4026
11
89.913
21
-54.4026
0
LINE
8
Black
10
92.6273
20
-54.4026
11
92.3416
21
-54.2598
0
LINE
8
Black
10
92.3416
20
-54.2598
11
92.1987
21
-53.9741
0
LINE
8
Black
10
92.1987
20
-53.9741
11
92.1987
21
-51.4026
0
LINE
8
Black
10
94.913
20
-54.2598
11
94.6273
21
-54.4026
0
LINE
8
Black
10
94.6273
20
-54.4026
11
94.0559
21
-54.4026
0
LINE
8
Black
10
94.0559
20
-54.4026
11
93.7701
21
-54.2598
0
LINE
8
Black
10
93.7701
20
-54.2598
11
93.6273
21
-53.9741
0
LINE
8
Black
10
93.6273
20
-53.9741
11
93.6273
21
-52.8312
0
LINE
8
Black
10
93.6273
20
-52.8312
11
93.7701
21
-52.5455
0
LINE
8
Black
10
93.7701
20
-52.5455
11
94.0559
21
-52.4026
0
LINE
8
Black
10
94.0559
20
-52.4026
11
94.6273
21
-52.4026
0
LINE
8
Black
10
94.6273
20
-52.4026
11
94.913
21
-52.5455
0
LINE
8
Black
10
94.913
20
-52.5455
11
95.0559
21
-52.8312
0
LINE
8
Black
10
95.0559
20
-52.8312
11
95.0559
21
-53.1169
0
LINE
8
Black
10
95.0559
20
-53.1169
11
93.6273
21
-53.4026
0
LINE
8
Black
10
96.1987
20
-54.2598
11
96.4844
21
-54.4026
0
LINE
8
Black
10
96.4844
20
-54.4026
11
97.0559
21
-54.4026
0
LINE
8
Black
10
97.0559
20
-54.4026
11
97.3416
21
-54.2598
0
LINE
8
Black
10
97.3416
20
-54.2598
11
97.4844
21
-53.9741
0
LINE
8
Black
10
97.4844
20
-53.9741
11
97.4844
21
-53.8312
0
LINE
8
Black
10
97.4844
20
-53.8312
11
97.3416
21
-53.5455
0
LINE
8
Black
10
97.3416
20
-53.5455
11
97.0559
21
-53.4026
0
LINE
8
Black
10
97.0559
20
-53.4026
11
96.6273
21
-53.4026
0
LINE
8
Black
10
96.6273
20
-53.4026
11
96.3416
21
-53.2598
0
LINE
8
Black
10
96.3416
20
-53.2598
11
96.1987
21
-52.9741
0
LINE
8
Black
10
96.1987
20
-52.9741
11
96.1987
21
-52.8312
0
LINE
8
Black
10
96.1987
20
-52.8312
11
96.3416
21
-52.5455
0
LINE
8
Black
10
96.3416
20
-52.5455
11
96.6273
21
-52.4026
0
LINE
8
Black
10
96.6273
20
-52.4026
11
97.0559
21
-52.4026
0
LINE
8
Black
10
97.0559
20
-52.4026
11
97.3416
21
-52.5455
0
LINE
8
Black
10
98.4844
20
-55.5455
11
98.6273
21
-55.4026
0
LINE
8
Black
10
98.6273
20
-55.4026
11
98.913
21
-54.9741
0
LINE
8
Black
10
98.913
20
-54.9741
11
99.0559
21
-54.6884
0
LINE
8
Black
10
99.0559
20
-54.6884
11
99.1987
21
-54.2598
0
LINE
8
Black
10
99.1987
20
-54.2598
11
99.3416
21
-53.5455
0
LINE
8
Black
10
99.3416
20
-53.5455
11
99.3416
21
-52.9741
0
LINE
8
Black
10
99.3416
20
-52.9741
11
99.1987
21
-52.2598
0
LINE
8
Black
10
99.1987
20
-52.2598
11
99.0559
21
-51.8312
0
LINE
8
Black
10
99.0559
20
-51.8312
11
98.913
21
-51.5455
0
LINE
8
Black
10
98.913
20
-51.5455
11
98.6273
21
-51.1169
0
LINE
8
Black
10
98.6273
20
-51.1169
11
98.4844
21
-50.9741
0
CIRCLE
8
Black
10
30.5066
20
-57.0055
40
0.4064
0
LINE
8
Black
10
34.1987
20
-55.3626
11
34.4844
21
-55.3626
0
LINE
8
Black
10
34.4844
20
-55.3626
11
34.7701
21
-55.5055
0
LINE
8
Black
10
34.7701
20
-55.5055
11
34.913
21
-55.6484
0
LINE
8
Black
10
34.913
20
-55.6484
11
35.0559
21
-55.9341
0
LINE
8
Black
10
35.0559
20
-55.9341
11
35.1987
21
-56.5055
0
LINE
8
Black
10
35.1987
20
-56.5055
11
35.1987
21
-57.2198
0
LINE
8
Black
10
35.1987
20
-57.2198
11
35.0559
21
-57.7912
0
LINE
8
Black
10
35.0559
20
-57.7912
11
34.913
21
-58.0769
0
LINE
8
Black
10
34.913
20
-58.0769
11
34.7701
21
-58.2198
0
LINE
8
Black
10
34.7701
20
-58.2198
11
34.4844
21
-58.3626
0
LINE
8
Black
10
34.4844
20
-58.3626
11
34.1987
21
-58.3626
0
LINE
8
Black
10
34.1987
20
-58.3626
11
33.913
21
-58.2198
0
LINE
8
Black
10
33.913
20
-58.2198
11
33.7701
21
-58.0769
0
LINE
8
Black
10
33.7701
20
-58.0769
11
33.6273
21
-57.7912
0
LINE
8
Black
10
33.6273
20
-57.7912
11
33.4844
21
-57.2198
0
LINE
8
Black
10
33.4844
20
-57.2198
11
33.4844
21
-56.5055
0
LINE
8
Black
10
33.4844
20
-56.5055
11
33.6273
21
-55.9341
0
LINE
8
Black
10
33.6273
20
-55.9341
11
33.7701
21
-55.6484
0
LINE
8
Black
10
33.7701
20
-55.6484
11
33.913
21
-55.5055
0
LINE
8
Black
10
33.913
20
-55.5055
11
34.1987
21
-55.3626
0
LINE
8
Black
10
36.4844
20
-58.0769
11
36.6273
21
-58.2198
0
LINE
8
Black
10
36.6273
20
-58.2198
11
36.4844
21
-58.3626
0
LINE
8
Black
10
36.4844
20
-58.3626
11
36.3416
21
-58.2198
0
LINE
8
Black
10
36.3416
20
-58.2198
11
36.4844
21
-58.0769
0
LINE
8
Black
10
36.4844
20
-58.0769
11
36.4844
21
-58.3626
0
LINE
8
Black
10
38.3416
20
-56.6484
11
38.0559
21
-56.5055
0
LINE
8
Black
10
38.0559
20
-56.5055
11
37.913
21
-56.3626
0
LINE
8
Black
10
37.913
20
-56.3626
11
37.7701
21
-56.0769
0
LINE
8
Black
10
37.7701
20
-56.0769
11
37.7701
21
-55.9341
0
LINE
8
Black
10
37.7701
20
-55.9341
11
37.913
21
-55.6484
0
LINE
8
Black
10
37.913
20
-55.6484
11
38.0559
21
-55.5055
0
LINE
8
Black
10
38.0559
20
-55.5055
11
38.3416
21
-55.3626
0
LINE
8
Black
10
38.3416
20
-55.3626
11
38.913
21
-55.3626
0
LINE
8
Black
10
38.913
20
-55.3626
11
39.1987
21
-55.5055
0
LINE
8
Black
10
39.1987
20
-55.5055
11
39.3416
21
-55.6484
0
LINE
8
Black
10
39.3416
20
-55.6484
11
39.4844
21
-55.9341
0
LINE
8
Black
10
39.4844
20
-55.9341
11
39.4844
21
-56.0769
0
LINE
8
Black
10
39.4844
20
-56.0769
11
39.3416
21
-56.3626
0
LINE
8
Black
10
39.3416
20
-56.3626
11
39.1987
21
-56.5055
0
LINE
8
Black
10
39.1987
20
-56.5055
11
38.913
21
-56.6484
0
LINE
8
Black
10
38.913
20
-56.6484
11
38.3416
21
-56.6484
0
LINE
8
Black
10
38.3416
20
-56.6484
11
38.0559
21
-56.7912
0
LINE
8
Black
10
38.0559
20
-56.7912
11
37.913
21
-56.9341
0
LINE
8
Black
10
37.913
20
-56.9341
11
37.7701
21
-57.2198
0
LINE
8
Black
10
37.7701
20
-57.2198
11
37.7701
21
-57.7912
0
LINE
8
Black
10
37.7701
20
-57.7912
11
37.913
21
-58.0769
0
LINE
8
Black
10
37.913
20
-58.0769
11
38.0559
21
-58.2198
0
LINE
8
Black
10
38.0559
20
-58.2198
11
38.3416
21
-58.3626
0
LINE
8
Black
10
38.3416
20
-58.3626
11
38.913
21
-58.3626
0
LINE
8
Black
10
38.913
20
-58.3626
11
39.1987
21
-58.2198
0
LINE
8
Black
10
39.1987
20
-58.2198
11
39.3416
21
-58.0769
0
LINE
8
Black
10
39.3416
20
-58.0769
11
39.4844
21
-57.7912
0
LINE
8
Black
10
39.4844
20
-57.7912
11
39.4844
21
-57.2198
0
LINE
8
Black
10
39.4844
20
-57.2198
11
39.3416
21
-56.9341
0
LINE
8
Black
10
39.3416
20
-56.9341
11
39.1987
21
-56.7912
0
LINE
8
Black
10
39.1987
20
-56.7912
11
38.913
21
-56.6484
0
LINE
8
Black
10
42.3416
20
-58.3626
11
40.6273
21
-58.3626
0
LINE
8
Black
10
41.4844
20
-58.3626
11
41.4844
21
-55.3626
0
LINE
8
Black
10
41.4844
20
-55.3626
11
41.1987
21
-55.7912
0
LINE
8
Black
10
41.1987
20
-55.7912
11
40.913
21
-56.0769
0
LINE
8
Black
10
40.913
20
-56.0769
11
40.6273
21
-56.2198
0
LINE
8
Black
10
43.6273
20
-58.3626
11
43.6273
21
-56.3626
0
LINE
8
Black
10
43.6273
20
-56.6484
11
43.7701
21
-56.5055
0
LINE
8
Black
10
43.7701
20
-56.5055
11
44.0559
21
-56.3626
0
LINE
8
Black
10
44.0559
20
-56.3626
11
44.4844
21
-56.3626
0
LINE
8
Black
10
44.4844
20
-56.3626
11
44.7701
21
-56.5055
0
LINE
8
Black
10
44.7701
20
-56.5055
11
44.913
21
-56.7912
0
LINE
8
Black
10
44.913
20
-56.7912
11
44.913
21
-58.3626
0
LINE
8
Black
10
44.913
20
-56.7912
11
45.0559
21
-56.5055
0
LINE
8
Black
10
45.0559
20
-56.5055
11
45.3416
21
-56.3626
0
LINE
8
Black
10
45.3416
20
-56.3626
11
45.7701
21
-56.3626
0
LINE
8
Black
10
45.7701
20
-56.3626
11
46.0559
21
-56.5055
0
LINE
8
Black
10
46.0559
20
-56.5055
11
46.1987
21
-56.7912
0
LINE
8
Black
10
46.1987
20
-56.7912
11
46.1987
21
-58.3626
0
LINE
8
Black
10
47.6273
20
-58.3626
11
47.6273
21
-56.3626
0
LINE
8
Black
10
47.6273
20
-56.6484
11
47.7701
21
-56.5055
0
LINE
8
Black
10
47.7701
20
-56.5055
11
48.0559
21
-56.3626
0
LINE
8
Black
10
48.0559
20
-56.3626
11
48.4844
21
-56.3626
0
LINE
8
Black
10
48.4844
20
-56.3626
11
48.7701
21
-56.5055
0
LINE
8
Black
10
48.7701
20
-56.5055
11
48.913
21
-56.7912
0
LINE
8
Black
10
48.913
20
-56.7912
11
48.913
21
-58.3626
0
LINE
8
Black
10
48.913
20
-56.7912
11
49.0559
21
-56.5055
0
LINE
8
Black
10
49.0559
20
-56.5055
11
49.3416
21
-56.3626
0
LINE
8
Black
10
49.3416
20
-56.3626
11
49.7701
21
-56.3626
0
LINE
8
Black
10
49.7701
20
-56.3626
11
50.0559
21
-56.5055
0
LINE
8
Black
10
50.0559
20
-56.5055
11
50.1987
21
-56.7912
0
LINE
8
Black
10
50.1987
20
-56.7912
11
50.1987
21
-58.3626
0
LINE
8
Black
10
56.0559
20
-55.2198
11
53.4844
21
-59.0769
0
LINE
8
Black
10
59.913
20
-55.3626
11
60.1987
21
-55.3626
0
LINE
8
Black
10
60.1987
20
-55.3626
11
60.4844
21
-55.5055
0
LINE
8
Black
10
60.4844
20
-55.5055
11
60.6273
21
-55.6484
0
LINE
8
Black
10
60.6273
20
-55.6484
11
60.7701
21
-55.9341
0
LINE
8
Black
10
60.7701
20
-55.9341
11
60.913
21
-56.5055
0
LINE
8
Black
10
60.913
20
-56.5055
11
60.913
21
-57.2198
0
LINE
8
Black
10
60.913
20
-57.2198
11
60.7701
21
-57.7912
0
LINE
8
Black
10
60.7701
20
-57.7912
11
60.6273
21
-58.0769
0
LINE
8
Black
10
60.6273
20
-58.0769
11
60.4844
21
-58.2198
0
LINE
8
Black
10
60.4844
20
-58.2198
11
60.1987
21
-58.3626
0
LINE
8
Black
10
60.1987
20
-58.3626
11
59.913
21
-58.3626
0
LINE
8
Black
10
59.913
20
-58.3626
11
59.6273
21
-58.2198
0
LINE
8
Black
10
59.6273
20
-58.2198
11
59.4844
21
-58.0769
0
LINE
8
Black
10
59.4844
20
-58.0769
11
59.3416
21
-57.7912
0
LINE
8
Black
10
59.3416
20
-57.7912
11
59.1987
21
-57.2198
0
LINE
8
Black
10
59.1987
20
-57.2198
11
59.1987
21
-56.5055
0
LINE
8
Black
10
59.1987
20
-56.5055
11
59.3416
21
-55.9341
0
LINE
8
Black
10
59.3416
20
-55.9341
11
59.4844
21
-55.6484
0
LINE
8
Black
10
59.4844
20
-55.6484
11
59.6273
21
-55.5055
0
LINE
8
Black
10
59.6273
20
-55.5055
11
59.913
21
-55.3626
0
LINE
8
Black
10
62.1987
20
-58.0769
11
62.3416
21
-58.2198
0
LINE
8
Black
10
62.3416
20
-58.2198
11
62.1987
21
-58.3626
0
LINE
8
Black
10
62.1987
20
-58.3626
11
62.0559
21
-58.2198
0
LINE
8
Black
10
62.0559
20
-58.2198
11
62.1987
21
-58.0769
0
LINE
8
Black
10
62.1987
20
-58.0769
11
62.1987
21
-58.3626
0
LINE
8
Black
10
64.1987
20
-55.3626
11
64.4844
21
-55.3626
0
LINE
8
Black
10
64.4844
20
-55.3626
11
64.7701
21
-55.5055
0
LINE
8
Black
10
64.7701
20
-55.5055
11
64.913
21
-55.6484
0
LINE
8
Black
10
64.913
20
-55.6484
11
65.0559
21
-55.9341
0
LINE
8
Black
10
65.0559
20
-55.9341
11
65.1987
21
-56.5055
0
LINE
8
Black
10
65.1987
20
-56.5055
11
65.1987
21
-57.2198
0
LINE
8
Black
10
65.1987
20
-57.2198
11
65.0559
21
-57.7912
0
LINE
8
Black
10
65.0559
20
-57.7912
11
64.913
21
-58.0769
0
LINE
8
Black
10
64.913
20
-58.0769
11
64.7701
21
-58.2198
0
LINE
8
Black
10
64.7701
20
-58.2198
11
64.4844
21
-58.3626
0
LINE
8
Black
10
64.4844
20
-58.3626
11
64.1987
21
-58.3626
0
LINE
8
Black
10
64.1987
20
-58.3626
11
63.913
21
-58.2198
0
LINE
8
Black
10
63.913
20
-58.2198
11
63.7701
21
-58.0769
0
LINE
8
Black
10
63.7701
20
-58.0769
11
63.6273
21
-57.7912
0
LINE
8
Black
10
63.6273
20
-57.7912
11
63.4844
21
-57.2198
0
LINE
8
Black
10
63.4844
20
-57.2198
11
63.4844
21
-56.5055
0
LINE
8
Black
10
63.4844
20
-56.5055
11
63.6273
21
-55.9341
0
LINE
8
Black
10
63.6273
20
-55.9341
11
63.7701
21
-55.6484
0
LINE
8
Black
10
63.7701
20
-55.6484
11
63.913
21
-55.5055
0
LINE
8
Black
10
63.913
20
-55.5055
11
64.1987
21
-55.3626
0
LINE
8
Black
10
66.1987
20
-55.3626
11
68.0559
21
-55.3626
0
LINE
8
Black
10
68.0559
20
-55.3626
11
67.0559
21
-56.5055
0
LINE
8
Black
10
67.0559
20
-56.5055
11
67.4844
21
-56.5055
0
LINE
8
Black
10
67.4844
20
-56.5055
11
67.7701
21
-56.6484
0
LINE
8
Black
10
67.7701
20
-56.6484
11
67.913
21
-56.7912
0
LINE
8
Black
10
67.913
20
-56.7912
11
68.0559
21
-57.0769
0
LINE
8
Black
10
68.0559
20
-57.0769
11
68.0559
21
-57.7912
0
LINE
8
Black
10
68.0559
20
-57.7912
11
67.913
21
-58.0769
0
LINE
8
Black
10
67.913
20
-58.0769
11
67.7701
21
-58.2198
0
LINE
8
Black
10
67.7701
20
-58.2198
11
67.4844
21
-58.3626
0
LINE
8
Black
10
67.4844
20
-58.3626
11
66.6273
21
-58.3626
0
LINE
8
Black
10
66.6273
20
-58.3626
11
66.3416
21
-58.2198
0
LINE
8
Black
10
66.3416
20
-58.2198
11
66.1987
21
-58.0769
0
LINE
8
Black
10
69.1987
20
-55.6484
11
69.3416
21
-55.5055
0
LINE
8
Black
10
69.3416
20
-55.5055
11
69.6273
21
-55.3626
0
LINE
8
Black
10
69.6273
20
-55.3626
11
70.3416
21
-55.3626
0
LINE
8
Black
10
70.3416
20
-55.3626
11
70.6273
21
-55.5055
0
LINE
8
Black
10
70.6273
20
-55.5055
11
70.7701
21
-55.6484
0
LINE
8
Black
10
70.7701
20
-55.6484
11
70.913
21
-55.9341
0
LINE
8
Black
10
70.913
20
-55.9341
11
70.913
21
-56.2198
0
LINE
8
Black
10
70.913
20
-56.2198
11
70.7701
21
-56.6484
0
LINE
8
Black
10
70.7701
20
-56.6484
11
69.0559
21
-58.3626
0
LINE
8
Black
10
69.0559
20
-58.3626
11
70.913
21
-58.3626
0
LINE
8
Black
10
72.0559
20
-55.3626
11
72.0559
21
-55.9341
0
LINE
8
Black
10
73.1987
20
-55.3626
11
73.1987
21
-55.9341
0
LINE
8
Black
10
77.6273
20
-59.5055
11
77.4844
21
-59.3626
0
LINE
8
Black
10
77.4844
20
-59.3626
11
77.1987
21
-58.9341
0
LINE
8
Black
10
77.1987
20
-58.9341
11
77.0559
21
-58.6484
0
LINE
8
Black
10
77.0559
20
-58.6484
11
76.913
21
-58.2198
0
LINE
8
Black
10
76.913
20
-58.2198
11
76.7701
21
-57.5055
0
LINE
8
Black
10
76.7701
20
-57.5055
11
76.7701
21
-56.9341
0
LINE
8
Black
10
76.7701
20
-56.9341
11
76.913
21
-56.2198
0
LINE
8
Black
10
76.913
20
-56.2198
11
77.0559
21
-55.7912
0
LINE
8
Black
10
77.0559
20
-55.7912
11
77.1987
21
-55.5055
0
LINE
8
Black
10
77.1987
20
-55.5055
11
77.4844
21
-55.0769
0
LINE
8
Black
10
77.4844
20
-55.0769
11
77.6273
21
-54.9341
0
LINE
8
Black
10
78.4844
20
-55.3626
11
80.3416
21
-55.3626
0
LINE
8
Black
10
80.3416
20
-55.3626
11
79.3416
21
-56.5055
0
LINE
8
Black
10
79.3416
20
-56.5055
11
79.7701
21
-56.5055
0
LINE
8
Black
10
79.7701
20
-56.5055
11
80.0559
21
-56.6484
0
LINE
8
Black
10
80.0559
20
-56.6484
11
80.1987
21
-56.7912
0
LINE
8
Black
10
80.1987
20
-56.7912
11
80.3416
21
-57.0769
0
LINE
8
Black
10
80.3416
20
-57.0769
11
80.3416
21
-57.7912
0
LINE
8
Black
10
80.3416
20
-57.7912
11
80.1987
21
-58.0769
0
LINE
8
Black
10
80.1987
20
-58.0769
11
80.0559
21
-58.2198
0
LINE
8
Black
10
80.0559
20
-58.2198
11
79.7701
21
-58.3626
0
LINE
8
Black
10
79.7701
20
-58.3626
11
78.913
21
-58.3626
0
LINE
8
Black
10
78.913
20
-58.3626
11
78.6273
21
-58.2198
0
LINE
8
Black
10
78.6273
20
-58.2198
11
78.4844
21
-58.0769
0
LINE
8
Black
10
83.913
20
-58.3626
11
83.913
21
-55.3626
0
LINE
8
Black
10
85.1987
20
-58.3626
11
85.1987
21
-56.7912
0
LINE
8
Black
10
85.1987
20
-56.7912
11
85.0559
21
-56.5055
0
LINE
8
Black
10
85.0559
20
-56.5055
11
84.7701
21
-56.3626
0
LINE
8
Black
10
84.7701
20
-56.3626
11
84.3416
21
-56.3626
0
LINE
8
Black
10
84.3416
20
-56.3626
11
84.0559
21
-56.5055
0
LINE
8
Black
10
84.0559
20
-56.5055
11
83.913
21
-56.6484
0
LINE
8
Black
10
87.0559
20
-58.3626
11
86.7701
21
-58.2198
0
LINE
8
Black
10
86.7701
20
-58.2198
11
86.6273
21
-58.0769
0
LINE
8
Black
10
86.6273
20
-58.0769
11
86.4844
21
-57.7912
0
LINE
8
Black
10
86.4844
20
-57.7912
11
86.4844
21
-56.9341
0
LINE
8
Black
10
86.4844
20
-56.9341
11
86.6273
21
-56.6484
0
LINE
8
Black
10
86.6273
20
-56.6484
11
86.7701
21
-56.5055
0
LINE
8
Black
10
86.7701
20
-56.5055
11
87.0559
21
-56.3626
0
LINE
8
Black
10
87.0559
20
-56.3626
11
87.4844
21
-56.3626
0
LINE
8
Black
10
87.4844
20
-56.3626
11
87.7701
21
-56.5055
0
LINE
8
Black
10
87.7701
20
-56.5055
11
87.913
21
-56.6484
0
LINE
8
Black
10
87.913
20
-56.6484
11
88.0559
21
-56.9341
0
LINE
8
Black
10
88.0559
20
-56.9341
11
88.0559
21
-57.7912
0
LINE
8
Black
10
88.0559
20
-57.7912
11
87.913
21
-58.0769
0
LINE
8
Black
10
87.913
20
-58.0769
11
87.7701
21
-58.2198
0
LINE
8
Black
10
87.7701
20
-58.2198
11
87.4844
21
-58.3626
0
LINE
8
Black
10
87.4844
20
-58.3626
11
87.0559
21
-58.3626
0
LINE
8
Black
10
89.7701
20
-58.3626
11
89.4844
21
-58.2198
0
LINE
8
Black
10
89.4844
20
-58.2198
11
89.3416
21
-57.9341
0
LINE
8
Black
10
89.3416
20
-57.9341
11
89.3416
21
-55.3626
0
LINE
8
Black
10
92.0559
20
-58.2198
11
91.7701
21
-58.3626
0
LINE
8
Black
10
91.7701
20
-58.3626
11
91.1987
21
-58.3626
0
LINE
8
Black
10
91.1987
20
-58.3626
11
90.913
21
-58.2198
0
LINE
8
Black
10
90.913
20
-58.2198
11
90.7701
21
-57.9341
0
LINE
8
Black
10
90.7701
20
-57.9341
11
90.7701
21
-56.7912
0
LINE
8
Black
10
90.7701
20
-56.7912
11
90.913
21
-56.5055
0
LINE
8
Black
10
90.913
20
-56.5055
11
91.1987
21
-56.3626
0
LINE
8
Black
10
91.1987
20
-56.3626
11
91.7701
21
-56.3626
0
LINE
8
Black
10
91.7701
20
-56.3626
11
92.0559
21
-56.5055
0
LINE
8
Black
10
92.0559
20
-56.5055
11
92.1987
21
-56.7912
0
LINE
8
Black
10
92.1987
20
-56.7912
11
92.1987
21
-57.0769
0
LINE
8
Black
10
92.1987
20
-57.0769
11
90.7701
21
-57.3626
0
LINE
8
Black
10
93.3416
20
-58.2198
11
93.6273
21
-58.3626
0
LINE
8
Black
10
93.6273
20
-58.3626
11
94.1987
21
-58.3626
0
LINE
8
Black
10
94.1987
20
-58.3626
11
94.4844
21
-58.2198
0
LINE
8
Black
10
94.4844
20
-58.2198
11
94.6273
21
-57.9341
0
LINE
8
Black
10
94.6273
20
-57.9341
11
94.6273
21
-57.7912
0
LINE
8
Black
10
94.6273
20
-57.7912
11
94.4844
21
-57.5055
0
LINE
8
Black
10
94.4844
20
-57.5055
11
94.1987
21
-57.3626
0
LINE
8
Black
10
94.1987
20
-57.3626
11
93.7701
21
-57.3626
0
LINE
8
Black
10
93.7701
20
-57.3626
11
93.4844
21
-57.2198
0
LINE
8
Black
10
93.4844
20
-57.2198
11
93.3416
21
-56.9341
0
LINE
8
Black
10
93.3416
20
-56.9341
11
93.3416
21
-56.7912
0
LINE
8
Black
10
93.3416
20
-56.7912
11
93.4844
21
-56.5055
0
LINE
8
Black
10
93.4844
20
-56.5055
11
93.7701
21
-56.3626
0
LINE
8
Black
10
93.7701
20
-56.3626
11
94.1987
21
-56.3626
0
LINE
8
Black
10
94.1987
20
-56.3626
11
94.4844
21
-56.5055
0
LINE
8
Black
10
95.6273
20
-59.5055
11
95.7701
21
-59.3626
0
LINE
8
Black
10
95.7701
20
-59.3626
11
96.0559
21
-58.9341
0
LINE
8
Black
10
96.0559
20
-58.9341
11
96.1987
21
-58.6484
0
LINE
8
Black
10
96.1987
20
-58.6484
11
96.3416
21
-58.2198
0
LINE
8
Black
10
96.3416
20
-58.2198
11
96.4844
21
-57.5055
0
LINE
8
Black
10
96.4844
20
-57.5055
11
96.4844
21
-56.9341
0
LINE
8
Black
10
96.4844
20
-56.9341
11
96.3416
21
-56.2198
0
LINE
8
Black
10
96.3416
20
-56.2198
11
96.1987
21
-55.7912
0
LINE
8
Black
10
96.1987
20
-55.7912
11
96.0559
21
-55.5055
0
LINE
8
Black
10
96.0559
20
-55.5055
11
95.7701
21
-55.0769
0
LINE
8
Black
10
95.7701
20
-55.0769
11
95.6273
21
-54.9341
0
LINE
8
Black
10
30.288
20
-60.3405
11
30.288
21
-61.5905
0
LINE
8
Black
10
29.663
20
-60.9655
11
30.913
21
-60.9655
0
LINE
8
Black
10
35.1987
20
-62.3226
11
33.4844
21
-62.3226
0
LINE
8
Black
10
34.3416
20
-62.3226
11
34.3416
21
-59.3226
0
LINE
8
Black
10
34.3416
20
-59.3226
11
34.0559
21
-59.7512
0
LINE
8
Black
10
34.0559
20
-59.7512
11
33.7701
21
-60.0369
0
LINE
8
Black
10
33.7701
20
-60.0369
11
33.4844
21
-60.1798
0
LINE
8
Black
10
36.4844
20
-62.0369
11
36.6273
21
-62.1798
0
LINE
8
Black
10
36.6273
20
-62.1798
11
36.4844
21
-62.3226
0
LINE
8
Black
10
36.4844
20
-62.3226
11
36.3416
21
-62.1798
0
LINE
8
Black
10
36.3416
20
-62.1798
11
36.4844
21
-62.0369
0
LINE
8
Black
10
36.4844
20
-62.0369
11
36.4844
21
-62.3226
0
LINE
8
Black
10
37.7701
20
-59.6084
11
37.913
21
-59.4655
0
LINE
8
Black
10
37.913
20
-59.4655
11
38.1987
21
-59.3226
0
LINE
8
Black
10
38.1987
20
-59.3226
11
38.913
21
-59.3226
0
LINE
8
Black
10
38.913
20
-59.3226
11
39.1987
21
-59.4655
0
LINE
8
Black
10
39.1987
20
-59.4655
11
39.3416
21
-59.6084
0
LINE
8
Black
10
39.3416
20
-59.6084
11
39.4844
21
-59.8941
0
LINE
8
Black
10
39.4844
20
-59.8941
11
39.4844
21
-60.1798
0
LINE
8
Black
10
39.4844
20
-60.1798
11
39.3416
21
-60.6084
0
LINE
8
Black
10
39.3416
20
-60.6084
11
37.6273
21
-62.3226
0
LINE
8
Black
10
37.6273
20
-62.3226
11
39.4844
21
-62.3226
0
LINE
8
Black
10
42.1987
20
-59.3226
11
40.7701
21
-59.3226
0
LINE
8
Black
10
40.7701
20
-59.3226
11
40.6273
21
-60.7512
0
LINE
8
Black
10
40.6273
20
-60.7512
11
40.7701
21
-60.6084
0
LINE
8
Black
10
40.7701
20
-60.6084
11
41.0559
21
-60.4655
0
LINE
8
Black
10
41.0559
20
-60.4655
11
41.7701
21
-60.4655
0
LINE
8
Black
10
41.7701
20
-60.4655
11
42.0559
21
-60.6084
0
LINE
8
Black
10
42.0559
20
-60.6084
11
42.1987
21
-60.7512
0
LINE
8
Black
10
42.1987
20
-60.7512
11
42.3416
21
-61.0369
0
LINE
8
Black
10
42.3416
20
-61.0369
11
42.3416
21
-61.7512
0
LINE
8
Black
10
42.3416
20
-61.7512
11
42.1987
21
-62.0369
0
LINE
8
Black
10
42.1987
20
-62.0369
11
42.0559
21
-62.1798
0
LINE
8
Black
10
42.0559
20
-62.1798
11
41.7701
21
-62.3226
0
LINE
8
Black
10
41.7701
20
-62.3226
11
41.0559
21
-62.3226
0
LINE
8
Black
10
41.0559
20
-62.3226
11
40.7701
21
-62.1798
0
LINE
8
Black
10
40.7701
20
-62.1798
11
40.6273
21
-62.0369
0
LINE
8
Black
10
43.6273
20
-62.3226
11
43.6273
21
-60.3226
0
LINE
8
Black
10
43.6273
20
-60.6084
11
43.7701
21
-60.4655
0
LINE
8
Black
10
43.7701
20
-60.4655
11
44.0559
21
-60.3226
0
LINE
8
Black
10
44.0559
20
-60.3226
11
44.4844
21
-60.3226
0
LINE
8
Black
10
44.4844
20
-60.3226
11
44.7701
21
-60.4655
0
LINE
8
Black
10
44.7701
20
-60.4655
11
44.913
21
-60.7512
0
LINE
8
Black
10
44.913
20
-60.7512
11
44.913
21
-62.3226
0
LINE
8
Black
10
44.913
20
-60.7512
11
45.0559
21
-60.4655
0
LINE
8
Black
10
45.0559
20
-60.4655
11
45.3416
21
-60.3226
0
LINE
8
Black
10
45.3416
20
-60.3226
11
45.7701
21
-60.3226
0
LINE
8
Black
10
45.7701
20
-60.3226
11
46.0559
21
-60.4655
0
LINE
8
Black
10
46.0559
20
-60.4655
11
46.1987
21
-60.7512
0
LINE
8
Black
10
46.1987
20
-60.7512
11
46.1987
21
-62.3226
0
LINE
8
Black
10
47.6273
20
-62.3226
11
47.6273
21
-60.3226
0
LINE
8
Black
10
47.6273
20
-60.6084
11
47.7701
21
-60.4655
0
LINE
8
Black
10
47.7701
20
-60.4655
11
48.0559
21
-60.3226
0
LINE
8
Black
10
48.0559
20
-60.3226
11
48.4844
21
-60.3226
0
LINE
8
Black
10
48.4844
20
-60.3226
11
48.7701
21
-60.4655
0
LINE
8
Black
10
48.7701
20
-60.4655
11
48.913
21
-60.7512
0
LINE
8
Black
10
48.913
20
-60.7512
11
48.913
21
-62.3226
0
LINE
8
Black
10
48.913
20
-60.7512
11
49.0559
21
-60.4655
0
LINE
8
Black
10
49.0559
20
-60.4655
11
49.3416
21
-60.3226
0
LINE
8
Black
10
49.3416
20
-60.3226
11
49.7701
21
-60.3226
0
LINE
8
Black
10
49.7701
20
-60.3226
11
50.0559
21
-60.4655
0
LINE
8
Black
10
50.0559
20
-60.4655
11
50.1987
21
-60.7512
0
LINE
8
Black
10
50.1987
20
-60.7512
11
50.1987
21
-62.3226
0
LINE
8
Black
10
56.0559
20
-59.1798
11
53.4844
21
-63.0369
0
LINE
8
Black
10
59.913
20
-59.3226
11
60.1987
21
-59.3226
0
LINE
8
Black
10
60.1987
20
-59.3226
11
60.4844
21
-59.4655
0
LINE
8
Black
10
60.4844
20
-59.4655
11
60.6273
21
-59.6084
0
LINE
8
Black
10
60.6273
20
-59.6084
11
60.7701
21
-59.8941
0
LINE
8
Black
10
60.7701
20
-59.8941
11
60.913
21
-60.4655
0
LINE
8
Black
10
60.913
20
-60.4655
11
60.913
21
-61.1798
0
LINE
8
Black
10
60.913
20
-61.1798
11
60.7701
21
-61.7512
0
LINE
8
Black
10
60.7701
20
-61.7512
11
60.6273
21
-62.0369
0
LINE
8
Black
10
60.6273
20
-62.0369
11
60.4844
21
-62.1798
0
LINE
8
Black
10
60.4844
20
-62.1798
11
60.1987
21
-62.3226
0
LINE
8
Black
10
60.1987
20
-62.3226
11
59.913
21
-62.3226
0
LINE
8
Black
10
59.913
20
-62.3226
11
59.6273
21
-62.1798
0
LINE
8
Black
10
59.6273
20
-62.1798
11
59.4844
21
-62.0369
0
LINE
8
Black
10
59.4844
20
-62.0369
11
59.3416
21
-61.7512
0
LINE
8
Black
10
59.3416
20
-61.7512
11
59.1987
21
-61.1798
0
LINE
8
Black
10
59.1987
20
-61.1798
11
59.1987
21
-60.4655
0
LINE
8
Black
10
59.1987
20
-60.4655
11
59.3416
21
-59.8941
0
LINE
8
Black
10
59.3416
20
-59.8941
11
59.4844
21
-59.6084
0
LINE
8
Black
10
59.4844
20
-59.6084
11
59.6273
21
-59.4655
0
LINE
8
Black
10
59.6273
20
-59.4655
11
59.913
21
-59.3226
0
LINE
8
Black
10
62.1987
20
-62.0369
11
62.3416
21
-62.1798
0
LINE
8
Black
10
62.3416
20
-62.1798
11
62.1987
21
-62.3226
0
LINE
8
Black
10
62.1987
20
-62.3226
11
62.0559
21
-62.1798
0
LINE
8
Black
10
62.0559
20
-62.1798
11
62.1987
21
-62.0369
0
LINE
8
Black
10
62.1987
20
-62.0369
11
62.1987
21
-62.3226
0
LINE
8
Black
10
64.1987
20
-59.3226
11
64.4844
21
-59.3226
0
LINE
8
Black
10
64.4844
20
-59.3226
11
64.7701
21
-59.4655
0
LINE
8
Black
10
64.7701
20
-59.4655
11
64.913
21
-59.6084
0
LINE
8
Black
10
64.913
20
-59.6084
11
65.0559
21
-59.8941
0
LINE
8
Black
10
65.0559
20
-59.8941
11
65.1987
21
-60.4655
0
LINE
8
Black
10
65.1987
20
-60.4655
11
65.1987
21
-61.1798
0
LINE
8
Black
10
65.1987
20
-61.1798
11
65.0559
21
-61.7512
0
LINE
8
Black
10
65.0559
20
-61.7512
11
64.913
21
-62.0369
0
LINE
8
Black
10
64.913
20
-62.0369
11
64.7701
21
-62.1798
0
LINE
8
Black
10
64.7701
20
-62.1798
11
64.4844
21
-62.3226
0
LINE
8
Black
10
64.4844
20
-62.3226
11
64.1987
21
-62.3226
0
LINE
8
Black
10
64.1987
20
-62.3226
11
63.913
21
-62.1798
0
LINE
8
Black
10
63.913
20
-62.1798
11
63.7701
21
-62.0369
0
LINE
8
Black
10
63.7701
20
-62.0369
11
63.6273
21
-61.7512
0
LINE
8
Black
10
63.6273
20
-61.7512
11
63.4844
21
-61.1798
0
LINE
8
Black
10
63.4844
20
-61.1798
11
63.4844
21
-60.4655
0
LINE
8
Black
10
63.4844
20
-60.4655
11
63.6273
21
-59.8941
0
LINE
8
Black
10
63.6273
20
-59.8941
11
63.7701
21
-59.6084
0
LINE
8
Black
10
63.7701
20
-59.6084
11
63.913
21
-59.4655
0
LINE
8
Black
10
63.913
20
-59.4655
11
64.1987
21
-59.3226
0
LINE
8
Black
10
67.7701
20
-60.3226
11
67.7701
21
-62.3226
0
LINE
8
Black
10
67.0559
20
-59.1798
11
66.3416
21
-61.3226
0
LINE
8
Black
10
66.3416
20
-61.3226
11
68.1987
21
-61.3226
0
LINE
8
Black
10
69.4844
20
-62.3226
11
70.0559
21
-62.3226
0
LINE
8
Black
10
70.0559
20
-62.3226
11
70.3416
21
-62.1798
0
LINE
8
Black
10
70.3416
20
-62.1798
11
70.4844
21
-62.0369
0
LINE
8
Black
10
70.4844
20
-62.0369
11
70.7701
21
-61.6084
0
LINE
8
Black
10
70.7701
20
-61.6084
11
70.913
21
-61.0369
0
LINE
8
Black
10
70.913
20
-61.0369
11
70.913
21
-59.8941
0
LINE
8
Black
10
70.913
20
-59.8941
11
70.7701
21
-59.6084
0
LINE
8
Black
10
70.7701
20
-59.6084
11
70.6273
21
-59.4655
0
LINE
8
Black
10
70.6273
20
-59.4655
11
70.3416
21
-59.3226
0
LINE
8
Black
10
70.3416
20
-59.3226
11
69.7701
21
-59.3226
0
LINE
8
Black
10
69.7701
20
-59.3226
11
69.4844
21
-59.4655
0
LINE
8
Black
10
69.4844
20
-59.4655
11
69.3416
21
-59.6084
0
LINE
8
Black
10
69.3416
20
-59.6084
11
69.1987
21
-59.8941
0
LINE
8
Black
10
69.1987
20
-59.8941
11
69.1987
21
-60.6084
0
LINE
8
Black
10
69.1987
20
-60.6084
11
69.3416
21
-60.8941
0
LINE
8
Black
10
69.3416
20
-60.8941
11
69.4844
21
-61.0369
0
LINE
8
Black
10
69.4844
20
-61.0369
11
69.7701
21
-61.1798
0
LINE
8
Black
10
69.7701
20
-61.1798
11
70.3416
21
-61.1798
0
LINE
8
Black
10
70.3416
20
-61.1798
11
70.6273
21
-61.0369
0
LINE
8
Black
10
70.6273
20
-61.0369
11
70.7701
21
-60.8941
0
LINE
8
Black
10
70.7701
20
-60.8941
11
70.913
21
-60.6084
0
LINE
8
Black
10
72.0559
20
-59.3226
11
72.0559
21
-59.8941
0
LINE
8
Black
10
73.1987
20
-59.3226
11
73.1987
21
-59.8941
0
LINE
8
Black
10
77.6273
20
-63.4655
11
77.4844
21
-63.3226
0
LINE
8
Black
10
77.4844
20
-63.3226
11
77.1987
21
-62.8941
0
LINE
8
Black
10
77.1987
20
-62.8941
11
77.0559
21
-62.6084
0
LINE
8
Black
10
77.0559
20
-62.6084
11
76.913
21
-62.1798
0
LINE
8
Black
10
76.913
20
-62.1798
11
76.7701
21
-61.4655
0
LINE
8
Black
10
76.7701
20
-61.4655
11
76.7701
21
-60.8941
0
LINE
8
Black
10
76.7701
20
-60.8941
11
76.913
21
-60.1798
0
LINE
8
Black
10
76.913
20
-60.1798
11
77.0559
21
-59.7512
0
LINE
8
Black
10
77.0559
20
-59.7512
11
77.1987
21
-59.4655
0
LINE
8
Black
10
77.1987
20
-59.4655
11
77.4844
21
-59.0369
0
LINE
8
Black
10
77.4844
20
-59.0369
11
77.6273
21
-58.8941
0
LINE
8
Black
10
78.6273
20
-59.6084
11
78.7701
21
-59.4655
0
LINE
8
Black
10
78.7701
20
-59.4655
11
79.0559
21
-59.3226
0
LINE
8
Black
10
79.0559
20
-59.3226
11
79.7701
21
-59.3226
0
LINE
8
Black
10
79.7701
20
-59.3226
11
80.0559
21
-59.4655
0
LINE
8
Black
10
80.0559
20
-59.4655
11
80.1987
21
-59.6084
0
LINE
8
Black
10
80.1987
20
-59.6084
11
80.3416
21
-59.8941
0
LINE
8
Black
10
80.3416
20
-59.8941
11
80.3416
21
-60.1798
0
LINE
8
Black
10
80.3416
20
-60.1798
11
80.1987
21
-60.6084
0
LINE
8
Black
10
80.1987
20
-60.6084
11
78.4844
21
-62.3226
0
LINE
8
Black
10
78.4844
20
-62.3226
11
80.3416
21
-62.3226
0
LINE
8
Black
10
83.913
20
-62.3226
11
83.913
21
-59.3226
0
LINE
8
Black
10
85.1987
20
-62.3226
11
85.1987
21
-60.7512
0
LINE
8
Black
10
85.1987
20
-60.7512
11
85.0559
21
-60.4655
0
LINE
8
Black
10
85.0559
20
-60.4655
11
84.7701
21
-60.3226
0
LINE
8
Black
10
84.7701
20
-60.3226
11
84.3416
21
-60.3226
0
LINE
8
Black
10
84.3416
20
-60.3226
11
84.0559
21
-60.4655
0
LINE
8
Black
10
84.0559
20
-60.4655
11
83.913
21
-60.6084
0
LINE
8
Black
10
87.0559
20
-62.3226
11
86.7701
21
-62.1798
0
LINE
8
Black
10
86.7701
20
-62.1798
11
86.6273
21
-62.0369
0
LINE
8
Black
10
86.6273
20
-62.0369
11
86.4844
21
-61.7512
0
LINE
8
Black
10
86.4844
20
-61.7512
11
86.4844
21
-60.8941
0
LINE
8
Black
10
86.4844
20
-60.8941
11
86.6273
21
-60.6084
0
LINE
8
Black
10
86.6273
20
-60.6084
11
86.7701
21
-60.4655
0
LINE
8
Black
10
86.7701
20
-60.4655
11
87.0559
21
-60.3226
0
LINE
8
Black
10
87.0559
20
-60.3226
11
87.4844
21
-60.3226
0
LINE
8
Black
10
87.4844
20
-60.3226
11
87.7701
21
-60.4655
0
LINE
8
Black
10
87.7701
20
-60.4655
11
87.913
21
-60.6084
0
LINE
8
Black
10
87.913
20
-60.6084
11
88.0559
21
-60.8941
0
LINE
8
Black
10
88.0559
20
-60.8941
11
88.0559
21
-61.7512
0
LINE
8
Black
10
88.0559
20
-61.7512
11
87.913
21
-62.0369
0
LINE
8
Black
10
87.913
20
-62.0369
11
87.7701
21
-62.1798
0
LINE
8
Black
10
87.7701
20
-62.1798
11
87.4844
21
-62.3226
0
LINE
8
Black
10
87.4844
20
-62.3226
11
87.0559
21
-62.3226
0
LINE
8
Black
10
89.7701
20
-62.3226
11
89.4844
21
-62.1798
0
LINE
8
Black
10
89.4844
20
-62.1798
11
89.3416
21
-61.8941
0
LINE
8
Black
10
89.3416
20
-61.8941
11
89.3416
21
-59.3226
0
LINE
8
Black
10
92.0559
20
-62.1798
11
91.7701
21
-62.3226
0
LINE
8
Black
10
91.7701
20
-62.3226
11
91.1987
21
-62.3226
0
LINE
8
Black
10
91.1987
20
-62.3226
11
90.913
21
-62.1798
0
LINE
8
Black
10
90.913
20
-62.1798
11
90.7701
21
-61.8941
0
LINE
8
Black
10
90.7701
20
-61.8941
11
90.7701
21
-60.7512
0
LINE
8
Black
10
90.7701
20
-60.7512
11
90.913
21
-60.4655
0
LINE
8
Black
10
90.913
20
-60.4655
11
91.1987
21
-60.3226
0
LINE
8
Black
10
91.1987
20
-60.3226
11
91.7701
21
-60.3226
0
LINE
8
Black
10
91.7701
20
-60.3226
11
92.0559
21
-60.4655
0
LINE
8
Black
10
92.0559
20
-60.4655
11
92.1987
21
-60.7512
0
LINE
8
Black
10
92.1987
20
-60.7512
11
92.1987
21
-61.0369
0
LINE
8
Black
10
92.1987
20
-61.0369
11
90.7701
21
-61.3226
0
LINE
8
Black
10
93.3416
20
-62.1798
11
93.6273
21
-62.3226
0
LINE
8
Black
10
93.6273
20
-62.3226
11
94.1987
21
-62.3226
0
LINE
8
Black
10
94.1987
20
-62.3226
11
94.4844
21
-62.1798
0
LINE
8
Black
10
94.4844
20
-62.1798
11
94.6273
21
-61.8941
0
LINE
8
Black
10
94.6273
20
-61.8941
11
94.6273
21
-61.7512
0
LINE
8
Black
10
94.6273
20
-61.7512
11
94.4844
21
-61.4655
0
LINE
8
Black
10
94.4844
20
-61.4655
11
94.1987
21
-61.3226
0
LINE
8
Black
10
94.1987
20
-61.3226
11
93.7701
21
-61.3226
0
LINE
8
Black
10
93.7701
20
-61.3226
11
93.4844
21
-61.1798
0
LINE
8
Black
10
93.4844
20
-61.1798
11
93.3416
21
-60.8941
0
LINE
8
Black
10
93.3416
20
-60.8941
11
93.3416
21
-60.7512
0
LINE
8
Black
10
93.3416
20
-60.7512
11
93.4844
21
-60.4655
0
LINE
8
Black
10
93.4844
20
-60.4655
11
93.7701
21
-60.3226
0
LINE
8
Black
10
93.7701
20
-60.3226
11
94.1987
21
-60.3226
0
LINE
8
Black
10
94.1987
20
-60.3226
11
94.4844
21
-60.4655
0
LINE
8
Black
10
95.6273
20
-63.4655
11
95.7701
21
-63.3226
0
LINE
8
Black
10
95.7701
20
-63.3226
11
96.0559
21
-62.8941
0
LINE
8
Black
10
96.0559
20
-62.8941
11
96.1987
21
-62.6084
0
LINE
8
Black
10
96.1987
20
-62.6084
11
96.3416
21
-62.1798
0
LINE
8
Black
10
96.3416
20
-62.1798
11
96.4844
21
-61.4655
0
LINE
8
Black
10
96.4844
20
-61.4655
11
96.4844
21
-60.8941
0
LINE
8
Black
10
96.4844
20
-60.8941
11
96.3416
21
-60.1798
0
LINE
8
Black
10
96.3416
20
-60.1798
11
96.1987
21
-59.7512
0
LINE
8
Black
10
96.1987
20
-59.7512
11
96.0559
21
-59.4655
0
LINE
8
Black
10
96.0559
20
-59.4655
11
95.7701
21
-59.0369
0
LINE
8
Black
10
95.7701
20
-59.0369
11
95.6273
21
-58.8941
  0
ENDSEC
  0
EOF
