M48
;DRILL file {KiCad 4.0.2-stable} date 04.08.2016 21:20:55
;FORMAT={-:-/ absolute / metric / decimal}
FMAT,2
METRIC,TZ
T1C0.400
T2C0.813
%
G90
G05
M71
T1
X36.767Y-36.639
X36.767Y-41.91
X39.116Y-35.56
X39.814Y-30.226
X41.719Y-37.655
X41.719Y-39.243
X41.783Y-40.767
X44.958Y-30.29
X46.545Y-32.575
X48.514Y-40.894
X50.419Y-42.481
X53.086Y-35.941
X54.229Y-35.814
X54.737Y-32.639
X55.181Y-38.036
X55.499Y-33.274
X55.562Y-34.925
X55.626Y-42.164
X55.677Y-37.389
X56.236Y-36.068
X57.912Y-35.242
X58.166Y-36.068
X58.864Y-33.591
X58.864Y-36.639
X59.563Y-39.052
X59.627Y-31.623
X60.325Y-41.402
X61.468Y-32.067
X61.468Y-40.64
X61.785Y-37.338
X61.785Y-38.862
X62.039Y-35.115
X62.039Y-36.386
X62.166Y-31.242
X62.166Y-33.655
X62.23Y-42.1
X67.246Y-33.591
X67.754Y-38.291
X68.453Y-35.115
X68.834Y-42.1
X69.406Y-35.496
T2
X46.736Y-40.64
X47.816Y-30.416
X54.102Y-41.974
T0
M30
