M48
;DRILL file {KiCad 4.0.4-stable} date Sun Apr  9 13:13:45 2017
;FORMAT={-:-/ absolute / inch / decimal}
FMAT,2
INCH,TZ
T1C0.016
T2C0.020
T3C0.026
T4C0.028
T5C0.031
%
G90
G05
M72
T1
X3.9902Y-3.2717
X4.Y-2.73
X4.0709Y-2.7313
X4.1043Y-2.6969
X4.1132Y-3.4459
X4.1407Y-2.7303
X4.1841Y-2.4262
X4.2126Y-2.7313
X4.2146Y-3.1998
X4.2215Y-2.0541
X4.2215Y-2.1063
X4.2215Y-2.1555
X4.247Y-3.2461
X4.252Y-3.0482
X4.2677Y-2.9862
X4.3091Y-3.0482
X4.3406Y-2.2057
X4.3425Y-2.1093
X4.3425Y-2.1575
X4.3445Y-2.0561
X4.35Y-3.01
X4.3642Y-3.4321
X4.3764Y-2.7409
X4.3772Y-2.8291
X4.4163Y-3.4862
X4.4335Y-2.7689
X4.4394Y-2.8008
X4.4734Y-2.1063
X4.5138Y-3.1998
X4.5305Y-3.4626
X4.5522Y-2.0541
X4.5827Y-2.1526
X4.6289Y-3.1329
X4.7106Y-2.0531
X4.7106Y-2.1535
X4.7819Y-3.0189
X4.8071Y-2.0896
X4.8642Y-2.8681
X4.8829Y-3.4429
X4.8894Y-2.7413
X4.9059Y-2.9811
X4.9063Y-2.9035
X4.9144Y-2.2795
X4.9213Y-2.1535
X4.9488Y-3.3829
X4.9528Y-2.2756
X4.9537Y-2.2215
X4.9543Y-2.7425
X4.9594Y-2.8417
X4.9606Y-2.8772
X4.9819Y-2.5417
X4.9878Y-2.9051
X4.9921Y-3.3445
X5.0161Y-2.8866
X5.0189Y-2.5795
X5.0354Y-3.3533
X5.0441Y-2.9047
X5.0807Y-2.9031
X5.1071Y-2.8142
X5.1358Y-2.9551
X5.137Y-2.9165
X5.1906Y-2.1764
X5.1929Y-2.3087
X5.1978Y-3.1959
X5.213Y-2.8685
X5.2161Y-2.3583
X5.2372Y-3.1467
X5.2457Y-2.335
X5.2579Y-2.8091
X5.2594Y-2.5531
X5.2717Y-2.5937
X5.2799Y-2.5157
X5.2846Y-2.2457
X5.3051Y-2.5972
X5.3063Y-2.6315
X5.3075Y-2.7004
X5.3311Y-2.7252
X5.3614Y-2.4067
X5.3768Y-2.1016
X5.3854Y-2.0646
X5.4035Y-2.3197
X5.4335Y-2.1287
X5.4449Y-3.3612
X5.4496Y-2.252
X5.4504Y-2.3807
X5.4535Y-2.1827
X5.4535Y-2.4169
X5.4583Y-2.7232
X5.4618Y-2.6232
X5.4646Y-3.4488
X5.5201Y-3.0087
X5.5209Y-3.0673
X5.5256Y-3.3632
X5.5783Y-2.7102
X5.6043Y-3.3573
X5.6091Y-2.598
X5.613Y-2.5406
X5.6713Y-2.5236
X5.6724Y-2.2811
X5.6791Y-3.4331
X5.7122Y-2.2811
X5.7421Y-3.3043
X5.7961Y-2.8075
X5.7988Y-3.1421
X5.8008Y-3.0594
X5.8307Y-2.802
X5.8307Y-3.1291
X5.8315Y-3.0776
X5.8406Y-3.561
X5.8551Y-3.2976
X5.8594Y-2.8386
X5.9689Y-3.0539
X5.9791Y-3.1618
T2
X4.4528Y-2.2961
X4.4528Y-2.3551
T5
X4.2254Y-3.5827
X4.2923Y-3.5827
X4.4764Y-3.0768
X4.5915Y-3.0797
X4.8976Y-3.5827
X4.9646Y-3.5827
X5.0866Y-2.0325
X5.0929Y-2.1386
X5.2799Y-2.1394
X5.4813Y-3.5827
X5.5482Y-3.5827
X6.0758Y-3.5827
X6.1427Y-3.5827
T3
X6.1024Y-3.1047G85X6.0866Y-3.1047
G05
X6.1043Y-3.2992G85X6.0886Y-3.2992
G05
T4
X6.1976Y-3.0937G85X6.178Y-3.0937
G05
X6.1976Y-3.3087G85X6.178Y-3.3087
G05
T0
M30
