G04 #@! TF.FileFunction,Soldermask,Top*
%FSLAX46Y46*%
G04 Gerber Fmt 4.6, Leading zero omitted, Abs format (unit mm)*
G04 Created by KiCad (PCBNEW 4.0.4-stable) date Sun Apr  9 13:13:39 2017*
%MOMM*%
%LPD*%
G01*
G04 APERTURE LIST*
%ADD10C,0.250000*%
%ADD11C,0.300000*%
%ADD12R,1.800000X0.800000*%
%ADD13R,1.650000X0.400000*%
%ADD14O,1.500000X1.100000*%
%ADD15O,1.700000X1.200000*%
%ADD16R,2.500000X1.430000*%
%ADD17R,0.800000X0.750000*%
%ADD18R,0.750000X0.800000*%
%ADD19R,2.200000X1.200000*%
%ADD20R,1.400000X1.600000*%
%ADD21R,1.400000X1.200000*%
%ADD22R,1.600000X0.700000*%
%ADD23R,2.500000X1.800000*%
%ADD24R,0.800000X0.800000*%
%ADD25C,1.200000*%
%ADD26R,0.800000X0.900000*%
%ADD27R,0.500000X0.900000*%
%ADD28R,0.900000X0.500000*%
%ADD29R,1.900000X1.200000*%
%ADD30R,0.900000X1.200000*%
%ADD31R,1.143000X0.508000*%
%ADD32R,0.900000X0.800000*%
%ADD33R,1.500000X0.280000*%
%ADD34R,0.280000X1.500000*%
%ADD35R,2.400000X2.000000*%
%ADD36C,1.000000*%
G04 APERTURE END LIST*
D10*
D11*
X158105952Y-68379762D02*
X155605952Y-68379762D01*
X157391667Y-67546429D01*
X155605952Y-66713095D01*
X158105952Y-66713095D01*
X157986905Y-64570238D02*
X158105952Y-64808333D01*
X158105952Y-65284524D01*
X157986905Y-65522619D01*
X157748810Y-65641667D01*
X156796429Y-65641667D01*
X156558333Y-65522619D01*
X156439286Y-65284524D01*
X156439286Y-64808333D01*
X156558333Y-64570238D01*
X156796429Y-64451190D01*
X157034524Y-64451190D01*
X157272619Y-65641667D01*
X155605952Y-63617857D02*
X158105952Y-63022619D01*
X156320238Y-62546429D01*
X158105952Y-62070238D01*
X155605952Y-61475000D01*
X156439286Y-58855952D02*
X158105952Y-58260714D01*
X156439286Y-57665476D01*
X157867857Y-56713095D02*
X157986905Y-56594047D01*
X158105952Y-56713095D01*
X157986905Y-56832143D01*
X157867857Y-56713095D01*
X158105952Y-56713095D01*
X156439286Y-54451190D02*
X158105952Y-54451190D01*
X155486905Y-55046428D02*
X157272619Y-55641667D01*
X157272619Y-54094047D01*
X158105952Y-52070238D02*
X156796429Y-52070238D01*
X156558333Y-52189286D01*
X156439286Y-52427381D01*
X156439286Y-52903572D01*
X156558333Y-53141667D01*
X157986905Y-52070238D02*
X158105952Y-52308334D01*
X158105952Y-52903572D01*
X157986905Y-53141667D01*
X157748810Y-53260715D01*
X157510714Y-53260715D01*
X157272619Y-53141667D01*
X157153571Y-52903572D01*
X157153571Y-52308334D01*
X157034524Y-52070238D01*
D12*
X112525000Y-85750000D03*
X112525000Y-87250000D03*
D13*
X154290000Y-82610000D03*
X154290000Y-81960000D03*
X154290000Y-81310000D03*
X154290000Y-80660000D03*
X154290000Y-80010000D03*
D14*
X154850000Y-83800000D03*
X154800000Y-78860000D03*
D15*
X157170000Y-84040000D03*
X157170000Y-78580000D03*
D16*
X157410000Y-82270000D03*
X157410000Y-80350000D03*
D17*
X140120000Y-72730000D03*
X141620000Y-72730000D03*
X112320000Y-61610000D03*
X110820000Y-61610000D03*
D18*
X131800000Y-54150000D03*
X131800000Y-52650000D03*
X109080000Y-64850000D03*
X109080000Y-63350000D03*
X108940000Y-68780000D03*
X108940000Y-67280000D03*
D17*
X102175000Y-58000000D03*
X103675000Y-58000000D03*
X146160000Y-89230000D03*
X147660000Y-89230000D03*
X125125000Y-79000000D03*
X123625000Y-79000000D03*
D18*
X150320000Y-85360000D03*
X150320000Y-86860000D03*
X113225000Y-82400000D03*
X113225000Y-80900000D03*
D17*
X119500000Y-57775000D03*
X118000000Y-57775000D03*
X107925000Y-78725000D03*
X106425000Y-78725000D03*
X106925000Y-74625000D03*
X108425000Y-74625000D03*
X107125000Y-63175000D03*
X105625000Y-63175000D03*
D18*
X109575000Y-87375000D03*
X109575000Y-85875000D03*
D17*
X109625000Y-78700000D03*
X111125000Y-78700000D03*
X107300000Y-61600000D03*
X108800000Y-61600000D03*
D19*
X150200000Y-54920000D03*
X150200000Y-70420000D03*
D20*
X140600000Y-55820000D03*
D21*
X140600000Y-70420000D03*
D22*
X140100000Y-69270000D03*
X140100000Y-67070000D03*
X140100000Y-68170000D03*
X140100000Y-65970000D03*
X140100000Y-64870000D03*
X140100000Y-63770000D03*
X140100000Y-60470000D03*
X140100000Y-61570000D03*
X140100000Y-62670000D03*
D23*
X102550000Y-86100000D03*
X106550000Y-86100000D03*
D24*
X145450000Y-82200000D03*
X143850000Y-82200000D03*
X123300000Y-80600000D03*
X121700000Y-80600000D03*
D25*
X113700000Y-78150000D03*
X116625000Y-78225000D03*
X129200000Y-51625000D03*
X129360000Y-54320000D03*
X134110000Y-54340000D03*
D26*
X103190000Y-76692000D03*
X105090000Y-76692000D03*
X104140000Y-74692000D03*
D27*
X102650000Y-89250000D03*
X104150000Y-89250000D03*
X149180000Y-78850000D03*
X150680000Y-78850000D03*
X149170000Y-80410000D03*
X150670000Y-80410000D03*
X149180000Y-81920000D03*
X150680000Y-81920000D03*
D28*
X101600000Y-70624000D03*
X101600000Y-72124000D03*
X106934000Y-70624000D03*
X106934000Y-72124000D03*
X103378000Y-70624000D03*
X103378000Y-72124000D03*
X143900000Y-83725000D03*
X143900000Y-85225000D03*
X105156000Y-70624000D03*
X105156000Y-72124000D03*
D27*
X103136000Y-78740000D03*
X104636000Y-78740000D03*
X120300000Y-80350000D03*
X118800000Y-80350000D03*
D28*
X121025000Y-54900000D03*
X121025000Y-56400000D03*
X121025000Y-53775000D03*
X121025000Y-52275000D03*
D27*
X135770000Y-57200000D03*
X137270000Y-57200000D03*
X131690000Y-57110000D03*
X133190000Y-57110000D03*
X135790000Y-55420000D03*
X137290000Y-55420000D03*
X142580000Y-52950000D03*
X144080000Y-52950000D03*
X139225000Y-52925000D03*
X140725000Y-52925000D03*
D29*
X126610000Y-89470000D03*
X123960000Y-89490000D03*
D25*
X124400000Y-91000000D03*
D30*
X122940000Y-91020000D03*
X127560000Y-91000000D03*
D25*
X126100000Y-91000000D03*
D29*
X141435000Y-89470000D03*
X138785000Y-89490000D03*
D25*
X139225000Y-91000000D03*
D30*
X137765000Y-91020000D03*
X142385000Y-91000000D03*
D25*
X140925000Y-91000000D03*
D29*
X109535000Y-89470000D03*
X106885000Y-89490000D03*
D25*
X107325000Y-91000000D03*
D30*
X105865000Y-91020000D03*
X110485000Y-91000000D03*
D25*
X109025000Y-91000000D03*
D29*
X156535000Y-89470000D03*
X153885000Y-89490000D03*
D25*
X154325000Y-91000000D03*
D30*
X152865000Y-91020000D03*
X157485000Y-91000000D03*
D25*
X156025000Y-91000000D03*
D31*
X111812500Y-56017500D03*
X111812500Y-54747500D03*
X111812500Y-53477500D03*
X111812500Y-52207500D03*
X118162500Y-52207500D03*
X118162500Y-53477500D03*
X118162500Y-54747500D03*
X118162500Y-56017500D03*
D32*
X147690000Y-87120000D03*
X147690000Y-85220000D03*
X145690000Y-86170000D03*
D33*
X121450000Y-63340000D03*
X121450000Y-63840000D03*
X121450000Y-64340000D03*
X121450000Y-64840000D03*
X121450000Y-65340000D03*
X121450000Y-65840000D03*
X121450000Y-66340000D03*
X121450000Y-66840000D03*
X121450000Y-67340000D03*
X121450000Y-67840000D03*
X121450000Y-68340000D03*
X121450000Y-68840000D03*
X121450000Y-69340000D03*
X121450000Y-69840000D03*
X121450000Y-70340000D03*
X121450000Y-70840000D03*
X121450000Y-71340000D03*
X121450000Y-71840000D03*
X121450000Y-72340000D03*
X121450000Y-72840000D03*
X121450000Y-73340000D03*
X121450000Y-73840000D03*
X121450000Y-74340000D03*
X121450000Y-74840000D03*
X121450000Y-75340000D03*
D34*
X123350000Y-77240000D03*
X123850000Y-77240000D03*
X124350000Y-77240000D03*
X124850000Y-77240000D03*
X125350000Y-77240000D03*
X125850000Y-77240000D03*
X126350000Y-77240000D03*
X126850000Y-77240000D03*
X127350000Y-77240000D03*
X127850000Y-77240000D03*
X128350000Y-77240000D03*
X128850000Y-77240000D03*
X129350000Y-77240000D03*
X129850000Y-77240000D03*
X130350000Y-77240000D03*
X130850000Y-77240000D03*
X131350000Y-77240000D03*
X131850000Y-77240000D03*
X132350000Y-77240000D03*
X132850000Y-77240000D03*
X133350000Y-77240000D03*
X133850000Y-77240000D03*
X134350000Y-77240000D03*
X134850000Y-77240000D03*
X135350000Y-77240000D03*
D33*
X137250000Y-75340000D03*
X137250000Y-74840000D03*
X137250000Y-74340000D03*
X137250000Y-73840000D03*
X137250000Y-73340000D03*
X137250000Y-72840000D03*
X137250000Y-72340000D03*
X137250000Y-71840000D03*
X137250000Y-71340000D03*
X137250000Y-70840000D03*
X137250000Y-70340000D03*
X137250000Y-69840000D03*
X137250000Y-69340000D03*
X137250000Y-68840000D03*
X137250000Y-68340000D03*
X137250000Y-67840000D03*
X137250000Y-67340000D03*
X137250000Y-66840000D03*
X137250000Y-66340000D03*
X137250000Y-65840000D03*
X137250000Y-65340000D03*
X137250000Y-64840000D03*
X137250000Y-64340000D03*
X137250000Y-63840000D03*
X137250000Y-63340000D03*
D34*
X135350000Y-61440000D03*
X134850000Y-61440000D03*
X134350000Y-61440000D03*
X133850000Y-61440000D03*
X133350000Y-61440000D03*
X132850000Y-61440000D03*
X132350000Y-61440000D03*
X131850000Y-61440000D03*
X131350000Y-61440000D03*
X130850000Y-61440000D03*
X130350000Y-61440000D03*
X129850000Y-61440000D03*
X129350000Y-61440000D03*
X128850000Y-61440000D03*
X128350000Y-61440000D03*
X127850000Y-61440000D03*
X127350000Y-61440000D03*
X126850000Y-61440000D03*
X126350000Y-61440000D03*
X125850000Y-61440000D03*
X125350000Y-61440000D03*
X124850000Y-61440000D03*
X124350000Y-61440000D03*
X123850000Y-61440000D03*
X123350000Y-61440000D03*
D26*
X111350000Y-80350000D03*
X109450000Y-80350000D03*
X110400000Y-82350000D03*
D31*
X102472500Y-56017500D03*
X102472500Y-54747500D03*
X102472500Y-53477500D03*
X102472500Y-52207500D03*
X108822500Y-52207500D03*
X108822500Y-53477500D03*
X108822500Y-54747500D03*
X108822500Y-56017500D03*
D35*
X112060000Y-63950000D03*
X112060000Y-67650000D03*
D36*
X113100000Y-58320000D03*
X113100000Y-59820000D03*
M02*
