G04 #@! TF.FileFunction,Copper,L1,Top,Signal*
%FSLAX46Y46*%
G04 Gerber Fmt 4.6, Leading zero omitted, Abs format (unit mm)*
G04 Created by KiCad (PCBNEW 4.0.4-stable) date Sun Apr  9 13:13:39 2017*
%MOMM*%
%LPD*%
G01*
G04 APERTURE LIST*
%ADD10C,0.250000*%
%ADD11C,0.300000*%
%ADD12R,1.800000X0.800000*%
%ADD13R,1.650000X0.400000*%
%ADD14O,1.500000X1.100000*%
%ADD15O,1.700000X1.200000*%
%ADD16R,2.500000X1.430000*%
%ADD17R,0.800000X0.750000*%
%ADD18R,0.750000X0.800000*%
%ADD19R,2.200000X1.200000*%
%ADD20R,1.400000X1.600000*%
%ADD21R,1.400000X1.200000*%
%ADD22R,1.600000X0.700000*%
%ADD23R,2.500000X1.800000*%
%ADD24R,0.800000X0.800000*%
%ADD25C,1.200000*%
%ADD26R,0.800000X0.900000*%
%ADD27R,0.500000X0.900000*%
%ADD28R,0.900000X0.500000*%
%ADD29R,1.900000X1.200000*%
%ADD30R,0.900000X1.200000*%
%ADD31R,1.143000X0.508000*%
%ADD32R,0.900000X0.800000*%
%ADD33R,1.500000X0.280000*%
%ADD34R,0.280000X1.500000*%
%ADD35R,2.400000X2.000000*%
%ADD36C,1.000000*%
%ADD37C,0.600000*%
G04 APERTURE END LIST*
D10*
D11*
X158030952Y-68379762D02*
X155530952Y-68379762D01*
X157316667Y-67546429D01*
X155530952Y-66713095D01*
X158030952Y-66713095D01*
X157911905Y-64570238D02*
X158030952Y-64808333D01*
X158030952Y-65284524D01*
X157911905Y-65522619D01*
X157673810Y-65641667D01*
X156721429Y-65641667D01*
X156483333Y-65522619D01*
X156364286Y-65284524D01*
X156364286Y-64808333D01*
X156483333Y-64570238D01*
X156721429Y-64451190D01*
X156959524Y-64451190D01*
X157197619Y-65641667D01*
X155530952Y-63617857D02*
X158030952Y-63022619D01*
X156245238Y-62546429D01*
X158030952Y-62070238D01*
X155530952Y-61475000D01*
X156364286Y-58855952D02*
X158030952Y-58260714D01*
X156364286Y-57665476D01*
X157792857Y-56713095D02*
X157911905Y-56594047D01*
X158030952Y-56713095D01*
X157911905Y-56832143D01*
X157792857Y-56713095D01*
X158030952Y-56713095D01*
X156364286Y-54451190D02*
X158030952Y-54451190D01*
X155411905Y-55046428D02*
X157197619Y-55641667D01*
X157197619Y-54094047D01*
X158030952Y-52070238D02*
X156721429Y-52070238D01*
X156483333Y-52189286D01*
X156364286Y-52427381D01*
X156364286Y-52903572D01*
X156483333Y-53141667D01*
X157911905Y-52070238D02*
X158030952Y-52308334D01*
X158030952Y-52903572D01*
X157911905Y-53141667D01*
X157673810Y-53260715D01*
X157435714Y-53260715D01*
X157197619Y-53141667D01*
X157078571Y-52903572D01*
X157078571Y-52308334D01*
X156959524Y-52070238D01*
D12*
X112525000Y-85750000D03*
X112525000Y-87250000D03*
D13*
X154290000Y-82610000D03*
X154290000Y-81960000D03*
X154290000Y-81310000D03*
X154290000Y-80660000D03*
X154290000Y-80010000D03*
D14*
X154850000Y-83800000D03*
X154800000Y-78860000D03*
D15*
X157170000Y-84040000D03*
X157170000Y-78580000D03*
D16*
X157410000Y-82270000D03*
X157410000Y-80350000D03*
D17*
X140120000Y-72730000D03*
X141620000Y-72730000D03*
X112320000Y-61610000D03*
X110820000Y-61610000D03*
D18*
X131800000Y-54150000D03*
X131800000Y-52650000D03*
X109080000Y-64850000D03*
X109080000Y-63350000D03*
X108940000Y-68780000D03*
X108940000Y-67280000D03*
D17*
X102175000Y-58000000D03*
X103675000Y-58000000D03*
X146160000Y-89230000D03*
X147660000Y-89230000D03*
X125125000Y-79000000D03*
X123625000Y-79000000D03*
D18*
X150320000Y-85360000D03*
X150320000Y-86860000D03*
X113225000Y-82400000D03*
X113225000Y-80900000D03*
D17*
X119500000Y-57775000D03*
X118000000Y-57775000D03*
X107925000Y-78725000D03*
X106425000Y-78725000D03*
X106925000Y-74625000D03*
X108425000Y-74625000D03*
X107125000Y-63175000D03*
X105625000Y-63175000D03*
D18*
X109575000Y-87375000D03*
X109575000Y-85875000D03*
D17*
X109625000Y-78700000D03*
X111125000Y-78700000D03*
X107300000Y-61600000D03*
X108800000Y-61600000D03*
D19*
X150200000Y-54920000D03*
X150200000Y-70420000D03*
D20*
X140600000Y-55820000D03*
D21*
X140600000Y-70420000D03*
D22*
X140100000Y-69270000D03*
X140100000Y-67070000D03*
X140100000Y-68170000D03*
X140100000Y-65970000D03*
X140100000Y-64870000D03*
X140100000Y-63770000D03*
X140100000Y-60470000D03*
X140100000Y-61570000D03*
X140100000Y-62670000D03*
D23*
X102550000Y-86100000D03*
X106550000Y-86100000D03*
D24*
X145450000Y-82200000D03*
X143850000Y-82200000D03*
X123300000Y-80600000D03*
X121700000Y-80600000D03*
D25*
X113700000Y-78150000D03*
X116625000Y-78225000D03*
X129200000Y-51625000D03*
X129360000Y-54320000D03*
X134110000Y-54340000D03*
D26*
X103190000Y-76692000D03*
X105090000Y-76692000D03*
X104140000Y-74692000D03*
D27*
X102650000Y-89250000D03*
X104150000Y-89250000D03*
X149180000Y-78850000D03*
X150680000Y-78850000D03*
X149170000Y-80410000D03*
X150670000Y-80410000D03*
X149180000Y-81920000D03*
X150680000Y-81920000D03*
D28*
X101600000Y-70624000D03*
X101600000Y-72124000D03*
X106934000Y-70624000D03*
X106934000Y-72124000D03*
X103378000Y-70624000D03*
X103378000Y-72124000D03*
X143900000Y-83725000D03*
X143900000Y-85225000D03*
X105156000Y-70624000D03*
X105156000Y-72124000D03*
D27*
X103136000Y-78740000D03*
X104636000Y-78740000D03*
X120300000Y-80350000D03*
X118800000Y-80350000D03*
D28*
X121025000Y-54900000D03*
X121025000Y-56400000D03*
X121025000Y-53775000D03*
X121025000Y-52275000D03*
D27*
X135770000Y-57200000D03*
X137270000Y-57200000D03*
X131690000Y-57110000D03*
X133190000Y-57110000D03*
X135790000Y-55420000D03*
X137290000Y-55420000D03*
X142580000Y-52950000D03*
X144080000Y-52950000D03*
X139225000Y-52925000D03*
X140725000Y-52925000D03*
D29*
X126610000Y-89470000D03*
X123960000Y-89490000D03*
D25*
X124400000Y-91000000D03*
D30*
X122940000Y-91020000D03*
X127560000Y-91000000D03*
D25*
X126100000Y-91000000D03*
D29*
X141435000Y-89470000D03*
X138785000Y-89490000D03*
D25*
X139225000Y-91000000D03*
D30*
X137765000Y-91020000D03*
X142385000Y-91000000D03*
D25*
X140925000Y-91000000D03*
D29*
X109535000Y-89470000D03*
X106885000Y-89490000D03*
D25*
X107325000Y-91000000D03*
D30*
X105865000Y-91020000D03*
X110485000Y-91000000D03*
D25*
X109025000Y-91000000D03*
D29*
X156535000Y-89470000D03*
X153885000Y-89490000D03*
D25*
X154325000Y-91000000D03*
D30*
X152865000Y-91020000D03*
X157485000Y-91000000D03*
D25*
X156025000Y-91000000D03*
D31*
X111812500Y-56017500D03*
X111812500Y-54747500D03*
X111812500Y-53477500D03*
X111812500Y-52207500D03*
X118162500Y-52207500D03*
X118162500Y-53477500D03*
X118162500Y-54747500D03*
X118162500Y-56017500D03*
D32*
X147690000Y-87120000D03*
X147690000Y-85220000D03*
X145690000Y-86170000D03*
D33*
X121450000Y-63340000D03*
X121450000Y-63840000D03*
X121450000Y-64340000D03*
X121450000Y-64840000D03*
X121450000Y-65340000D03*
X121450000Y-65840000D03*
X121450000Y-66340000D03*
X121450000Y-66840000D03*
X121450000Y-67340000D03*
X121450000Y-67840000D03*
X121450000Y-68340000D03*
X121450000Y-68840000D03*
X121450000Y-69340000D03*
X121450000Y-69840000D03*
X121450000Y-70340000D03*
X121450000Y-70840000D03*
X121450000Y-71340000D03*
X121450000Y-71840000D03*
X121450000Y-72340000D03*
X121450000Y-72840000D03*
X121450000Y-73340000D03*
X121450000Y-73840000D03*
X121450000Y-74340000D03*
X121450000Y-74840000D03*
X121450000Y-75340000D03*
D34*
X123350000Y-77240000D03*
X123850000Y-77240000D03*
X124350000Y-77240000D03*
X124850000Y-77240000D03*
X125350000Y-77240000D03*
X125850000Y-77240000D03*
X126350000Y-77240000D03*
X126850000Y-77240000D03*
X127350000Y-77240000D03*
X127850000Y-77240000D03*
X128350000Y-77240000D03*
X128850000Y-77240000D03*
X129350000Y-77240000D03*
X129850000Y-77240000D03*
X130350000Y-77240000D03*
X130850000Y-77240000D03*
X131350000Y-77240000D03*
X131850000Y-77240000D03*
X132350000Y-77240000D03*
X132850000Y-77240000D03*
X133350000Y-77240000D03*
X133850000Y-77240000D03*
X134350000Y-77240000D03*
X134850000Y-77240000D03*
X135350000Y-77240000D03*
D33*
X137250000Y-75340000D03*
X137250000Y-74840000D03*
X137250000Y-74340000D03*
X137250000Y-73840000D03*
X137250000Y-73340000D03*
X137250000Y-72840000D03*
X137250000Y-72340000D03*
X137250000Y-71840000D03*
X137250000Y-71340000D03*
X137250000Y-70840000D03*
X137250000Y-70340000D03*
X137250000Y-69840000D03*
X137250000Y-69340000D03*
X137250000Y-68840000D03*
X137250000Y-68340000D03*
X137250000Y-67840000D03*
X137250000Y-67340000D03*
X137250000Y-66840000D03*
X137250000Y-66340000D03*
X137250000Y-65840000D03*
X137250000Y-65340000D03*
X137250000Y-64840000D03*
X137250000Y-64340000D03*
X137250000Y-63840000D03*
X137250000Y-63340000D03*
D34*
X135350000Y-61440000D03*
X134850000Y-61440000D03*
X134350000Y-61440000D03*
X133850000Y-61440000D03*
X133350000Y-61440000D03*
X132850000Y-61440000D03*
X132350000Y-61440000D03*
X131850000Y-61440000D03*
X131350000Y-61440000D03*
X130850000Y-61440000D03*
X130350000Y-61440000D03*
X129850000Y-61440000D03*
X129350000Y-61440000D03*
X128850000Y-61440000D03*
X128350000Y-61440000D03*
X127850000Y-61440000D03*
X127350000Y-61440000D03*
X126850000Y-61440000D03*
X126350000Y-61440000D03*
X125850000Y-61440000D03*
X125350000Y-61440000D03*
X124850000Y-61440000D03*
X124350000Y-61440000D03*
X123850000Y-61440000D03*
X123350000Y-61440000D03*
D26*
X111350000Y-80350000D03*
X109450000Y-80350000D03*
X110400000Y-82350000D03*
D31*
X102472500Y-56017500D03*
X102472500Y-54747500D03*
X102472500Y-53477500D03*
X102472500Y-52207500D03*
X108822500Y-52207500D03*
X108822500Y-53477500D03*
X108822500Y-54747500D03*
X108822500Y-56017500D03*
D35*
X112060000Y-63950000D03*
X112060000Y-67650000D03*
D36*
X113100000Y-58320000D03*
X113100000Y-59820000D03*
D37*
X104475000Y-87525000D03*
X110850000Y-87175000D03*
X144250000Y-87200000D03*
X142350000Y-85275000D03*
X106275000Y-61625000D03*
X110250000Y-56025000D03*
X110490000Y-76454000D03*
X111160000Y-69620000D03*
X136790000Y-52440000D03*
X138010000Y-54070000D03*
X142570000Y-64530000D03*
X134110000Y-63900000D03*
X121460000Y-76680000D03*
X123550000Y-72850000D03*
X140230000Y-77910000D03*
X140210000Y-76420000D03*
X131840000Y-55280000D03*
X133590000Y-64850000D03*
X116400000Y-54675000D03*
X119650000Y-54700000D03*
X107225000Y-54750000D03*
X110300000Y-54800000D03*
X107875000Y-82450000D03*
X117575000Y-79575000D03*
X136570000Y-53380000D03*
X138520000Y-61390000D03*
X130450000Y-75060000D03*
X124610000Y-75720000D03*
X126540000Y-64560000D03*
X127480000Y-65520000D03*
X124190000Y-69630000D03*
X125840000Y-69660000D03*
X148720000Y-83760000D03*
X145850000Y-83930000D03*
X138640000Y-69170000D03*
X135410000Y-69220000D03*
X133550000Y-71350000D03*
X132410000Y-72860000D03*
X126000000Y-73080000D03*
X124620000Y-73750000D03*
X145090000Y-57940000D03*
X142470000Y-65990000D03*
X144080000Y-57940000D03*
X144050000Y-64100000D03*
X141690000Y-68840000D03*
X134810000Y-68590000D03*
X132490000Y-59900000D03*
X131900000Y-58640000D03*
X138420000Y-57200000D03*
X138440000Y-60470000D03*
X134230000Y-57040000D03*
X133240000Y-59310000D03*
X138520000Y-55440000D03*
X137250000Y-58920000D03*
X104250000Y-68500000D03*
X101350000Y-83100000D03*
X151870000Y-80310000D03*
X151610000Y-77570000D03*
X148830000Y-72100000D03*
X138730000Y-66630000D03*
X107000000Y-69375000D03*
X125970000Y-72180000D03*
X129720000Y-71480000D03*
X112760000Y-71140000D03*
X112610000Y-70330000D03*
X130480000Y-74080000D03*
X111180000Y-71860000D03*
X133900000Y-65880000D03*
X136180000Y-61130000D03*
X134750000Y-65970000D03*
X148100000Y-71170000D03*
X148120000Y-78170000D03*
X148100000Y-79480000D03*
X147290000Y-79810000D03*
X147340000Y-77710000D03*
X147220000Y-71310000D03*
X134780000Y-66840000D03*
X107050000Y-81275000D03*
X114650000Y-81275000D03*
X125825000Y-56425000D03*
X125800000Y-57800000D03*
X122100000Y-53075000D03*
X113625000Y-53500000D03*
X110300000Y-53575000D03*
X107225000Y-53500000D03*
X125000000Y-54700000D03*
X124825000Y-57900000D03*
X119650000Y-52150000D03*
X115625000Y-52175000D03*
X110350000Y-52225000D03*
X107225000Y-52175000D03*
X126800000Y-84950000D03*
X125700000Y-85925000D03*
X138300000Y-85375000D03*
X138800000Y-87600000D03*
X112175000Y-88550000D03*
X115075000Y-87950000D03*
X124025000Y-87450000D03*
X127900000Y-85175000D03*
X132025000Y-81175000D03*
X133025000Y-79925000D03*
X140350000Y-85425000D03*
X148350000Y-90450000D03*
X129050000Y-73740000D03*
X128120000Y-73780000D03*
X127410000Y-73320000D03*
X126690000Y-73790000D03*
X101600000Y-69342000D03*
X103400000Y-69375000D03*
X105175000Y-69350000D03*
X108400000Y-75850000D03*
X108000000Y-77425000D03*
X109450000Y-77425000D03*
D10*
X112525000Y-87250000D02*
X110925000Y-87250000D01*
X104150000Y-87850000D02*
X104150000Y-89250000D01*
X104475000Y-87525000D02*
X104150000Y-87850000D01*
X110925000Y-87250000D02*
X110850000Y-87175000D01*
X157410000Y-82270000D02*
X157410000Y-80350000D01*
X108822500Y-54747500D02*
X108822500Y-53477500D01*
X156535000Y-89470000D02*
X156535000Y-84675000D01*
X156535000Y-84675000D02*
X157170000Y-84040000D01*
X143900000Y-85225000D02*
X142400000Y-85225000D01*
X144162500Y-87287500D02*
X144162500Y-87912500D01*
X144250000Y-87200000D02*
X144162500Y-87287500D01*
X142400000Y-85225000D02*
X142350000Y-85275000D01*
X109535000Y-89470000D02*
X112855000Y-89470000D01*
X114050000Y-85750000D02*
X112525000Y-85750000D01*
X114350000Y-86050000D02*
X114050000Y-85750000D01*
X114350000Y-87975000D02*
X114350000Y-86050000D01*
X112855000Y-89470000D02*
X114350000Y-87975000D01*
X141435000Y-89295000D02*
X144170000Y-89295000D01*
X144170000Y-89295000D02*
X144700000Y-89825000D01*
X126625000Y-89500000D02*
X127535000Y-87790000D01*
X147660000Y-89990000D02*
X147660000Y-89230000D01*
X146975000Y-90675000D02*
X147660000Y-89990000D01*
X145550000Y-90675000D02*
X146975000Y-90675000D01*
X144700000Y-89825000D02*
X145550000Y-90675000D01*
X144700000Y-88450000D02*
X144700000Y-89825000D01*
X142975000Y-86725000D02*
X144162500Y-87912500D01*
X144162500Y-87912500D02*
X144700000Y-88450000D01*
X128600000Y-86725000D02*
X142975000Y-86725000D01*
X127535000Y-87790000D02*
X128600000Y-86725000D01*
X118000000Y-57775000D02*
X118000000Y-56180000D01*
X118000000Y-56180000D02*
X118162500Y-56017500D01*
X103675000Y-58000000D02*
X103675000Y-57125000D01*
X104782500Y-56017500D02*
X108822500Y-56017500D01*
X103675000Y-57125000D02*
X104782500Y-56017500D01*
X109080000Y-63350000D02*
X107300000Y-63350000D01*
X107300000Y-63350000D02*
X107300000Y-61600000D01*
X107300000Y-61600000D02*
X107275000Y-61625000D01*
X107275000Y-61625000D02*
X106275000Y-61625000D01*
X110250000Y-56025000D02*
X110242500Y-56017500D01*
X110242500Y-56017500D02*
X108822500Y-56017500D01*
X118162500Y-56017500D02*
X118162500Y-54747500D01*
X118162500Y-54747500D02*
X118162500Y-53477500D01*
X118162500Y-53477500D02*
X118162500Y-52207500D01*
X118162500Y-52207500D02*
X116707500Y-52207500D01*
X109755000Y-51275000D02*
X108822500Y-52207500D01*
X115775000Y-51275000D02*
X109755000Y-51275000D01*
X116707500Y-52207500D02*
X115775000Y-51275000D01*
X108822500Y-52207500D02*
X108822500Y-54747500D01*
X108822500Y-54747500D02*
X108822500Y-56017500D01*
X123625000Y-79000000D02*
X123625000Y-78825000D01*
X123625000Y-78825000D02*
X123850000Y-78600000D01*
X123850000Y-78600000D02*
X123850000Y-77240000D01*
X106925000Y-74625000D02*
X106925000Y-76400000D01*
X106925000Y-76400000D02*
X106633000Y-76692000D01*
X131800000Y-52650000D02*
X130225000Y-52650000D01*
X130225000Y-52650000D02*
X129200000Y-51625000D01*
X109575000Y-85875000D02*
X109575000Y-85750000D01*
X109575000Y-85750000D02*
X110275000Y-85050000D01*
X110275000Y-85050000D02*
X110425000Y-85050000D01*
X112525000Y-85750000D02*
X111125000Y-85750000D01*
X106425000Y-79625000D02*
X106425000Y-78725000D01*
X108875000Y-82075000D02*
X106425000Y-79625000D01*
X108875000Y-83500000D02*
X108875000Y-82075000D01*
X111125000Y-85750000D02*
X110425000Y-85050000D01*
X110425000Y-85050000D02*
X108875000Y-83500000D01*
X106425000Y-78725000D02*
X106425000Y-78027000D01*
X106425000Y-78027000D02*
X105090000Y-76692000D01*
X113225000Y-80900000D02*
X111900000Y-80900000D01*
X111900000Y-80900000D02*
X111350000Y-80350000D01*
X111350000Y-80350000D02*
X111350000Y-78925000D01*
X111350000Y-78925000D02*
X110490000Y-78065000D01*
X110490000Y-78065000D02*
X110490000Y-76454000D01*
X105090000Y-76692000D02*
X106633000Y-76692000D01*
X106633000Y-76692000D02*
X109998000Y-76692000D01*
X110236000Y-76454000D02*
X110490000Y-76454000D01*
X109998000Y-76692000D02*
X110236000Y-76454000D01*
X108940000Y-67280000D02*
X108940000Y-66260000D01*
X108940000Y-66260000D02*
X108640000Y-65960000D01*
X110820000Y-61610000D02*
X109080000Y-63350000D01*
X109080000Y-63350000D02*
X108300000Y-63350000D01*
X108300000Y-63350000D02*
X108040000Y-63610000D01*
X108040000Y-63610000D02*
X108040000Y-65360000D01*
X108040000Y-65360000D02*
X108640000Y-65960000D01*
X108640000Y-65960000D02*
X109380000Y-65960000D01*
X109380000Y-65960000D02*
X110430000Y-67010000D01*
X110430000Y-67010000D02*
X110430000Y-68890000D01*
X110430000Y-68890000D02*
X111160000Y-69620000D01*
X141620000Y-72730000D02*
X141620000Y-71440000D01*
X141620000Y-71440000D02*
X140600000Y-70420000D01*
X140600000Y-55820000D02*
X140190000Y-55820000D01*
X140190000Y-55820000D02*
X138440000Y-54070000D01*
X136580000Y-52650000D02*
X131800000Y-52650000D01*
X136790000Y-52440000D02*
X136580000Y-52650000D01*
X138440000Y-54070000D02*
X138010000Y-54070000D01*
X140100000Y-65970000D02*
X139170000Y-65970000D01*
X138410000Y-63840000D02*
X137250000Y-63840000D01*
X138710000Y-64140000D02*
X138410000Y-63840000D01*
X138710000Y-65510000D02*
X138710000Y-64140000D01*
X139170000Y-65970000D02*
X138710000Y-65510000D01*
X147660000Y-89230000D02*
X147660000Y-87150000D01*
X147660000Y-87150000D02*
X147690000Y-87120000D01*
X147690000Y-87120000D02*
X150060000Y-87120000D01*
X150060000Y-87120000D02*
X150320000Y-86860000D01*
X150320000Y-86860000D02*
X151790000Y-86860000D01*
X151790000Y-86860000D02*
X154850000Y-83800000D01*
X154290000Y-80010000D02*
X157070000Y-80010000D01*
X157070000Y-80010000D02*
X157410000Y-80350000D01*
X154800000Y-78860000D02*
X156890000Y-78860000D01*
X156890000Y-78860000D02*
X157170000Y-78580000D01*
X154290000Y-80010000D02*
X154290000Y-79370000D01*
X154290000Y-79370000D02*
X154800000Y-78860000D01*
X157170000Y-78580000D02*
X157170000Y-73510000D01*
X154080000Y-70420000D02*
X150200000Y-70420000D01*
X157170000Y-73510000D02*
X154080000Y-70420000D01*
X154850000Y-83800000D02*
X156930000Y-83800000D01*
X156930000Y-83800000D02*
X157410000Y-83320000D01*
X157410000Y-83320000D02*
X157410000Y-80350000D01*
X157410000Y-80350000D02*
X157170000Y-80110000D01*
X157170000Y-80110000D02*
X157170000Y-78580000D01*
X157170000Y-78580000D02*
X156890000Y-78860000D01*
X124530000Y-68820000D02*
X124530000Y-67530000D01*
X124530000Y-67530000D02*
X127630000Y-64430000D01*
X134110000Y-63900000D02*
X127630000Y-64430000D01*
X127630000Y-64430000D02*
X127400000Y-64430000D01*
X127400000Y-64430000D02*
X126350000Y-63380000D01*
X126350000Y-63380000D02*
X126350000Y-61440000D01*
X137250000Y-63840000D02*
X135120000Y-63840000D01*
X135120000Y-63840000D02*
X134110000Y-63900000D01*
X142570000Y-64530000D02*
X142570000Y-64540000D01*
X140600000Y-70420000D02*
X150200000Y-70420000D01*
X143500000Y-63460000D02*
X145470000Y-63460000D01*
X145470000Y-63460000D02*
X148700000Y-66690000D01*
X148700000Y-66690000D02*
X148700000Y-68920000D01*
X148700000Y-68920000D02*
X150200000Y-70420000D01*
X143495000Y-58715000D02*
X146405000Y-58715000D01*
X146405000Y-58715000D02*
X150200000Y-54920000D01*
X140100000Y-65970000D02*
X140960000Y-65970000D01*
X143500000Y-58720000D02*
X143495000Y-58715000D01*
X143495000Y-58715000D02*
X140600000Y-55820000D01*
X143500000Y-63430000D02*
X143500000Y-63460000D01*
X143500000Y-63460000D02*
X143500000Y-58720000D01*
X140960000Y-65970000D02*
X143500000Y-63430000D01*
X123850000Y-77240000D02*
X123850000Y-75850000D01*
X121820000Y-76680000D02*
X121460000Y-76680000D01*
X122750000Y-75750000D02*
X121820000Y-76680000D01*
X123750000Y-75750000D02*
X122750000Y-75750000D01*
X123850000Y-75850000D02*
X123750000Y-75750000D01*
X123550000Y-72850000D02*
X123610000Y-72850000D01*
X123550000Y-67840000D02*
X121450000Y-67840000D01*
X125000000Y-69290000D02*
X124530000Y-68820000D01*
X124530000Y-68820000D02*
X123550000Y-67840000D01*
X125000000Y-71460000D02*
X125000000Y-69290000D01*
X123610000Y-72850000D02*
X125000000Y-71460000D01*
X123540000Y-72840000D02*
X121450000Y-72840000D01*
X123550000Y-72850000D02*
X123540000Y-72840000D01*
X134850000Y-77240000D02*
X134850000Y-78810000D01*
X136670000Y-77890000D02*
X140210000Y-77890000D01*
X135520000Y-79040000D02*
X136670000Y-77890000D01*
X135080000Y-79040000D02*
X135520000Y-79040000D01*
X134850000Y-78810000D02*
X135080000Y-79040000D01*
X140210000Y-77890000D02*
X140230000Y-77910000D01*
X140210000Y-76420000D02*
X140120000Y-76330000D01*
X140120000Y-76330000D02*
X140120000Y-72730000D01*
X112060000Y-63950000D02*
X112060000Y-61870000D01*
X112060000Y-61870000D02*
X112320000Y-61610000D01*
X121450000Y-68840000D02*
X116010000Y-68840000D01*
X113910000Y-65800000D02*
X112060000Y-63950000D01*
X113910000Y-66740000D02*
X113910000Y-65800000D01*
X116010000Y-68840000D02*
X113910000Y-66740000D01*
X131800000Y-55240000D02*
X131800000Y-54150000D01*
X131840000Y-55280000D02*
X131800000Y-55240000D01*
X137250000Y-64340000D02*
X134803602Y-64340000D01*
X134293602Y-64850000D02*
X133590000Y-64850000D01*
X134803602Y-64340000D02*
X134293602Y-64850000D01*
X112060000Y-67650000D02*
X111880000Y-67650000D01*
X111880000Y-67650000D02*
X109080000Y-64850000D01*
X121450000Y-69340000D02*
X115370000Y-69340000D01*
X113680000Y-67650000D02*
X112060000Y-67650000D01*
X115370000Y-69340000D02*
X113680000Y-67650000D01*
X121450000Y-69840000D02*
X113340000Y-69840000D01*
X110635000Y-70475000D02*
X108940000Y-68780000D01*
X111550000Y-70475000D02*
X110635000Y-70475000D01*
X112325000Y-69700000D02*
X111550000Y-70475000D01*
X113200000Y-69700000D02*
X112325000Y-69700000D01*
X113340000Y-69840000D02*
X113200000Y-69700000D01*
X109250000Y-68780000D02*
X108940000Y-68780000D01*
X145450000Y-82200000D02*
X145450000Y-81575000D01*
X145450000Y-81575000D02*
X146217500Y-80807500D01*
X119500000Y-57775000D02*
X119500000Y-57725000D01*
X119500000Y-57725000D02*
X120115000Y-57110000D01*
X124200000Y-57110000D02*
X120115000Y-57110000D01*
X120115000Y-57110000D02*
X119935000Y-57110000D01*
X119650000Y-56825000D02*
X119650000Y-54700000D01*
X119935000Y-57110000D02*
X119650000Y-56825000D01*
X111812500Y-54747500D02*
X116352500Y-54747500D01*
X116352500Y-54747500D02*
X116400000Y-54700000D01*
X116400000Y-54700000D02*
X116400000Y-54675000D01*
X119850000Y-54900000D02*
X121025000Y-54900000D01*
X119650000Y-54700000D02*
X119850000Y-54900000D01*
X121025000Y-54900000D02*
X121025000Y-53775000D01*
X102175000Y-58000000D02*
X102175000Y-56315000D01*
X102175000Y-56315000D02*
X102472500Y-56017500D01*
X102472500Y-56017500D02*
X102472500Y-54747500D01*
X102472500Y-54747500D02*
X102475000Y-54750000D01*
X102475000Y-54750000D02*
X107225000Y-54750000D01*
X110300000Y-54800000D02*
X110352500Y-54747500D01*
X110352500Y-54747500D02*
X111812500Y-54747500D01*
X111812500Y-54747500D02*
X111812500Y-56017500D01*
X124363748Y-78950251D02*
X125075251Y-78950251D01*
X125075251Y-78950251D02*
X125125000Y-79000000D01*
X109575000Y-87375000D02*
X107825000Y-87375000D01*
X107825000Y-87375000D02*
X106550000Y-86100000D01*
X123300000Y-80375000D02*
X123300000Y-80050000D01*
X106550000Y-83775000D02*
X106550000Y-86100000D01*
X107875000Y-82450000D02*
X106550000Y-83775000D01*
X118000000Y-79150000D02*
X117575000Y-79575000D01*
X122175000Y-79150000D02*
X118000000Y-79150000D01*
X123300000Y-80050000D02*
X122175000Y-79150000D01*
X123300000Y-80375000D02*
X123375000Y-80375000D01*
X123375000Y-80375000D02*
X124375000Y-80350000D01*
X124375000Y-80350000D02*
X124363748Y-78950251D01*
X124363748Y-78950251D02*
X124350000Y-77240000D01*
X138700000Y-63340000D02*
X138700000Y-61570000D01*
X136915000Y-53725000D02*
X137295000Y-53725000D01*
X136570000Y-53380000D02*
X136915000Y-53725000D01*
X138700000Y-61570000D02*
X138520000Y-61390000D01*
X150320000Y-85360000D02*
X147830000Y-85360000D01*
X147830000Y-85360000D02*
X147770000Y-85300000D01*
X147770000Y-85300000D02*
X147770000Y-82360000D01*
X147770000Y-82360000D02*
X146217500Y-80807500D01*
X146217500Y-80807500D02*
X146210000Y-80800000D01*
X146210000Y-80800000D02*
X146210000Y-78560000D01*
X146210000Y-78560000D02*
X146685000Y-78085000D01*
X139225000Y-52925000D02*
X139225000Y-52195000D01*
X141440000Y-51810000D02*
X142580000Y-52950000D01*
X139610000Y-51810000D02*
X141440000Y-51810000D01*
X139225000Y-52195000D02*
X139610000Y-51810000D01*
X135790000Y-55420000D02*
X135790000Y-55230000D01*
X135790000Y-55230000D02*
X137295000Y-53725000D01*
X137295000Y-53725000D02*
X138095000Y-52925000D01*
X138095000Y-52925000D02*
X139225000Y-52925000D01*
X123350000Y-61440000D02*
X123350000Y-57840000D01*
X124080000Y-57110000D02*
X124200000Y-57110000D01*
X124200000Y-57110000D02*
X131690000Y-57110000D01*
X123350000Y-57840000D02*
X124080000Y-57110000D01*
X135350000Y-77240000D02*
X145840000Y-77240000D01*
X147450000Y-78850000D02*
X149180000Y-78850000D01*
X145840000Y-77240000D02*
X146685000Y-78085000D01*
X146685000Y-78085000D02*
X147450000Y-78850000D01*
X124350000Y-75650000D02*
X124540000Y-75650000D01*
X135350000Y-75810000D02*
X135350000Y-77240000D01*
X134880000Y-75340000D02*
X135350000Y-75810000D01*
X130730000Y-75340000D02*
X134880000Y-75340000D01*
X130450000Y-75060000D02*
X130730000Y-75340000D01*
X124540000Y-75650000D02*
X124610000Y-75720000D01*
X125840000Y-69660000D02*
X125840000Y-67160000D01*
X123350000Y-62800000D02*
X123350000Y-61440000D01*
X123540000Y-62990000D02*
X123350000Y-62800000D01*
X124970000Y-62990000D02*
X123540000Y-62990000D01*
X126540000Y-64560000D02*
X124970000Y-62990000D01*
X125840000Y-67160000D02*
X127480000Y-65520000D01*
X137250000Y-63340000D02*
X138700000Y-63340000D01*
X139130000Y-63770000D02*
X140100000Y-63770000D01*
X138700000Y-63340000D02*
X139130000Y-63770000D01*
X135770000Y-57200000D02*
X135600000Y-57200000D01*
X135600000Y-57200000D02*
X134650000Y-56250000D01*
X134650000Y-56250000D02*
X132550000Y-56250000D01*
X132550000Y-56250000D02*
X131690000Y-57110000D01*
X135770000Y-57200000D02*
X135770000Y-55440000D01*
X135770000Y-55440000D02*
X135790000Y-55420000D01*
X125250000Y-72150000D02*
X125250000Y-74750000D01*
X124350000Y-75650000D02*
X124350000Y-77240000D01*
X125250000Y-74750000D02*
X124350000Y-75650000D01*
X121450000Y-72340000D02*
X123100000Y-72340000D01*
X124190000Y-71250000D02*
X124190000Y-69630000D01*
X123100000Y-72340000D02*
X124190000Y-71250000D01*
X121450000Y-73340000D02*
X123060000Y-73340000D01*
X123060000Y-73340000D02*
X123560000Y-73840000D01*
X121450000Y-73840000D02*
X123560000Y-73840000D01*
X122900000Y-68340000D02*
X124190000Y-69630000D01*
X122900000Y-68340000D02*
X121450000Y-68340000D01*
X125840000Y-71310000D02*
X125840000Y-69660000D01*
X125250000Y-71900000D02*
X125840000Y-71310000D01*
X125250000Y-72150000D02*
X125250000Y-71900000D01*
X123560000Y-73840000D02*
X125250000Y-72150000D01*
X113225000Y-82400000D02*
X123125000Y-82400000D01*
X126895000Y-86170000D02*
X145690000Y-86170000D01*
X123125000Y-82400000D02*
X126895000Y-86170000D01*
X110400000Y-82350000D02*
X113175000Y-82350000D01*
X113175000Y-82350000D02*
X113225000Y-82400000D01*
X146160000Y-89230000D02*
X146160000Y-89210000D01*
X146160000Y-89210000D02*
X145690000Y-88740000D01*
X145690000Y-88740000D02*
X145690000Y-86170000D01*
X154290000Y-82610000D02*
X152700000Y-82610000D01*
X152700000Y-82610000D02*
X151550000Y-83760000D01*
X151550000Y-83760000D02*
X148720000Y-83760000D01*
X145850000Y-83930000D02*
X145690000Y-84090000D01*
X145690000Y-84090000D02*
X145690000Y-86170000D01*
X105625000Y-63175000D02*
X105625000Y-60775000D01*
X110505000Y-58320000D02*
X113100000Y-58320000D01*
X108425000Y-60400000D02*
X110505000Y-58320000D01*
X106000000Y-60400000D02*
X108425000Y-60400000D01*
X105625000Y-60775000D02*
X106000000Y-60400000D01*
X113100000Y-58320000D02*
X114770000Y-58320000D01*
X117340000Y-66840000D02*
X121450000Y-66840000D01*
X116860000Y-66360000D02*
X117340000Y-66840000D01*
X116860000Y-60410000D02*
X116860000Y-66360000D01*
X114770000Y-58320000D02*
X116860000Y-60410000D01*
X108800000Y-61600000D02*
X108800000Y-61000000D01*
X109980000Y-59820000D02*
X113100000Y-59820000D01*
X108800000Y-61000000D02*
X109980000Y-59820000D01*
X121450000Y-67340000D02*
X117080000Y-67340000D01*
X115320000Y-59820000D02*
X113100000Y-59820000D01*
X116330000Y-60830000D02*
X115320000Y-59820000D01*
X116330000Y-66590000D02*
X116330000Y-60830000D01*
X117080000Y-67340000D02*
X116330000Y-66590000D01*
X121450000Y-74840000D02*
X123430000Y-74840000D01*
X138740000Y-69270000D02*
X140100000Y-69270000D01*
X138640000Y-69170000D02*
X138740000Y-69270000D01*
X135390000Y-69240000D02*
X135410000Y-69220000D01*
X135390000Y-69510000D02*
X135390000Y-69240000D01*
X133550000Y-71350000D02*
X135390000Y-69510000D01*
X132210002Y-72660002D02*
X132410000Y-72860000D01*
X126419998Y-72660002D02*
X132210002Y-72660002D01*
X126000000Y-73080000D02*
X126419998Y-72660002D01*
X124520000Y-73750000D02*
X124620000Y-73750000D01*
X123430000Y-74840000D02*
X124520000Y-73750000D01*
X140100000Y-67070000D02*
X141390000Y-67070000D01*
X144080000Y-56930000D02*
X144080000Y-52950000D01*
X145090000Y-57940000D02*
X144080000Y-56930000D01*
X141390000Y-67070000D02*
X142470000Y-65990000D01*
X140100000Y-67070000D02*
X139230000Y-67070000D01*
X138460000Y-68340000D02*
X137250000Y-68340000D01*
X138680000Y-68120000D02*
X138460000Y-68340000D01*
X138680000Y-67620000D02*
X138680000Y-68120000D01*
X139230000Y-67070000D02*
X138680000Y-67620000D01*
X141690000Y-68840000D02*
X143135094Y-67036125D01*
X142030000Y-54230000D02*
X140725000Y-52925000D01*
X142030000Y-55890000D02*
X142030000Y-54230000D01*
X144080000Y-57940000D02*
X142030000Y-55890000D01*
X144030000Y-64100000D02*
X144050000Y-64100000D01*
X143135094Y-67036125D02*
X144030000Y-64100000D01*
X137250000Y-67840000D02*
X135560000Y-67840000D01*
X141020000Y-68170000D02*
X140100000Y-68170000D01*
X141690000Y-68840000D02*
X141020000Y-68170000D01*
X135560000Y-67840000D02*
X134810000Y-68590000D01*
X140100000Y-64870000D02*
X141190000Y-64870000D01*
X133350000Y-60340000D02*
X133350000Y-61440000D01*
X132950000Y-59940000D02*
X133350000Y-60340000D01*
X132530000Y-59940000D02*
X132950000Y-59940000D01*
X132490000Y-59900000D02*
X132530000Y-59940000D01*
X131900000Y-58630000D02*
X131900000Y-58640000D01*
X132340000Y-58190000D02*
X131900000Y-58630000D01*
X141640000Y-58190000D02*
X132340000Y-58190000D01*
X142930000Y-59480000D02*
X141640000Y-58190000D01*
X142930000Y-63130000D02*
X142930000Y-59480000D01*
X141190000Y-64870000D02*
X142930000Y-63130000D01*
X138140000Y-60470000D02*
X138440000Y-60470000D01*
X138420000Y-57200000D02*
X137270000Y-57200000D01*
X140100000Y-60470000D02*
X138140000Y-60470000D01*
X138140000Y-60470000D02*
X136690000Y-60470000D01*
X134350000Y-59700000D02*
X134350000Y-61440000D01*
X134450000Y-59600000D02*
X134350000Y-59700000D01*
X135820000Y-59600000D02*
X134450000Y-59600000D01*
X136690000Y-60470000D02*
X135820000Y-59600000D01*
X133850000Y-59410000D02*
X133340000Y-59410000D01*
X134160000Y-57110000D02*
X133190000Y-57110000D01*
X134230000Y-57040000D02*
X134160000Y-57110000D01*
X133340000Y-59410000D02*
X133240000Y-59310000D01*
X140100000Y-61570000D02*
X141320000Y-61570000D01*
X133850000Y-59410000D02*
X133850000Y-61440000D01*
X133899998Y-59360002D02*
X133850000Y-59410000D01*
X133899998Y-59320002D02*
X133899998Y-59360002D01*
X134070002Y-59149998D02*
X133899998Y-59320002D01*
X136006396Y-59149998D02*
X134070002Y-59149998D01*
X136456398Y-59600000D02*
X136006396Y-59149998D01*
X141640000Y-59600000D02*
X136456398Y-59600000D01*
X141980000Y-59940000D02*
X141640000Y-59600000D01*
X141980000Y-60910000D02*
X141980000Y-59940000D01*
X141320000Y-61570000D02*
X141980000Y-60910000D01*
X137250000Y-58650000D02*
X137250000Y-58920000D01*
X138500000Y-55420000D02*
X137290000Y-55420000D01*
X138520000Y-55440000D02*
X138500000Y-55420000D01*
X140100000Y-62670000D02*
X141290000Y-62670000D01*
X131850000Y-59580000D02*
X131850000Y-61440000D01*
X132780000Y-58650000D02*
X131850000Y-59580000D01*
X141380000Y-58650000D02*
X137250000Y-58650000D01*
X137250000Y-58650000D02*
X132780000Y-58650000D01*
X142450000Y-59720000D02*
X141380000Y-58650000D01*
X142450000Y-61510000D02*
X142450000Y-59720000D01*
X141290000Y-62670000D02*
X142450000Y-61510000D01*
X102650000Y-89250000D02*
X102650000Y-86200000D01*
X102650000Y-86200000D02*
X102550000Y-86100000D01*
X101350000Y-83100000D02*
X101350000Y-84900000D01*
X117815000Y-65840000D02*
X117575000Y-65600000D01*
X117575000Y-65600000D02*
X117575000Y-60075000D01*
X117575000Y-60075000D02*
X114725000Y-57225000D01*
X114725000Y-57225000D02*
X106125000Y-57225000D01*
X106125000Y-57225000D02*
X104275000Y-59075000D01*
X104275000Y-59075000D02*
X104275000Y-68475000D01*
X104275000Y-68475000D02*
X104250000Y-68500000D01*
X121450000Y-65840000D02*
X117815000Y-65840000D01*
X101350000Y-84900000D02*
X102550000Y-86100000D01*
X120300000Y-80350000D02*
X121675000Y-80350000D01*
X121675000Y-80350000D02*
X121700000Y-80375000D01*
X150680000Y-81920000D02*
X154250000Y-81920000D01*
X154250000Y-81920000D02*
X154290000Y-81960000D01*
X150670000Y-80410000D02*
X150670000Y-78860000D01*
X150670000Y-78860000D02*
X150680000Y-78850000D01*
X154290000Y-81310000D02*
X151570000Y-81310000D01*
X151570000Y-81310000D02*
X150670000Y-80410000D01*
X137250000Y-66340000D02*
X138490000Y-66340000D01*
X152200000Y-80660000D02*
X151870000Y-80330000D01*
X151870000Y-80330000D02*
X151870000Y-80310000D01*
X152200000Y-80660000D02*
X154290000Y-80660000D01*
X148850000Y-77570000D02*
X151610000Y-77570000D01*
X148830000Y-77590000D02*
X148850000Y-77570000D01*
X148830000Y-72100000D02*
X148830000Y-77590000D01*
X138730000Y-66580000D02*
X138730000Y-66630000D01*
X138490000Y-66340000D02*
X138730000Y-66580000D01*
X106934000Y-69441000D02*
X106934000Y-70624000D01*
X107000000Y-69375000D02*
X106934000Y-69441000D01*
X134810000Y-74340000D02*
X137250000Y-74340000D01*
X132680000Y-72210000D02*
X134810000Y-74340000D01*
X126000000Y-72210000D02*
X132680000Y-72210000D01*
X125970000Y-72180000D02*
X126000000Y-72210000D01*
X135060000Y-73840000D02*
X137250000Y-73840000D01*
X132940000Y-71720000D02*
X135060000Y-73840000D01*
X129960000Y-71720000D02*
X132940000Y-71720000D01*
X129720000Y-71480000D02*
X129960000Y-71720000D01*
X113060000Y-70840000D02*
X121450000Y-70840000D01*
X112760000Y-71140000D02*
X113060000Y-70840000D01*
X121450000Y-70340000D02*
X112600000Y-70340000D01*
X112600000Y-70340000D02*
X112610000Y-70330000D01*
X131240000Y-74840000D02*
X137250000Y-74840000D01*
X130480000Y-74080000D02*
X131240000Y-74840000D01*
X121450000Y-71340000D02*
X113570000Y-71340000D01*
X113050000Y-71860000D02*
X111180000Y-71860000D01*
X113570000Y-71340000D02*
X113050000Y-71860000D01*
X121450000Y-75340000D02*
X114610000Y-75340000D01*
X113700000Y-76250000D02*
X113700000Y-78150000D01*
X114610000Y-75340000D02*
X113700000Y-76250000D01*
X123350000Y-77240000D02*
X122060000Y-77240000D01*
X121075000Y-78225000D02*
X116625000Y-78225000D01*
X122060000Y-77240000D02*
X121075000Y-78225000D01*
X134940000Y-64840000D02*
X133900000Y-65880000D01*
X137250000Y-64840000D02*
X134940000Y-64840000D01*
X135350000Y-61440000D02*
X135950000Y-61440000D01*
X136180000Y-61210000D02*
X136180000Y-61130000D01*
X135950000Y-61440000D02*
X136180000Y-61210000D01*
X103136000Y-78740000D02*
X103136000Y-76746000D01*
X103136000Y-76746000D02*
X103190000Y-76692000D01*
X103378000Y-72124000D02*
X103378000Y-73930000D01*
X103378000Y-73930000D02*
X104140000Y-74692000D01*
X101600000Y-72124000D02*
X103378000Y-72124000D01*
X103378000Y-72124000D02*
X105156000Y-72124000D01*
X105156000Y-72124000D02*
X106934000Y-72124000D01*
X149170000Y-80410000D02*
X148320000Y-80410000D01*
X135380000Y-65340000D02*
X137250000Y-65340000D01*
X134750000Y-65970000D02*
X135380000Y-65340000D01*
X148100000Y-78150000D02*
X148100000Y-71170000D01*
X148120000Y-78170000D02*
X148100000Y-78150000D01*
X148100000Y-80190000D02*
X148100000Y-79480000D01*
X148320000Y-80410000D02*
X148100000Y-80190000D01*
X137250000Y-65840000D02*
X135780000Y-65840000D01*
X148510000Y-81920000D02*
X149180000Y-81920000D01*
X147280000Y-80690000D02*
X148510000Y-81920000D01*
X147280000Y-79820000D02*
X147280000Y-80690000D01*
X147290000Y-79810000D02*
X147280000Y-79820000D01*
X147340000Y-71430000D02*
X147340000Y-77710000D01*
X147220000Y-71310000D02*
X147340000Y-71430000D01*
X135780000Y-65840000D02*
X134780000Y-66840000D01*
X104636000Y-78740000D02*
X104636000Y-78861000D01*
X104636000Y-78861000D02*
X107050000Y-81275000D01*
X114650000Y-81275000D02*
X114675000Y-81250000D01*
X114675000Y-81250000D02*
X124200000Y-81675000D01*
X124200000Y-81675000D02*
X125900650Y-79844337D01*
X125900650Y-79844337D02*
X125850000Y-77240000D01*
X118800000Y-80350000D02*
X114825000Y-80350000D01*
X116360000Y-71840000D02*
X121450000Y-71840000D01*
X112250000Y-75950000D02*
X116360000Y-71840000D01*
X112250000Y-78800000D02*
X112250000Y-75950000D01*
X112850000Y-79400000D02*
X112250000Y-78800000D01*
X113875000Y-79400000D02*
X112850000Y-79400000D01*
X114825000Y-80350000D02*
X113875000Y-79400000D01*
X125850000Y-61440000D02*
X125850000Y-57850000D01*
X122475000Y-53075000D02*
X122100000Y-53075000D01*
X125825000Y-56425000D02*
X122475000Y-53075000D01*
X125850000Y-57850000D02*
X125800000Y-57800000D01*
X121025000Y-56400000D02*
X121250000Y-56400000D01*
X121250000Y-56400000D02*
X122100000Y-55550000D01*
X122100000Y-55550000D02*
X122100000Y-53075000D01*
X113625000Y-53500000D02*
X113602500Y-53477500D01*
X113602500Y-53477500D02*
X111812500Y-53477500D01*
X102472500Y-53477500D02*
X107202500Y-53477500D01*
X110397500Y-53477500D02*
X111812500Y-53477500D01*
X110300000Y-53575000D02*
X110397500Y-53477500D01*
X107202500Y-53477500D02*
X107225000Y-53500000D01*
X125350000Y-61440000D02*
X125350000Y-58425000D01*
X122575000Y-52275000D02*
X121025000Y-52275000D01*
X125000000Y-54700000D02*
X122575000Y-52275000D01*
X125350000Y-58425000D02*
X124825000Y-57900000D01*
X111812500Y-52207500D02*
X115592500Y-52207500D01*
X119775000Y-52275000D02*
X121025000Y-52275000D01*
X119650000Y-52150000D02*
X119775000Y-52275000D01*
X115592500Y-52207500D02*
X115625000Y-52175000D01*
X102472500Y-52207500D02*
X107182500Y-52207500D01*
X110367500Y-52207500D02*
X111812500Y-52207500D01*
X110350000Y-52225000D02*
X110367500Y-52207500D01*
X107215000Y-52175000D02*
X107225000Y-52175000D01*
X107182500Y-52207500D02*
X107215000Y-52175000D01*
X124050000Y-89475000D02*
X124625000Y-88425000D01*
X131850000Y-79825000D02*
X131850000Y-77240000D01*
X131800000Y-79875000D02*
X131850000Y-79825000D01*
X131875000Y-79875000D02*
X131800000Y-79875000D01*
X126800000Y-84950000D02*
X131875000Y-79875000D01*
X124625000Y-88425000D02*
X125700000Y-85925000D01*
X138785000Y-89315000D02*
X138800000Y-87600000D01*
X132350000Y-80325000D02*
X132350000Y-77240000D01*
X132875000Y-80850000D02*
X132350000Y-80325000D01*
X133775000Y-80850000D02*
X132875000Y-80850000D01*
X138300000Y-85375000D02*
X133775000Y-80850000D01*
X138800000Y-87650000D02*
X138800000Y-87600000D01*
X138800000Y-87600000D02*
X138800000Y-87650000D01*
X106885000Y-89490000D02*
X106885000Y-88915000D01*
X106885000Y-88915000D02*
X107500000Y-88300000D01*
X107500000Y-88300000D02*
X111925000Y-88300000D01*
X111925000Y-88300000D02*
X112175000Y-88550000D01*
X115075000Y-87950000D02*
X115575000Y-87450000D01*
X115575000Y-87450000D02*
X124025000Y-87450000D01*
X127900000Y-85175000D02*
X131900000Y-81175000D01*
X131900000Y-81175000D02*
X132025000Y-81175000D01*
X133025000Y-79925000D02*
X132850000Y-79750000D01*
X132850000Y-79750000D02*
X132850000Y-77240000D01*
X153885000Y-89490000D02*
X149660000Y-89490000D01*
X133350000Y-79100000D02*
X133350000Y-77240000D01*
X133375000Y-79125000D02*
X133350000Y-79100000D01*
X134050000Y-79125000D02*
X133375000Y-79125000D01*
X140350000Y-85425000D02*
X134050000Y-79125000D01*
X148700000Y-90450000D02*
X148350000Y-90450000D01*
X149660000Y-89490000D02*
X148700000Y-90450000D01*
X128350000Y-77240000D02*
X128350000Y-74440000D01*
X128350000Y-74440000D02*
X129050000Y-73740000D01*
X127850000Y-73990000D02*
X127850000Y-77240000D01*
X128120000Y-73780000D02*
X127850000Y-73990000D01*
X127350000Y-77240000D02*
X127330000Y-73400000D01*
X127330000Y-73400000D02*
X127410000Y-73320000D01*
X126840000Y-73940000D02*
X126850000Y-77240000D01*
X126690000Y-73790000D02*
X126840000Y-73940000D01*
X101600000Y-69342000D02*
X101600000Y-70624000D01*
X103378000Y-69397000D02*
X103378000Y-70624000D01*
X103400000Y-69375000D02*
X103378000Y-69397000D01*
X105156000Y-69369000D02*
X105156000Y-70624000D01*
X105175000Y-69350000D02*
X105156000Y-69369000D01*
X107925000Y-78725000D02*
X107925000Y-77500000D01*
X108425000Y-75825000D02*
X108425000Y-74625000D01*
X108400000Y-75850000D02*
X108425000Y-75825000D01*
X107925000Y-77500000D02*
X108000000Y-77425000D01*
X107925000Y-78725000D02*
X109600000Y-78725000D01*
X109600000Y-78725000D02*
X109625000Y-78700000D01*
X109450000Y-80350000D02*
X109450000Y-78875000D01*
X109450000Y-78875000D02*
X109450000Y-77425000D01*
X143900000Y-83725000D02*
X143900000Y-82250000D01*
X143900000Y-82250000D02*
X143850000Y-82200000D01*
M02*
