G04 ---------------------------- Layer name :BOTTOM SILK LAYER*
G04 EasyEDA v5.7.22, Tue, 28 Aug 2018 07:39:09 GMT*
G04 bfd24f9e386c429bb71d77877026fdf2*
G04 Gerber Generator version 0.2*
G04 Scale: 100 percent, Rotated: No, Reflected: No *
G04 Dimensions in inches *
G04 leading zeros omitted , absolute positions ,2 integer and 4 decimal *
%FSLAX24Y24*%
%MOIN*%
G90*
G70D02*

%ADD17C,0.008000*%
%ADD48C,0.007000*%

%LPD*%
G54D48*
G01X8376Y8798D02*
G01X8070Y8798D01*
G01X8008Y8817D01*
G01X7967Y8859D01*
G01X7947Y8921D01*
G01X7947Y8961D01*
G01X7967Y9023D01*
G01X8008Y9063D01*
G01X8070Y9084D01*
G01X8376Y9084D01*
G01X8376Y9424D02*
G01X8090Y9219D01*
G01X8090Y9526D01*
G01X8376Y9424D02*
G01X7947Y9424D01*
G54D17*
G01X7322Y4998D02*
G01X7358Y5071D01*
G01X7467Y5180D01*
G01X6703Y5180D01*
G01X7422Y11798D02*
G01X7458Y11871D01*
G01X7567Y11980D01*
G01X6803Y11980D01*
G01X7567Y12401D02*
G01X7531Y12292D01*
G01X7458Y12255D01*
G01X7386Y12255D01*
G01X7313Y12292D01*
G01X7276Y12365D01*
G01X7240Y12511D01*
G01X7203Y12619D01*
G01X7131Y12692D01*
G01X7058Y12728D01*
G01X6949Y12728D01*
G01X6876Y12692D01*
G01X6840Y12655D01*
G01X6803Y12546D01*
G01X6803Y12401D01*
G01X6840Y12292D01*
G01X6876Y12255D01*
G01X6949Y12219D01*
G01X7058Y12219D01*
G01X7131Y12255D01*
G01X7203Y12328D01*
G01X7240Y12438D01*
G01X7276Y12582D01*
G01X7313Y12655D01*
G01X7386Y12692D01*
G01X7458Y12692D01*
G01X7531Y12655D01*
G01X7567Y12546D01*
G01X7567Y12401D01*
M00*
M02*
