G04 ---------------------------- Layer name :TOP LAYER*
G04 EasyEDA v5.7.22, Tue, 28 Aug 2018 07:39:09 GMT*
G04 bfd24f9e386c429bb71d77877026fdf2*
G04 Gerber Generator version 0.2*
G04 Scale: 100 percent, Rotated: No, Reflected: No *
G04 Dimensions in inches *
G04 leading zeros omitted , absolute positions ,2 integer and 4 decimal *
%FSLAX24Y24*%
%MOIN*%
G90*
G70D02*

%ADD11C,0.030000*%
%ADD12C,0.016000*%
%ADD13C,0.020000*%
%ADD14C,0.010000*%
%ADD15C,0.009000*%
%ADD16C,0.027559*%
%ADD18C,0.024400*%
%ADD19R,0.149606X0.078740*%
%ADD20R,0.059055X0.078740*%
%ADD21R,0.017717X0.039370*%
%ADD22R,0.167323X0.133858*%
%ADD23R,0.082677X0.017717*%
%ADD24R,0.082677X0.043307*%
%ADD25R,0.039370X0.043307*%
%ADD26R,0.043307X0.039370*%
%ADD27R,0.080000X0.070000*%
%ADD28R,0.027559X0.049213*%
%ADD29R,0.070900X0.063000*%
%ADD30R,0.118110X0.027600*%
%ADD31R,0.086614X0.051181*%
%ADD32R,0.071000X0.016000*%
%ADD33R,0.071500X0.012500*%
%ADD34R,0.012500X0.071500*%
%ADD35R,0.050000X0.025000*%
%ADD36R,0.025000X0.050000*%
%ADD37R,0.031500X0.078740*%
%ADD38C,0.051181*%

%LPD*%

%LPD*%
G36*
G01X7120Y12259D02*
G01X7091Y12259D01*
G01X7063Y12259D01*
G01X7035Y12261D01*
G01X7008Y12264D01*
G01X6983Y12267D01*
G01X6959Y12271D01*
G01X6937Y12276D01*
G01X6918Y12282D01*
G01X6896Y12290D01*
G01X6875Y12299D01*
G01X6854Y12308D01*
G01X6834Y12318D01*
G01X6815Y12329D01*
G01X6796Y12340D01*
G01X6777Y12351D01*
G01X6759Y12364D01*
G01X6741Y12377D01*
G01X6724Y12391D01*
G01X6708Y12405D01*
G01X6691Y12420D01*
G01X6639Y12470D01*
G01X6587Y12420D01*
G01X6569Y12403D01*
G01X6550Y12387D01*
G01X6532Y12372D01*
G01X6513Y12358D01*
G01X6495Y12345D01*
G01X6476Y12334D01*
G01X6457Y12323D01*
G01X6438Y12313D01*
G01X6418Y12304D01*
G01X6398Y12296D01*
G01X6377Y12288D01*
G01X6356Y12282D01*
G01X6334Y12276D01*
G01X6312Y12272D01*
G01X6288Y12268D01*
G01X6265Y12265D01*
G01X6240Y12263D01*
G01X6214Y12261D01*
G01X6188Y12260D01*
G01X6161Y12260D01*
G01X6132Y12261D01*
G01X6104Y12262D01*
G01X6077Y12265D01*
G01X6051Y12267D01*
G01X6026Y12271D01*
G01X6002Y12276D01*
G01X5979Y12282D01*
G01X5956Y12288D01*
G01X5934Y12295D01*
G01X5913Y12304D01*
G01X5892Y12313D01*
G01X5872Y12323D01*
G01X5853Y12334D01*
G01X5833Y12346D01*
G01X5815Y12359D01*
G01X5796Y12374D01*
G01X5778Y12389D01*
G01X5761Y12405D01*
G01X5743Y12423D01*
G01X5726Y12441D01*
G01X5706Y12464D01*
G01X5689Y12486D01*
G01X5673Y12508D01*
G01X5660Y12529D01*
G01X5649Y12551D01*
G01X5639Y12572D01*
G01X5632Y12595D01*
G01X5626Y12618D01*
G01X5621Y12642D01*
G01X5618Y12668D01*
G01X5616Y12696D01*
G01X5616Y12726D01*
G01X5616Y12756D01*
G01X5618Y12784D01*
G01X5621Y12810D01*
G01X5626Y12835D01*
G01X5632Y12858D01*
G01X5640Y12881D01*
G01X5650Y12903D01*
G01X5662Y12925D01*
G01X5676Y12947D01*
G01X5692Y12969D01*
G01X5711Y12992D01*
G01X5732Y13016D01*
G01X5750Y13034D01*
G01X5770Y13053D01*
G01X5791Y13070D01*
G01X5815Y13088D01*
G01X5839Y13105D01*
G01X5864Y13120D01*
G01X5889Y13135D01*
G01X5914Y13148D01*
G01X5939Y13159D01*
G01X5963Y13169D01*
G01X5986Y13176D01*
G01X6007Y13181D01*
G01X6041Y13190D01*
G01X6064Y13201D01*
G01X6078Y13216D01*
G01X6082Y13235D01*
G01X6085Y13252D01*
G01X6092Y13275D01*
G01X6103Y13302D01*
G01X6117Y13331D01*
G01X6133Y13360D01*
G01X6150Y13389D01*
G01X6169Y13416D01*
G01X6187Y13439D01*
G01X6204Y13458D01*
G01X6222Y13476D01*
G01X6241Y13493D01*
G01X6260Y13509D01*
G01X6281Y13524D01*
G01X6302Y13539D01*
G01X6323Y13552D01*
G01X6346Y13564D01*
G01X6369Y13576D01*
G01X6392Y13586D01*
G01X6416Y13595D01*
G01X6441Y13603D01*
G01X6466Y13611D01*
G01X6491Y13617D01*
G01X6516Y13621D01*
G01X6542Y13625D01*
G01X6570Y13628D01*
G01X6597Y13629D01*
G01X6624Y13630D01*
G01X6651Y13629D01*
G01X6677Y13628D01*
G01X6703Y13625D01*
G01X6729Y13621D01*
G01X6754Y13616D01*
G01X6779Y13611D01*
G01X6803Y13604D01*
G01X6827Y13596D01*
G01X6851Y13588D01*
G01X6874Y13578D01*
G01X6896Y13567D01*
G01X6918Y13556D01*
G01X6939Y13544D01*
G01X6959Y13530D01*
G01X6979Y13516D01*
G01X6998Y13501D01*
G01X7016Y13486D01*
G01X7034Y13469D01*
G01X7051Y13452D01*
G01X7066Y13433D01*
G01X7081Y13414D01*
G01X7096Y13395D01*
G01X7109Y13374D01*
G01X7121Y13353D01*
G01X7133Y13331D01*
G01X7143Y13308D01*
G01X7152Y13284D01*
G01X7160Y13260D01*
G01X7165Y13241D01*
G01X7172Y13218D01*
G01X7185Y13204D01*
G01X7212Y13193D01*
G01X7259Y13181D01*
G01X7287Y13174D01*
G01X7314Y13165D01*
G01X7341Y13155D01*
G01X7367Y13144D01*
G01X7392Y13132D01*
G01X7417Y13119D01*
G01X7441Y13105D01*
G01X7463Y13090D01*
G01X7485Y13074D01*
G01X7505Y13057D01*
G01X7525Y13039D01*
G01X7542Y13020D01*
G01X7557Y13003D01*
G01X7571Y12985D01*
G01X7584Y12967D01*
G01X7596Y12949D01*
G01X7607Y12931D01*
G01X7617Y12912D01*
G01X7626Y12893D01*
G01X7634Y12875D01*
G01X7641Y12855D01*
G01X7647Y12836D01*
G01X7652Y12817D01*
G01X7656Y12798D01*
G01X7659Y12779D01*
G01X7661Y12760D01*
G01X7662Y12740D01*
G01X7663Y12721D01*
G01X7662Y12702D01*
G01X7661Y12683D01*
G01X7658Y12664D01*
G01X7655Y12645D01*
G01X7651Y12627D01*
G01X7645Y12608D01*
G01X7640Y12590D01*
G01X7633Y12572D01*
G01X7625Y12554D01*
G01X7616Y12536D01*
G01X7607Y12519D01*
G01X7597Y12502D01*
G01X7586Y12485D01*
G01X7574Y12469D01*
G01X7561Y12453D01*
G01X7547Y12437D01*
G01X7533Y12422D01*
G01X7518Y12407D01*
G01X7502Y12393D01*
G01X7485Y12379D01*
G01X7467Y12366D01*
G01X7449Y12353D01*
G01X7430Y12341D01*
G01X7410Y12329D01*
G01X7389Y12318D01*
G01X7368Y12307D01*
G01X7346Y12298D01*
G01X7323Y12288D01*
G01X7303Y12282D01*
G01X7281Y12276D01*
G01X7257Y12271D01*
G01X7232Y12267D01*
G01X7205Y12264D01*
G01X7177Y12261D01*
G01X7149Y12259D01*
G01X7120Y12259D01*
G37*

%LPC*%

%LPD*%
G36*
G01X7549Y13170D02*
G01X7531Y13170D01*
G01X7513Y13171D01*
G01X7495Y13173D01*
G01X7477Y13177D01*
G01X7459Y13183D01*
G01X7441Y13190D01*
G01X7424Y13199D01*
G01X7407Y13210D01*
G01X7390Y13222D01*
G01X7374Y13236D01*
G01X7358Y13252D01*
G01X7343Y13270D01*
G01X7330Y13289D01*
G01X7319Y13308D01*
G01X7309Y13328D01*
G01X7301Y13348D01*
G01X7294Y13369D01*
G01X7289Y13390D01*
G01X7286Y13411D01*
G01X7284Y13432D01*
G01X7283Y13453D01*
G01X7285Y13475D01*
G01X7287Y13495D01*
G01X7292Y13516D01*
G01X7297Y13536D01*
G01X7304Y13556D01*
G01X7313Y13575D01*
G01X7323Y13593D01*
G01X7334Y13611D01*
G01X7347Y13627D01*
G01X7362Y13642D01*
G01X7377Y13657D01*
G01X7394Y13670D01*
G01X7412Y13682D01*
G01X7432Y13692D01*
G01X7452Y13701D01*
G01X7473Y13707D01*
G01X7494Y13711D01*
G01X7516Y13714D01*
G01X7537Y13715D01*
G01X7558Y13713D01*
G01X7579Y13710D01*
G01X7599Y13705D01*
G01X7619Y13698D01*
G01X7639Y13690D01*
G01X7658Y13680D01*
G01X7676Y13669D01*
G01X7693Y13656D01*
G01X7708Y13641D01*
G01X7723Y13626D01*
G01X7737Y13608D01*
G01X7749Y13590D01*
G01X7760Y13570D01*
G01X7769Y13550D01*
G01X7776Y13528D01*
G01X7782Y13505D01*
G01X7786Y13482D01*
G01X7788Y13461D01*
G01X7789Y13439D01*
G01X7788Y13418D01*
G01X7785Y13398D01*
G01X7782Y13378D01*
G01X7777Y13359D01*
G01X7770Y13340D01*
G01X7763Y13322D01*
G01X7754Y13305D01*
G01X7744Y13289D01*
G01X7733Y13274D01*
G01X7721Y13259D01*
G01X7709Y13245D01*
G01X7695Y13233D01*
G01X7681Y13221D01*
G01X7666Y13211D01*
G01X7651Y13201D01*
G01X7635Y13193D01*
G01X7618Y13186D01*
G01X7601Y13180D01*
G01X7584Y13175D01*
G01X7567Y13172D01*
G01X7549Y13170D01*
G37*

%LPC*%

%LPD*%
G36*
G01X5777Y13201D02*
G01X5753Y13200D01*
G01X5729Y13201D01*
G01X5706Y13204D01*
G01X5684Y13209D01*
G01X5662Y13215D01*
G01X5642Y13223D01*
G01X5623Y13232D01*
G01X5604Y13244D01*
G01X5587Y13256D01*
G01X5571Y13271D01*
G01X5556Y13286D01*
G01X5542Y13303D01*
G01X5530Y13321D01*
G01X5519Y13340D01*
G01X5510Y13360D01*
G01X5502Y13381D01*
G01X5496Y13404D01*
G01X5492Y13427D01*
G01X5489Y13451D01*
G01X5489Y13476D01*
G01X5490Y13496D01*
G01X5493Y13515D01*
G01X5498Y13536D01*
G01X5506Y13555D01*
G01X5515Y13575D01*
G01X5525Y13594D01*
G01X5537Y13613D01*
G01X5550Y13631D01*
G01X5565Y13648D01*
G01X5580Y13664D01*
G01X5597Y13679D01*
G01X5614Y13692D01*
G01X5632Y13704D01*
G01X5650Y13713D01*
G01X5668Y13721D01*
G01X5687Y13727D01*
G01X5709Y13731D01*
G01X5733Y13734D01*
G01X5757Y13734D01*
G01X5781Y13732D01*
G01X5805Y13728D01*
G01X5828Y13723D01*
G01X5850Y13715D01*
G01X5870Y13707D01*
G01X5889Y13696D01*
G01X5906Y13684D01*
G01X5922Y13671D01*
G01X5937Y13658D01*
G01X5951Y13643D01*
G01X5963Y13628D01*
G01X5973Y13612D01*
G01X5983Y13596D01*
G01X5991Y13579D01*
G01X5998Y13561D01*
G01X6004Y13544D01*
G01X6008Y13526D01*
G01X6011Y13507D01*
G01X6013Y13489D01*
G01X6014Y13470D01*
G01X6014Y13452D01*
G01X6012Y13434D01*
G01X6010Y13415D01*
G01X6006Y13397D01*
G01X6001Y13380D01*
G01X5994Y13362D01*
G01X5987Y13346D01*
G01X5979Y13329D01*
G01X5969Y13313D01*
G01X5959Y13299D01*
G01X5947Y13284D01*
G01X5935Y13271D01*
G01X5921Y13259D01*
G01X5907Y13247D01*
G01X5891Y13237D01*
G01X5875Y13228D01*
G01X5857Y13219D01*
G01X5839Y13213D01*
G01X5819Y13207D01*
G01X5799Y13203D01*
G01X5777Y13201D01*
G37*

%LPC*%

%LPD*%
G36*
G01X6267Y13679D02*
G01X6245Y13678D01*
G01X6223Y13679D01*
G01X6201Y13681D01*
G01X6180Y13684D01*
G01X6160Y13689D01*
G01X6140Y13695D01*
G01X6121Y13703D01*
G01X6103Y13711D01*
G01X6085Y13721D01*
G01X6069Y13732D01*
G01X6053Y13744D01*
G01X6038Y13757D01*
G01X6024Y13772D01*
G01X6010Y13787D01*
G01X5998Y13803D01*
G01X5987Y13821D01*
G01X5977Y13839D01*
G01X5968Y13858D01*
G01X5960Y13878D01*
G01X5953Y13898D01*
G01X5947Y13920D01*
G01X5943Y13942D01*
G01X5940Y13965D01*
G01X5938Y13988D01*
G01X5937Y14012D01*
G01X5938Y14036D01*
G01X5939Y14060D01*
G01X5943Y14083D01*
G01X5947Y14105D01*
G01X5952Y14126D01*
G01X5959Y14147D01*
G01X5967Y14167D01*
G01X5976Y14187D01*
G01X5986Y14205D01*
G01X5997Y14223D01*
G01X6010Y14240D01*
G01X6023Y14255D01*
G01X6038Y14271D01*
G01X6053Y14285D01*
G01X6070Y14298D01*
G01X6087Y14310D01*
G01X6105Y14321D01*
G01X6125Y14331D01*
G01X6145Y14340D01*
G01X6167Y14348D01*
G01X6187Y14353D01*
G01X6212Y14355D01*
G01X6241Y14355D01*
G01X6271Y14353D01*
G01X6301Y14350D01*
G01X6329Y14344D01*
G01X6356Y14336D01*
G01X6377Y14328D01*
G01X6398Y14316D01*
G01X6418Y14303D01*
G01X6437Y14289D01*
G01X6454Y14274D01*
G01X6471Y14258D01*
G01X6486Y14240D01*
G01X6499Y14221D01*
G01X6511Y14202D01*
G01X6522Y14181D01*
G01X6532Y14159D01*
G01X6540Y14137D01*
G01X6547Y14113D01*
G01X6552Y14089D01*
G01X6556Y14064D01*
G01X6558Y14039D01*
G01X6559Y14012D01*
G01X6558Y13988D01*
G01X6556Y13965D01*
G01X6553Y13942D01*
G01X6548Y13920D01*
G01X6542Y13899D01*
G01X6535Y13878D01*
G01X6527Y13859D01*
G01X6518Y13840D01*
G01X6508Y13822D01*
G01X6496Y13805D01*
G01X6484Y13788D01*
G01X6470Y13773D01*
G01X6456Y13759D01*
G01X6440Y13746D01*
G01X6424Y13733D01*
G01X6407Y13722D01*
G01X6389Y13712D01*
G01X6371Y13703D01*
G01X6351Y13696D01*
G01X6331Y13690D01*
G01X6311Y13685D01*
G01X6289Y13681D01*
G01X6267Y13679D01*
G37*

%LPC*%

%LPD*%
G36*
G01X7051Y13679D02*
G01X7027Y13678D01*
G01X7001Y13680D01*
G01X6977Y13682D01*
G01X6953Y13687D01*
G01X6930Y13693D01*
G01X6908Y13701D01*
G01X6886Y13711D01*
G01X6866Y13722D01*
G01X6847Y13734D01*
G01X6829Y13749D01*
G01X6812Y13764D01*
G01X6796Y13781D01*
G01X6781Y13800D01*
G01X6768Y13819D01*
G01X6756Y13840D01*
G01X6745Y13862D01*
G01X6736Y13885D01*
G01X6728Y13909D01*
G01X6722Y13934D01*
G01X6718Y13961D01*
G01X6715Y13988D01*
G01X6714Y14012D01*
G01X6714Y14035D01*
G01X6716Y14058D01*
G01X6719Y14081D01*
G01X6723Y14103D01*
G01X6729Y14125D01*
G01X6736Y14146D01*
G01X6744Y14166D01*
G01X6753Y14186D01*
G01X6764Y14205D01*
G01X6776Y14223D01*
G01X6788Y14240D01*
G01X6802Y14257D01*
G01X6817Y14272D01*
G01X6833Y14286D01*
G01X6850Y14300D01*
G01X6868Y14312D01*
G01X6887Y14323D01*
G01X6906Y14333D01*
G01X6927Y14341D01*
G01X6948Y14348D01*
G01X6970Y14353D01*
G01X6991Y14357D01*
G01X7013Y14358D01*
G01X7035Y14358D01*
G01X7057Y14356D01*
G01X7078Y14353D01*
G01X7099Y14348D01*
G01X7120Y14342D01*
G01X7141Y14334D01*
G01X7160Y14324D01*
G01X7180Y14313D01*
G01X7198Y14301D01*
G01X7216Y14287D01*
G01X7233Y14272D01*
G01X7249Y14256D01*
G01X7264Y14238D01*
G01X7277Y14220D01*
G01X7290Y14200D01*
G01X7301Y14179D01*
G01X7310Y14159D01*
G01X7318Y14138D01*
G01X7325Y14117D01*
G01X7330Y14096D01*
G01X7335Y14075D01*
G01X7338Y14054D01*
G01X7339Y14033D01*
G01X7340Y14012D01*
G01X7339Y13991D01*
G01X7337Y13970D01*
G01X7334Y13950D01*
G01X7330Y13929D01*
G01X7324Y13909D01*
G01X7317Y13889D01*
G01X7309Y13870D01*
G01X7300Y13851D01*
G01X7290Y13833D01*
G01X7278Y13815D01*
G01X7266Y13798D01*
G01X7252Y13781D01*
G01X7236Y13763D01*
G01X7219Y13748D01*
G01X7203Y13734D01*
G01X7186Y13721D01*
G01X7169Y13711D01*
G01X7152Y13702D01*
G01X7133Y13694D01*
G01X7114Y13688D01*
G01X7094Y13684D01*
G01X7073Y13681D01*
G01X7051Y13679D01*
G37*

%LPC*%

%LPD*%
G54D11*
G01X1867Y5498D02*
G01X2695Y5498D01*
G01X2695Y5498D01*
G54D12*
G01X2695Y5498D02*
G01X2695Y8134D01*
G01X2695Y8134D02*
G01X2695Y8134D01*
G01X2631Y8198D01*
G01X1947Y8198D01*
G01X1935Y8186D01*
G54D13*
G01X2937Y3378D02*
G01X2937Y4292D01*
G01X2631Y4598D01*
G01X2631Y4598D02*
G01X2631Y4598D01*
G01X2631Y5434D01*
G01X2695Y5498D01*
G01X1126Y3378D02*
G01X1237Y5498D01*
G01X1237Y5498D01*
G54D14*
G01X5731Y798D02*
G01X4567Y798D01*
G01X4467Y698D01*
G01X4331Y4138D02*
G01X4331Y2634D01*
G01X4331Y2634D01*
G01X4331Y2003D02*
G01X4331Y1898D01*
G01X4831Y1398D01*
G01X6631Y1398D01*
G54D13*
G01X6057Y4390D02*
G01X5539Y4390D01*
G01X5531Y4398D01*
G01X1195Y4703D02*
G01X1626Y4703D01*
G01X1631Y4698D01*
G54D12*
G01X1935Y9209D02*
G01X2643Y9209D01*
G01X3031Y9598D01*
G54D13*
G01X3325Y5498D02*
G01X3325Y6255D01*
G01X3331Y6261D01*
G01X2031Y3378D02*
G01X2031Y4098D01*
G01X3325Y5498D02*
G01X3325Y4203D01*
G01X3431Y4098D01*
G54D14*
G01X1935Y8953D02*
G01X3593Y8953D01*
G01X3837Y9198D01*
G01X3331Y8698D02*
G01X3537Y8698D01*
G01X3837Y8398D01*
G01X3331Y6892D02*
G01X4131Y6903D01*
G01X4531Y7498D01*
G01X3837Y8398D01*
G01X3331Y8698D02*
G01X1935Y8698D01*
G01X3325Y5498D02*
G01X4231Y5498D01*
G01X4331Y5398D01*
G01X6831Y2634D02*
G01X6831Y4363D01*
G01X6805Y4390D01*
G01X1935Y8442D02*
G01X2887Y8442D01*
G01X3420Y7909D01*
G01X3931Y7798D01*
G01X3725Y11598D02*
G01X3831Y11598D01*
G01X4231Y11198D01*
G01X3725Y10798D02*
G01X4231Y10798D01*
G01X4231Y10798D01*
G01X4025Y9998D02*
G01X4531Y9998D01*
G01X4531Y9998D01*
G01X3095Y11598D02*
G01X3095Y10798D01*
G01X3095Y10798D02*
G01X3095Y10298D01*
G01X3395Y9998D01*
G54D13*
G01X3331Y6261D02*
G01X3695Y6261D01*
G01X4331Y6598D01*
G01X4831Y7398D01*
G01X4831Y7898D01*
G01X3395Y9998D02*
G01X3395Y9361D01*
G01X3331Y9298D01*
G01X5031Y5098D02*
G01X5031Y3698D01*
G01X5331Y3398D01*
G01X6423Y3398D01*
G01X6431Y3405D01*
G01X5731Y2057D02*
G01X5731Y2198D01*
G01X5131Y2798D01*
G01X3837Y698D02*
G01X3837Y3392D01*
G01X3631Y3598D01*
G01X3631Y3898D01*
G01X3431Y4098D01*
G01X3091Y12188D02*
G01X3081Y12148D01*
G01X3095Y11598D01*
G54D14*
G01X3725Y12338D02*
G01X4210Y11852D01*
G01X4210Y11798D01*
G01X4210Y11737D01*
G01X9661Y3378D02*
G01X8651Y3378D01*
G01X7731Y4298D01*
G01X7711Y4707D01*
G01X7221Y5038D01*
G01X5981Y5017D01*
G01X5721Y5257D01*
G01X5261Y7678D01*
G01X5111Y8117D01*
G01X4467Y8398D01*
G01X4467Y8398D01*
G01X9661Y3567D02*
G01X8761Y3567D01*
G01X7931Y4398D01*
G01X7891Y4838D01*
G01X7251Y5248D01*
G01X7251Y5248D02*
G01X6071Y5188D01*
G01X5901Y5367D01*
G01X5311Y8257D01*
G01X4867Y8798D01*
G01X4467Y9198D01*
G01X9661Y3767D02*
G01X8861Y3767D01*
G01X8331Y4298D01*
G01X8331Y4498D01*
G01X7431Y4498D02*
G01X7131Y4798D01*
G01X5531Y4798D01*
G01X5431Y4898D01*
G01X5431Y5498D01*
G01X4631Y6298D01*
G01X10461Y7917D02*
G01X10461Y8763D01*
G01X10595Y8898D01*
G01X11225Y8898D02*
G01X11551Y8438D01*
G01X12811Y8407D01*
G01X12831Y7917D01*
G01X9661Y2978D02*
G01X8287Y2978D01*
G01X7931Y3334D01*
G01X9661Y2788D02*
G01X8015Y2788D01*
G01X7931Y2703D01*
G01X9661Y2588D02*
G01X9157Y2588D01*
G01X8567Y1998D01*
G54D13*
G01X7937Y1998D02*
G01X7937Y2698D01*
G01X7931Y2703D01*
G01X7931Y2703D02*
G01X7425Y2703D01*
G01X7331Y2798D01*
G01X4131Y1298D02*
G01X3852Y1298D01*
G01X3837Y1282D01*
G01X8567Y1998D02*
G01X8567Y1834D01*
G01X8231Y1498D01*
G54D14*
G01X14791Y1978D02*
G01X14791Y1144D01*
G01X14837Y1098D01*
G01X14991Y1978D02*
G01X14991Y1574D01*
G01X15467Y1098D01*
G54D13*
G01X8231Y1498D02*
G01X8331Y1498D01*
G01X9031Y798D01*
G01X14031Y798D01*
G01X14331Y498D01*
G01X15231Y498D01*
G01X15431Y698D01*
G01X15431Y1061D01*
G01X15467Y1098D01*
G01X14837Y1098D02*
G01X14431Y1098D01*
G01X14331Y998D01*
G01X7937Y1998D02*
G01X7937Y1292D01*
G01X8731Y498D01*
G01X13831Y498D01*
G54D14*
G01X15601Y4357D02*
G01X16477Y4357D01*
G01X16731Y4103D01*
G01X15601Y4557D02*
G01X16555Y4557D01*
G01X16731Y4734D01*
G54D13*
G01X16731Y4103D02*
G01X17531Y4103D01*
G01X17531Y4103D01*
G54D14*
G01X15601Y5148D02*
G01X16041Y5157D01*
G01X16271Y5438D01*
G01X16781Y5428D01*
G01X17531Y4734D01*
G54D13*
G01X17531Y3392D02*
G01X17531Y4103D01*
G01X17531Y4103D01*
G54D14*
G01X15601Y4748D02*
G01X16241Y4748D01*
G01X16291Y4798D01*
G54D13*
G01X17531Y2761D02*
G01X17531Y2298D01*
G01X17531Y2298D01*
G54D14*
G01X15601Y3567D02*
G01X16597Y3567D01*
G01X16731Y3434D01*
G54D13*
G01X16731Y2803D02*
G01X16837Y2803D01*
G01X17131Y3098D01*
G01X17231Y3198D01*
G01X17337Y3198D01*
G01X17531Y3392D01*
G01X16731Y4734D02*
G01X16795Y4734D01*
G01X17131Y4398D01*
G01X16731Y3434D02*
G01X16867Y3434D01*
G01X17131Y3698D01*
G01X16731Y2803D02*
G01X16731Y2198D01*
G01X15941Y1407D01*
G01X15467Y1098D02*
G01X16431Y1098D01*
G01X17131Y1798D01*
G01X17131Y2298D01*
G54D14*
G01X15601Y6717D02*
G01X16647Y6717D01*
G01X16731Y6634D01*
G01X15601Y6528D02*
G01X16625Y6528D01*
G01X16731Y6634D01*
G01X15601Y6328D02*
G01X16407Y6328D01*
G01X16731Y6003D01*
G01X15601Y6717D02*
G01X15051Y6717D01*
G01X14931Y6598D01*
G01X15601Y6128D02*
G01X15141Y6138D01*
G01X14921Y6388D01*
G01X14931Y6598D01*
G54D13*
G01X17531Y4103D02*
G01X17637Y4103D01*
G01X18031Y4498D01*
G01X18031Y4998D01*
G01X17831Y5198D01*
G01X17537Y5198D01*
G01X16731Y6003D01*
G01X17531Y2761D02*
G01X18717Y2761D01*
G01X18731Y2748D01*
G01X18031Y4834D02*
G01X18031Y5092D01*
G01X18137Y5198D01*
G01X18731Y4448D02*
G01X18731Y5161D01*
G01X18767Y5198D01*
G54D14*
G01X15601Y4948D02*
G01X16071Y4948D01*
G01X16141Y5017D01*
G01X16161Y5017D01*
G01X16251Y5107D01*
G01X16391Y5107D01*
G01X16451Y5167D01*
G54D13*
G01X18731Y4448D02*
G01X18691Y4448D01*
G01X18211Y3967D01*
G01X16731Y6634D02*
G01X16835Y6634D01*
G01X17511Y5848D01*
G01X17801Y5628D01*
G01X19161Y5688D01*
G01X19461Y5388D01*
G01X19461Y2267D01*
G01X19271Y2078D01*
G01X18121Y2078D01*
G01X17841Y1798D01*
G01X17139Y1798D01*
G01X17131Y1805D01*
G01X22241Y2153D02*
G01X22241Y2978D01*
G01X21491Y3728D01*
G01X15831Y498D02*
G01X20791Y498D01*
G01X22031Y967D01*
G01X22268Y2148D01*
G01X22241Y2153D01*
G54D14*
G01X20741Y5303D02*
G01X20741Y5944D01*
G01X20775Y5978D01*
G54D13*
G01X19461Y5388D02*
G01X19491Y5388D01*
G01X19831Y5728D01*
G01X20131Y6028D01*
G01X20131Y6028D02*
G01X20131Y6028D01*
G01X20725Y6028D01*
G01X20775Y5978D01*
G01X21405Y5978D02*
G01X21681Y6188D01*
G01X23101Y6188D01*
G01X23101Y3838D01*
G01X22241Y2978D01*
G54D14*
G01X15601Y5338D02*
G01X14721Y5338D01*
G01X14521Y5138D01*
G01X21241Y5303D02*
G01X21221Y4917D01*
G01X20061Y4917D01*
G01X19871Y4648D01*
G01X19791Y4567D01*
G01X21741Y5303D02*
G01X21741Y5638D01*
G01X21941Y5838D01*
G01X22241Y5303D02*
G01X22241Y5567D01*
G01X22511Y5567D01*
G01X22791Y5848D01*
G01X21951Y6528D02*
G01X21951Y6528D01*
G01X20051Y6307D01*
G01X19191Y6078D01*
G01X18381Y5938D01*
G01X18161Y6098D01*
G01X17871Y6257D01*
G01X17181Y7148D01*
G01X16881Y7238D01*
G01X16191Y8107D01*
G01X15701Y8198D01*
G01X15591Y9178D01*
G01X15281Y9488D01*
G01X14521Y9488D01*
G01X14201Y9157D01*
G01X14201Y7917D01*
G01X22551Y6838D02*
G01X22241Y7078D01*
G01X20241Y6738D01*
G01X18471Y6328D01*
G01X18091Y6578D01*
G01X17431Y7448D01*
G01X17091Y7567D01*
G01X16411Y8417D01*
G01X16061Y8567D01*
G01X16011Y9317D01*
G01X15419Y10017D01*
G01X14368Y10017D01*
G01X13821Y9461D01*
G01X13821Y7928D01*
G01X13811Y7917D01*
G01X15601Y5538D02*
G01X14441Y5538D01*
G01X14331Y5428D01*
G01X20741Y2153D02*
G01X19916Y2153D01*
G01X19801Y2267D01*
G01X19801Y4148D01*
G01X19981Y4328D01*
G01X14601Y7917D02*
G01X14601Y8771D01*
G01X14565Y8807D01*
G01X14791Y7917D02*
G01X14791Y8403D01*
G01X15195Y8807D01*
G54D13*
G01X14565Y8807D02*
G01X14565Y9092D01*
G01X14691Y9217D01*
G01X16731Y6634D02*
G01X16451Y7057D01*
G01X16101Y7578D01*
G01X15391Y7578D01*
G01X15291Y8238D01*
G01X15301Y8248D01*
G01X15291Y8238D01*
G01X15195Y8807D02*
G01X15195Y9124D01*
G01X15101Y9217D01*
G01X16731Y6003D02*
G01X16245Y6003D01*
G01X16241Y6007D01*
G54D14*
G01X10271Y7917D02*
G01X10271Y8348D01*
G01X10151Y8467D01*
G01X9937Y8467D01*
G01X9761Y8292D01*
G54D13*
G01X9761Y8921D02*
G01X9775Y8921D01*
G01X10251Y9398D01*
G01X10901Y9398D01*
G01X11151Y9148D01*
G01X11151Y8971D01*
G01X11225Y8898D01*
G01X7841Y8528D02*
G01X9525Y8528D01*
G01X9761Y8292D01*
G01X11224Y8898D02*
G01X11761Y8898D01*
G01X11761Y10767D01*
G54D14*
G01X13221Y7917D02*
G01X13211Y6807D01*
G01X13081Y6148D01*
G01X12501Y5307D01*
G01X11681Y4157D01*
G01X11211Y3178D01*
G01X11131Y3178D01*
G01X6631Y1398D02*
G01X6631Y917D01*
G01X6911Y638D01*
G01X9211Y1857D02*
G01X9401Y1857D01*
G01X9751Y2208D01*
G01X9910Y2208D01*
G01X9931Y2228D01*
G01X21241Y2153D02*
G01X21241Y1717D01*
G01X22391Y6528D02*
G01X22371Y6528D01*
G01X22001Y6798D01*
G01X20041Y6498D01*
G01X18441Y6128D01*
G01X18271Y6238D01*
G01X17961Y6428D01*
G01X17331Y7288D01*
G01X16981Y7407D01*
G01X16261Y8278D01*
G01X15861Y8378D01*
G01X15831Y9248D01*
G01X15301Y9767D01*
G01X14481Y9767D01*
G01X14021Y9317D01*
G01X14021Y7928D01*
G01X14011Y7917D01*
G01X21741Y2157D02*
G01X21741Y1498D01*
G01X21641Y1398D01*
G01X18651Y1398D01*
G01X18271Y1778D01*
G01X14011Y1978D02*
G01X14011Y3157D01*
G01X14021Y3167D01*
G01X14331Y998D02*
G01X14301Y998D01*
G01X13821Y1478D01*
G01X13821Y1967D01*
G01X13811Y1978D01*
G01X9661Y7117D02*
G01X10151Y7117D01*
G01X10408Y6861D01*
G01X10391Y6107D01*
G01X9661Y7307D02*
G01X10251Y7307D01*
G01X10591Y6938D01*
G01X10611Y6567D01*
G01X10671Y6298D01*
G01X10671Y6078D01*
G01X10611Y5828D01*
G01X10311Y5757D01*
G01X10311Y5757D01*
G01X10661Y7917D02*
G01X10661Y7438D01*
G01X10771Y7057D01*
G01X10821Y6748D01*
G01X10871Y6478D01*
G01X10951Y6248D01*
G01X10951Y5917D01*
G01X10861Y7917D02*
G01X10861Y7488D01*
G01X10981Y7198D01*
G01X11011Y6907D01*
G01X11091Y6578D01*
G01X11191Y6028D01*
G01X11201Y5657D01*
G01X9661Y6917D02*
G01X9241Y6917D01*
G01X9111Y7048D01*
G01X9111Y7428D01*
G01X9341Y7788D01*
G01X9661Y6717D02*
G01X9141Y6717D01*
G01X8931Y6978D01*
G01X8931Y7538D01*
G01X9001Y7728D01*
G01X9661Y3178D02*
G01X10401Y3178D01*
G01X10611Y3388D01*
G01X8961Y4007D02*
G01X8661Y4317D01*
G01X8661Y4548D01*
G01X8461Y4748D01*
G01X8241Y4748D01*
G01X8151Y4838D01*
G01X8031Y4988D01*
G01X7281Y5438D01*
G01X6201Y5388D01*
G01X6091Y5478D01*
G01X5481Y8317D01*
G01X5031Y9067D01*
G01X5031Y10038D01*
G01X4551Y10517D01*
G01X4551Y11528D01*
G01X4321Y12138D01*
G01X4051Y13078D01*
G01X3661Y13178D01*
G01X3131Y13328D01*
G01X3141Y15217D01*
G01X2081Y15217D01*
G01X10271Y1978D02*
G01X10271Y2638D01*
G01X10871Y3238D01*
G01X10871Y3557D01*
G01X10611Y3817D01*
G01X8961Y4407D02*
G01X8961Y4578D01*
G01X8611Y4928D01*
G01X8401Y4978D01*
G01X8071Y5178D01*
G01X7331Y5607D01*
G01X6271Y5578D01*
G01X5651Y8388D01*
G01X5291Y9117D01*
G01X5291Y10107D01*
G01X4771Y10628D01*
G01X4771Y11598D01*
G01X4501Y12348D01*
G01X4341Y12788D01*
G01X4181Y13238D01*
G01X3301Y13478D01*
G01X3311Y14657D01*
G01X3371Y14657D01*
G01X15601Y5148D02*
G01X14981Y5148D01*
G01X14641Y4807D01*
G01X14531Y4807D01*
G01X14511Y4788D01*
G01X9001Y5017D02*
G01X8911Y5017D01*
G01X8731Y5128D01*
G01X8461Y5138D01*
G01X7381Y5778D01*
G01X6401Y5767D01*
G01X5784Y8711D01*
G01X5551Y9248D01*
G01X5551Y10248D01*
G01X5031Y10767D01*
G01X5031Y11528D01*
G01X4315Y13421D01*
G01X3471Y13638D01*
G01X3541Y14167D01*
G01X3606Y14388D01*
G01X3621Y14388D01*
G01X15601Y7307D02*
G01X15031Y7307D01*
G01X14501Y6778D01*
G01X14501Y5998D01*
G01X14081Y5578D01*
G01X14081Y5038D01*
G01X13941Y4598D01*
G01X13981Y4238D01*
G01X13931Y3957D01*
G01X13931Y3857D01*
G01X14991Y7917D02*
G01X14991Y7517D01*
G01X14321Y6848D01*
G01X14321Y6107D01*
G01X13881Y5667D01*
G01X13881Y5128D01*
G01X13741Y4598D01*
G01X13721Y4107D01*
G01X13721Y4107D01*
G01X8531Y5437D02*
G01X8331Y5437D01*
G01X7420Y5998D01*
G01X6591Y5967D01*
G01X6010Y8517D01*
G01X5781Y9278D01*
G01X5781Y10248D01*
G01X5241Y10787D01*
G01X5211Y11598D01*
G01X4501Y13537D01*
G01X4181Y13857D01*
G01X3761Y13857D01*
G01X8531Y5808D02*
G01X8251Y5808D01*
G01X8091Y5828D01*
G01X7951Y5878D01*
G01X7503Y6179D01*
G01X6720Y6158D01*
G01X6270Y8228D01*
G01X5970Y9367D01*
G01X5970Y10367D01*
G01X5441Y10898D01*
G01X5381Y11798D01*
G01X4966Y12858D01*
G01X5011Y12902D01*
G01X5011Y12902D01*
G54D13*
G01X19999Y10344D02*
G01X19999Y10080D01*
G01X22591Y7488D01*
G01X23011Y7488D01*
G01X23101Y7398D01*
G01X23101Y6188D01*
G01X19999Y15911D02*
G01X19999Y11409D01*
G01X20441Y10967D01*
G01X20441Y10157D01*
G01X21041Y9588D01*
G01X21041Y9588D02*
G01X21615Y9588D01*
G01X21705Y9498D01*
G01X21705Y9498D02*
G01X21705Y8894D01*
G01X22731Y7867D01*
G01X22335Y9498D02*
G01X22335Y8913D01*
G01X23101Y8148D01*
G01X23101Y7398D01*
G54D14*
G01X13021Y7917D02*
G01X13021Y7298D01*
G01X12951Y7228D01*
G01X15661Y7907D02*
G01X16131Y7907D01*
G01X16751Y7067D01*
G01X17091Y6978D01*
G01X17881Y5978D01*
G01X18817Y10348D02*
G01X18801Y10817D01*
G01X18801Y10978D01*
G01X18221Y10988D01*
G01X13221Y1978D02*
G01X13221Y1438D01*
G01X13351Y1307D01*
G01X13581Y1307D01*
G01X13741Y1148D01*
G01X18741Y11257D02*
G01X18981Y11188D01*
G01X19408Y10348D01*
G01X19381Y10317D01*
G01X19408Y10348D01*
G01X11721Y5078D02*
G01X12031Y5138D01*
G01X12791Y6117D01*
G01X12881Y6857D01*
G01X9661Y4157D02*
G01X10271Y4157D01*
G01X10401Y4288D01*
G01X11301Y4817D01*
G01X11531Y5348D01*
G01X12611Y6198D01*
G01X12631Y6678D01*
G01X12541Y6898D01*
G01X12401Y7017D01*
G01X12351Y7307D01*
G01X12351Y7307D01*
G01X14641Y10317D02*
G01X14041Y11038D01*
G01X14511Y11478D01*
G01X14891Y11598D01*
G01X14888Y12498D01*
G01X14351Y12498D01*
G01X14361Y12867D01*
G01X14171Y10198D02*
G01X13881Y10488D01*
G01X13881Y11248D01*
G01X14301Y11587D01*
G01X14501Y11858D01*
G01X13611Y1978D02*
G01X13611Y3828D01*
G01X13471Y3967D01*
G01X13471Y4257D01*
G01X13521Y4478D01*
G01X13681Y5107D01*
G01X13691Y5748D01*
G01X14101Y6248D01*
G01X14131Y6967D01*
G01X13421Y1978D02*
G01X13421Y3738D01*
G01X13281Y3878D01*
G01X13271Y4307D01*
G01X13341Y4507D01*
G01X13471Y5107D01*
G01X13481Y5807D01*
G01X13911Y6338D01*
G01X13951Y6957D01*
G01X13951Y6957D02*
G01X13951Y7138D01*
G01X13891Y7198D01*
G01X14131Y6967D02*
G01X14131Y7048D01*
G01X14281Y7198D01*
G01X17046Y10344D02*
G01X17046Y11013D01*
G01X17041Y11017D01*
G01X17636Y10344D02*
G01X17636Y11003D01*
G01X17621Y11017D01*
G01X14441Y11078D02*
G01X14441Y10907D01*
G01X14991Y10357D01*
G01X15431Y10398D02*
G01X14881Y10828D01*
G01X14881Y11238D01*
G01X14801Y11317D01*
G01X20471Y7461D02*
G01X21228Y7461D01*
G01X21251Y7484D01*
G01X21251Y7484D02*
G01X21747Y7484D01*
G01X21841Y7578D01*
G01X21251Y8113D02*
G01X21251Y8238D01*
G01X20861Y8628D01*
G01X20471Y8092D02*
G01X20471Y8598D01*
G01X20461Y8607D01*
G01X17291Y8628D02*
G01X19671Y8628D01*
G01X19671Y8628D02*
G01X19671Y8128D01*
G01X19671Y8628D02*
G01X19671Y9128D01*
G01X19671Y9128D02*
G01X19671Y9628D01*
G01X17291Y8128D02*
G01X17291Y7907D01*
G01X17591Y7607D01*
G01X17661Y7607D01*
G01X17961Y7307D01*
G01X20317Y7307D01*
G01X20471Y7461D01*
G01X20471Y8092D02*
G01X20405Y8092D01*
G01X19851Y7538D01*
G01X19511Y7538D01*
G01X18761Y8288D01*
G01X17291Y9628D02*
G01X18111Y9628D01*
G01X18121Y9617D01*
G01X19671Y9628D02*
G01X20195Y9628D01*
G01X20323Y9755D01*
G01X20861Y8628D02*
G01X20861Y8678D01*
G01X20381Y9157D01*
G01X17291Y9128D02*
G01X18281Y9128D01*
G01X18681Y9528D01*
G01X9662Y4357D02*
G01X10120Y4357D01*
G01X10270Y4508D01*
G01X10270Y4547D01*
G01X10691Y4967D01*
G01X2161Y11867D02*
G01X2161Y12185D01*
G01X2069Y12276D01*
G01X2881Y14307D02*
G01X2881Y14088D01*
G01X2811Y14017D01*
G01X2097Y14017D01*
G01X2071Y14043D01*
G01X2891Y13707D02*
G01X2891Y13548D01*
G01X2811Y13467D01*
G01X2080Y13467D01*
G01X2071Y13458D01*
G01X2851Y14638D02*
G01X2070Y14638D01*
G01X2070Y14638D01*
G01X3371Y12978D02*
G01X3001Y12978D01*
G01X2911Y12888D01*
G01X2091Y12888D01*
G01X2071Y12867D01*
G01X9109Y8528D02*
G01X9109Y9056D01*
G01X9581Y9528D01*
G01X9821Y9528D01*
G01X10791Y10498D01*
G01X9251Y11338D02*
G01X9581Y11338D01*
G01X9801Y11557D01*
G01X10761Y11557D01*
G01X10791Y11528D01*
G01X9261Y11028D02*
G01X9651Y11028D01*
G01X9901Y11278D01*
G01X10781Y11278D01*
G01X10791Y11267D01*
G01X9251Y10707D02*
G01X9671Y10707D01*
G01X9931Y10967D01*
G01X9961Y10998D01*
G01X10781Y10998D01*
G01X10791Y11007D01*
G01X9251Y10378D02*
G01X9681Y10378D01*
G01X10051Y10748D01*
G01X10781Y10748D01*
G01X10791Y10757D01*
G01X8511Y11267D02*
G01X8511Y11007D01*
G01X8511Y11267D02*
G01X8851Y11267D01*
G01X9181Y11598D01*
G01X9571Y11598D01*
G01X9751Y11778D01*
G01X10791Y11778D01*
G01X11761Y10767D02*
G01X11731Y10767D01*
G01X11301Y10778D01*
G01X11301Y11778D01*
G01X10801Y11788D01*
G01X10791Y11778D01*
G01X8510Y11528D02*
G01X8001Y11537D01*
G01X8001Y9457D01*
G01X8451Y9007D01*
G01X8511Y11778D02*
G01X7771Y11767D01*
G01X7761Y9398D01*
G01X8031Y9017D01*
G01X8510Y12037D02*
G01X9426Y12037D01*
G01X10021Y12037D01*
G01X10021Y12107D01*
G01X13381Y10028D02*
G01X13381Y8848D01*
G01X13060Y8528D01*
G01X15602Y5736D02*
G01X15002Y5736D01*
G01X14931Y5807D01*
G01X14361Y12867D02*
G01X14361Y13328D01*
G01X14371Y13338D01*
G01X14721Y12867D02*
G01X14721Y13248D01*
G01X14891Y13417D01*
G01X15427Y13417D01*
G01X15433Y13423D01*
G01X14501Y12217D02*
G01X14171Y12217D01*
G01X14111Y12278D01*
G01X14111Y13417D01*
G01X14291Y13598D01*
G01X14771Y13598D01*
G01X14941Y13767D01*
G01X14941Y13957D01*
G01X14981Y13998D01*
G01X15416Y13998D01*
G01X15433Y14014D01*
G54D15*
G01X14501Y11857D02*
G01X14161Y11857D01*
G01X13881Y12138D01*
G01X13881Y13607D01*
G01X14101Y13828D01*
G01X14331Y13828D01*
G01X14361Y13857D01*
G54D14*
G01X6831Y2003D02*
G01X6855Y2003D01*
G01X7271Y1588D01*
G01X7271Y1467D01*
G01X8301Y438D01*
G01X9181Y1157D02*
G01X10291Y1157D01*
G01X10461Y1328D01*
G01X10861Y1438D01*
G01X10862Y1976D01*
G54D16*
G01X19966Y8128D02*
G01X19375Y8128D01*
G01X19966Y8628D02*
G01X19375Y8628D01*
G01X19966Y9128D02*
G01X19375Y9128D01*
G01X19966Y9628D02*
G01X19375Y9628D01*
G01X17586Y8128D02*
G01X16995Y8128D01*
G01X17586Y8628D02*
G01X16995Y8628D01*
G01X17586Y9128D02*
G01X16995Y9128D01*
G01X17586Y9628D02*
G01X16995Y9628D01*

%LPD*%
G36*
G01X8637Y14741D02*
G01X8584Y14738D01*
G01X8528Y14740D01*
G01X8479Y14747D01*
G01X8437Y14759D01*
G01X8400Y14776D01*
G01X8370Y14801D01*
G01X8343Y14834D01*
G01X8320Y14876D01*
G01X8301Y14928D01*
G01X8291Y14968D01*
G01X8283Y15014D01*
G01X8277Y15067D01*
G01X8272Y15125D01*
G01X8269Y15189D01*
G01X8268Y15259D01*
G01X8269Y15315D01*
G01X8273Y15368D01*
G01X8278Y15418D01*
G01X8285Y15464D01*
G01X8294Y15507D01*
G01X8305Y15547D01*
G01X8319Y15584D01*
G01X8334Y15618D01*
G01X8351Y15648D01*
G01X8371Y15675D01*
G01X8392Y15699D01*
G01X8416Y15720D01*
G01X8442Y15738D01*
G01X8469Y15752D01*
G01X8499Y15763D01*
G01X8531Y15771D01*
G01X8565Y15776D01*
G01X8600Y15778D01*
G01X8653Y15775D01*
G01X8701Y15766D01*
G01X8743Y15752D01*
G01X8779Y15732D01*
G01X8811Y15706D01*
G01X8838Y15671D01*
G01X8861Y15628D01*
G01X8879Y15578D01*
G01X8890Y15538D01*
G01X8898Y15494D01*
G01X8904Y15445D01*
G01X8909Y15391D01*
G01X8912Y15332D01*
G01X8912Y15267D01*
G01X8911Y15200D01*
G01X8907Y15136D01*
G01X8901Y15078D01*
G01X8892Y15025D01*
G01X8881Y14977D01*
G01X8867Y14934D01*
G01X8850Y14895D01*
G01X8831Y14861D01*
G01X8802Y14824D01*
G01X8768Y14793D01*
G01X8729Y14769D01*
G01X8686Y14751D01*
G01X8637Y14741D01*
G37*

%LPC*%
G36*
G01X8577Y14923D02*
G01X8590Y14921D01*
G01X8602Y14923D01*
G01X8612Y14927D01*
G01X8622Y14934D01*
G01X8630Y14944D01*
G01X8645Y14980D01*
G01X8657Y15042D01*
G01X8662Y15084D01*
G01X8666Y15135D01*
G01X8668Y15194D01*
G01X8668Y15261D01*
G01X8668Y15330D01*
G01X8667Y15388D01*
G01X8665Y15437D01*
G01X8662Y15476D01*
G01X8659Y15508D01*
G01X8654Y15534D01*
G01X8648Y15555D01*
G01X8640Y15569D01*
G01X8631Y15580D01*
G01X8620Y15588D01*
G01X8607Y15592D01*
G01X8592Y15594D01*
G01X8559Y15576D01*
G01X8533Y15526D01*
G01X8527Y15499D01*
G01X8522Y15466D01*
G01X8518Y15426D01*
G01X8515Y15378D01*
G01X8513Y15323D01*
G01X8512Y15261D01*
G01X8513Y15192D01*
G01X8515Y15131D01*
G01X8518Y15080D01*
G01X8521Y15038D01*
G01X8532Y14978D01*
G01X8546Y14944D01*
G01X8555Y14934D01*
G01X8565Y14927D01*
G01X8577Y14923D01*
G37*

%LPD*%
G36*
G01X5173Y14740D02*
G01X5114Y14738D01*
G01X5066Y14740D01*
G01X5022Y14749D01*
G01X4982Y14763D01*
G01X4946Y14783D01*
G01X4913Y14809D01*
G01X4884Y14840D01*
G01X4866Y14869D01*
G01X4849Y14902D01*
G01X4836Y14941D01*
G01X4824Y14984D01*
G01X4816Y15033D01*
G01X4809Y15087D01*
G01X4806Y15146D01*
G01X4804Y15209D01*
G01X4805Y15265D01*
G01X4807Y15317D01*
G01X4811Y15366D01*
G01X4816Y15412D01*
G01X4823Y15455D01*
G01X4831Y15494D01*
G01X4840Y15530D01*
G01X4851Y15563D01*
G01X4877Y15621D01*
G01X4906Y15669D01*
G01X4938Y15707D01*
G01X4974Y15734D01*
G01X5014Y15753D01*
G01X5058Y15767D01*
G01X5105Y15775D01*
G01X5156Y15778D01*
G01X5197Y15775D01*
G01X5235Y15769D01*
G01X5268Y15757D01*
G01X5299Y15741D01*
G01X5325Y15721D01*
G01X5348Y15696D01*
G01X5368Y15667D01*
G01X5384Y15633D01*
G01X5396Y15594D01*
G01X5405Y15551D01*
G01X5411Y15504D01*
G01X5412Y15451D01*
G01X5412Y15395D01*
G01X5409Y15343D01*
G01X5405Y15294D01*
G01X5400Y15248D01*
G01X5393Y15206D01*
G01X5384Y15167D01*
G01X5354Y15162D01*
G01X5320Y15157D01*
G01X5282Y15153D01*
G01X5240Y15149D01*
G01X5195Y15146D01*
G01X5146Y15143D01*
G01X5093Y15141D01*
G01X5036Y15140D01*
G01X5041Y15092D01*
G01X5048Y15053D01*
G01X5058Y15020D01*
G01X5070Y14996D01*
G01X5109Y14964D01*
G01X5168Y14953D01*
G01X5218Y14957D01*
G01X5269Y14967D01*
G01X5324Y14985D01*
G01X5380Y15009D01*
G01X5388Y14978D01*
G01X5394Y14942D01*
G01X5397Y14904D01*
G01X5398Y14861D01*
G01X5378Y14810D01*
G01X5317Y14771D01*
G01X5274Y14756D01*
G01X5226Y14746D01*
G01X5173Y14740D01*
G37*

%LPC*%
G36*
G01X5040Y15379D02*
G01X5036Y15313D01*
G01X5088Y15315D01*
G01X5130Y15318D01*
G01X5163Y15324D01*
G01X5186Y15332D01*
G01X5194Y15373D01*
G01X5196Y15436D01*
G01X5193Y15512D01*
G01X5182Y15557D01*
G01X5174Y15569D01*
G01X5162Y15578D01*
G01X5147Y15584D01*
G01X5128Y15586D01*
G01X5089Y15569D01*
G01X5061Y15519D01*
G01X5052Y15482D01*
G01X5045Y15435D01*
G01X5040Y15379D01*
G37*

%LPD*%
G36*
G01X6373Y14746D02*
G01X6346Y14746D01*
G01X6323Y14748D01*
G01X6302Y14753D01*
G01X6284Y14763D01*
G01X6268Y14778D01*
G01X6244Y14817D01*
G01X6228Y14871D01*
G01X6182Y15094D01*
G01X6176Y15126D01*
G01X6170Y15162D01*
G01X6164Y15203D01*
G01X6157Y15248D01*
G01X6151Y15297D01*
G01X6144Y15351D01*
G01X6137Y15409D01*
G01X6131Y15471D01*
G01X6124Y15537D01*
G01X6116Y15607D01*
G01X6109Y15536D01*
G01X6102Y15469D01*
G01X6095Y15407D01*
G01X6088Y15349D01*
G01X6082Y15295D01*
G01X6076Y15246D01*
G01X6070Y15201D01*
G01X6065Y15161D01*
G01X6059Y15125D01*
G01X6054Y15094D01*
G01X5998Y14757D01*
G01X5948Y14753D01*
G01X5896Y14750D01*
G01X5842Y14748D01*
G01X5786Y14748D01*
G01X5766Y14750D01*
G01X5748Y14756D01*
G01X5732Y14767D01*
G01X5717Y14782D01*
G01X5694Y14821D01*
G01X5678Y14871D01*
G01X5672Y14902D01*
G01X5666Y14934D01*
G01X5659Y14969D01*
G01X5652Y15007D01*
G01X5645Y15046D01*
G01X5637Y15088D01*
G01X5629Y15133D01*
G01X5621Y15180D01*
G01X5612Y15230D01*
G01X5603Y15282D01*
G01X5594Y15336D01*
G01X5584Y15393D01*
G01X5575Y15452D01*
G01X5564Y15513D01*
G01X5553Y15585D01*
G01X5542Y15652D01*
G01X5531Y15715D01*
G01X5522Y15774D01*
G01X5513Y15829D01*
G01X5504Y15880D01*
G01X5497Y15927D01*
G01X5490Y15969D01*
G01X5483Y16008D01*
G01X5478Y16043D01*
G01X5473Y16073D01*
G01X5468Y16100D01*
G01X5468Y16105D01*
G01X5467Y16111D01*
G01X5467Y16118D01*
G01X5466Y16126D01*
G01X5467Y16134D01*
G01X5469Y16141D01*
G01X5473Y16146D01*
G01X5477Y16151D01*
G01X5484Y16154D01*
G01X5493Y16156D01*
G01X5505Y16157D01*
G01X5518Y16157D01*
G01X5704Y16157D01*
G01X5804Y15501D01*
G01X5813Y15448D01*
G01X5820Y15394D01*
G01X5827Y15342D01*
G01X5834Y15289D01*
G01X5839Y15237D01*
G01X5845Y15186D01*
G01X5850Y15134D01*
G01X5854Y15084D01*
G01X5857Y15034D01*
G01X5860Y14984D01*
G01X5876Y14984D01*
G01X5878Y15033D01*
G01X5880Y15082D01*
G01X5883Y15133D01*
G01X5887Y15184D01*
G01X5892Y15235D01*
G01X5897Y15287D01*
G01X5903Y15340D01*
G01X5910Y15393D01*
G01X5918Y15447D01*
G01X5926Y15501D01*
G01X6012Y16038D01*
G01X6015Y16053D01*
G01X6018Y16066D01*
G01X6022Y16077D01*
G01X6026Y16084D01*
G01X6033Y16090D01*
G01X6041Y16094D01*
G01X6053Y16097D01*
G01X6066Y16098D01*
G01X6222Y16098D01*
G01X6326Y15501D01*
G01X6333Y15461D01*
G01X6340Y15418D01*
G01X6346Y15373D01*
G01X6352Y15325D01*
G01X6358Y15274D01*
G01X6364Y15221D01*
G01X6369Y15165D01*
G01X6374Y15107D01*
G01X6380Y15047D01*
G01X6384Y14984D01*
G01X6400Y14984D01*
G01X6403Y15035D01*
G01X6406Y15086D01*
G01X6409Y15138D01*
G01X6413Y15189D01*
G01X6417Y15241D01*
G01X6423Y15293D01*
G01X6428Y15345D01*
G01X6434Y15397D01*
G01X6441Y15449D01*
G01X6448Y15501D01*
G01X6534Y16098D01*
G01X6537Y16113D01*
G01X6540Y16126D01*
G01X6544Y16137D01*
G01X6548Y16144D01*
G01X6555Y16150D01*
G01X6563Y16154D01*
G01X6574Y16157D01*
G01X6586Y16157D01*
G01X6780Y16157D01*
G01X6540Y14757D01*
G01X6513Y14755D01*
G01X6488Y14752D01*
G01X6464Y14750D01*
G01X6442Y14749D01*
G01X6421Y14747D01*
G01X6397Y14746D01*
G01X6373Y14746D01*
G37*

%LPC*%

%LPD*%
G36*
G01X7882Y14758D02*
G01X7836Y14757D01*
G01X7836Y15688D01*
G01X7882Y15715D01*
G01X7928Y15738D01*
G01X7974Y15755D01*
G01X8020Y15767D01*
G01X8067Y15775D01*
G01X8114Y15778D01*
G01X8180Y15772D01*
G01X8220Y15755D01*
G01X8233Y15741D01*
G01X8241Y15724D01*
G01X8247Y15703D01*
G01X8248Y15678D01*
G01X8243Y15613D01*
G01X8226Y15550D01*
G01X8210Y15557D01*
G01X8192Y15561D01*
G01X8173Y15565D01*
G01X8152Y15565D01*
G01X8142Y15565D01*
G01X8131Y15563D01*
G01X8120Y15561D01*
G01X8108Y15557D01*
G01X8097Y15553D01*
G01X8085Y15548D01*
G01X8075Y15541D01*
G01X8064Y15534D01*
G01X8062Y14798D01*
G01X8062Y14788D01*
G01X8060Y14779D01*
G01X8057Y14773D01*
G01X8052Y14769D01*
G01X8045Y14765D01*
G01X8031Y14763D01*
G01X8012Y14761D01*
G01X7987Y14759D01*
G01X7957Y14759D01*
G01X7922Y14758D01*
G01X7882Y14758D01*
G37*

%LPC*%

%LPD*%
G36*
G01X7215Y14758D02*
G01X7132Y14757D01*
G01X7132Y16117D01*
G01X7133Y16128D01*
G01X7134Y16136D01*
G01X7137Y16143D01*
G01X7140Y16149D01*
G01X7145Y16153D01*
G01X7152Y16155D01*
G01X7161Y16157D01*
G01X7172Y16157D01*
G01X7360Y16157D01*
G01X7424Y16155D01*
G01X7482Y16149D01*
G01X7533Y16137D01*
G01X7578Y16121D01*
G01X7618Y16100D01*
G01X7652Y16072D01*
G01X7682Y16037D01*
G01X7706Y15996D01*
G01X7720Y15964D01*
G01X7731Y15928D01*
G01X7739Y15888D01*
G01X7746Y15844D01*
G01X7749Y15797D01*
G01X7750Y15746D01*
G01X7749Y15686D01*
G01X7744Y15631D01*
G01X7735Y15580D01*
G01X7724Y15534D01*
G01X7709Y15494D01*
G01X7690Y15457D01*
G01X7669Y15425D01*
G01X7643Y15398D01*
G01X7606Y15367D01*
G01X7566Y15342D01*
G01X7522Y15323D01*
G01X7475Y15309D01*
G01X7424Y15300D01*
G01X7370Y15298D01*
G01X7354Y15298D01*
G01X7354Y14798D01*
G01X7354Y14788D01*
G01X7352Y14779D01*
G01X7349Y14773D01*
G01X7344Y14769D01*
G01X7337Y14765D01*
G01X7323Y14763D01*
G01X7304Y14761D01*
G01X7279Y14759D01*
G01X7215Y14758D01*
G37*

%LPC*%
G36*
G01X7354Y15965D02*
G01X7354Y15503D01*
G01X7396Y15503D01*
G01X7442Y15517D01*
G01X7474Y15559D01*
G01X7486Y15594D01*
G01X7494Y15641D01*
G01X7499Y15701D01*
G01X7500Y15774D01*
G01X7495Y15859D01*
G01X7479Y15919D01*
G01X7467Y15939D01*
G01X7452Y15954D01*
G01X7433Y15963D01*
G01X7410Y15965D01*
G01X7354Y15965D01*
G37*

%LPD*%
G36*
G01X3950Y14758D02*
G01X3870Y14757D01*
G01X3870Y16117D01*
G01X3871Y16130D01*
G01X3873Y16139D01*
G01X3876Y16146D01*
G01X3880Y16151D01*
G01X3886Y16154D01*
G01X3893Y16156D01*
G01X3901Y16157D01*
G01X3910Y16157D01*
G01X4078Y16157D01*
G01X4238Y15661D01*
G01X4261Y15590D01*
G01X4277Y15530D01*
G01X4283Y15504D01*
G01X4288Y15484D01*
G01X4291Y15469D01*
G01X4292Y15459D01*
G01X4294Y15469D01*
G01X4297Y15484D01*
G01X4301Y15504D01*
G01X4306Y15530D01*
G01X4321Y15590D01*
G01X4340Y15657D01*
G01X4478Y16117D01*
G01X4482Y16128D01*
G01X4486Y16138D01*
G01X4490Y16144D01*
G01X4493Y16150D01*
G01X4498Y16153D01*
G01X4503Y16155D01*
G01X4510Y16157D01*
G01X4518Y16157D01*
G01X4704Y16157D01*
G01X4704Y14798D01*
G01X4704Y14788D01*
G01X4702Y14779D01*
G01X4699Y14773D01*
G01X4694Y14769D01*
G01X4687Y14765D01*
G01X4673Y14763D01*
G01X4653Y14761D01*
G01X4628Y14759D01*
G01X4598Y14759D01*
G01X4562Y14758D01*
G01X4522Y14758D01*
G01X4476Y14757D01*
G01X4486Y15142D01*
G01X4488Y15189D01*
G01X4490Y15235D01*
G01X4493Y15281D01*
G01X4496Y15327D01*
G01X4499Y15372D01*
G01X4503Y15417D01*
G01X4510Y15480D01*
G01X4516Y15537D01*
G01X4522Y15588D01*
G01X4528Y15634D01*
G01X4538Y15702D01*
G01X4544Y15740D01*
G01X4538Y15744D01*
G01X4521Y15674D01*
G01X4504Y15610D01*
G01X4489Y15553D01*
G01X4476Y15503D01*
G01X4464Y15461D01*
G01X4453Y15424D01*
G01X4444Y15394D01*
G01X4436Y15371D01*
G01X4340Y15105D01*
G01X4338Y15100D01*
G01X4333Y15095D01*
G01X4327Y15092D01*
G01X4318Y15092D01*
G01X4226Y15092D01*
G01X4132Y15371D01*
G01X4125Y15396D01*
G01X4116Y15426D01*
G01X4106Y15463D01*
G01X4094Y15507D01*
G01X4081Y15556D01*
G01X4067Y15612D01*
G01X4051Y15675D01*
G01X4034Y15744D01*
G01X4028Y15740D01*
G01X4035Y15702D01*
G01X4045Y15634D01*
G01X4052Y15590D01*
G01X4058Y15539D01*
G01X4065Y15482D01*
G01X4071Y15419D01*
G01X4075Y15375D01*
G01X4078Y15330D01*
G01X4081Y15284D01*
G01X4083Y15238D01*
G01X4084Y15191D01*
G01X4084Y15144D01*
G01X4090Y14798D01*
G01X4090Y14788D01*
G01X4087Y14779D01*
G01X4084Y14773D01*
G01X4078Y14769D01*
G01X4070Y14765D01*
G01X4056Y14763D01*
G01X4037Y14761D01*
G01X4012Y14759D01*
G01X3950Y14758D01*
G37*

%LPC*%

%LPD*%

%LPD*%
G36*
G01X10392Y15590D02*
G01X10374Y15588D01*
G01X10352Y15590D01*
G01X10334Y15594D01*
G01X10319Y15600D01*
G01X10308Y15609D01*
G01X10299Y15621D01*
G01X10293Y15636D01*
G01X10290Y15654D01*
G01X10289Y15675D01*
G01X10290Y15692D01*
G01X10294Y15708D01*
G01X10302Y15722D01*
G01X10312Y15736D01*
G01X10324Y15746D01*
G01X10339Y15754D01*
G01X10355Y15759D01*
G01X10374Y15761D01*
G01X10395Y15759D01*
G01X10412Y15755D01*
G01X10427Y15748D01*
G01X10439Y15738D01*
G01X10447Y15726D01*
G01X10453Y15711D01*
G01X10457Y15694D01*
G01X10458Y15675D01*
G01X10456Y15657D01*
G01X10452Y15641D01*
G01X10445Y15627D01*
G01X10436Y15613D01*
G01X10423Y15603D01*
G01X10409Y15595D01*
G01X10392Y15590D01*
G37*

%LPC*%

%LPD*%
G36*
G01X9516Y15590D02*
G01X9498Y15588D01*
G01X9476Y15590D01*
G01X9458Y15594D01*
G01X9443Y15600D01*
G01X9432Y15609D01*
G01X9423Y15621D01*
G01X9417Y15636D01*
G01X9414Y15654D01*
G01X9413Y15675D01*
G01X9414Y15692D01*
G01X9418Y15708D01*
G01X9426Y15722D01*
G01X9436Y15736D01*
G01X9448Y15746D01*
G01X9463Y15754D01*
G01X9479Y15759D01*
G01X9498Y15761D01*
G01X9519Y15759D01*
G01X9536Y15755D01*
G01X9551Y15748D01*
G01X9563Y15738D01*
G01X9571Y15726D01*
G01X9577Y15711D01*
G01X9581Y15694D01*
G01X9582Y15675D01*
G01X9580Y15657D01*
G01X9576Y15641D01*
G01X9569Y15627D01*
G01X9560Y15613D01*
G01X9547Y15603D01*
G01X9533Y15595D01*
G01X9516Y15590D01*
G37*

%LPC*%

%LPD*%
G36*
G01X9260Y15592D02*
G01X9231Y15592D01*
G01X9196Y15607D01*
G01X9176Y15651D01*
G01X9073Y16157D01*
G01X9072Y16164D01*
G01X9071Y16169D01*
G01X9071Y16173D01*
G01X9071Y16176D01*
G01X9071Y16181D01*
G01X9073Y16185D01*
G01X9076Y16188D01*
G01X9081Y16190D01*
G01X9088Y16192D01*
G01X9098Y16194D01*
G01X9111Y16196D01*
G01X9128Y16196D01*
G01X9147Y16197D01*
G01X9168Y16197D01*
G01X9192Y16198D01*
G01X9218Y16198D01*
G01X9241Y16024D01*
G01X9245Y15989D01*
G01X9249Y15951D01*
G01X9253Y15909D01*
G01X9257Y15863D01*
G01X9262Y15783D01*
G01X9265Y15736D01*
G01X9267Y15736D01*
G01X9270Y15783D01*
G01X9276Y15863D01*
G01X9279Y15910D01*
G01X9283Y15952D01*
G01X9287Y15990D01*
G01X9291Y16025D01*
G01X9308Y16171D01*
G01X9309Y16178D01*
G01X9311Y16183D01*
G01X9314Y16188D01*
G01X9317Y16190D01*
G01X9321Y16192D01*
G01X9328Y16194D01*
G01X9337Y16196D01*
G01X9348Y16196D01*
G01X9385Y16197D01*
G01X9449Y16198D01*
G01X9328Y15598D01*
G01X9309Y15595D01*
G01X9287Y15593D01*
G01X9260Y15592D01*
G37*

%LPC*%

%LPD*%
G36*
G01X10914Y15598D02*
G01X10513Y15598D01*
G01X10511Y15620D01*
G01X10510Y15642D01*
G01X10509Y15663D01*
G01X10509Y15684D01*
G01X10511Y15695D01*
G01X10517Y15703D01*
G01X10528Y15710D01*
G01X10544Y15715D01*
G01X10590Y15721D01*
G01X10663Y15723D01*
G01X10674Y16182D01*
G01X10654Y16181D01*
G01X10635Y16180D01*
G01X10618Y16178D01*
G01X10601Y16176D01*
G01X10586Y16173D01*
G01X10574Y16171D01*
G01X10559Y16167D01*
G01X10550Y16186D01*
G01X10543Y16206D01*
G01X10539Y16227D01*
G01X10538Y16249D01*
G01X10541Y16256D01*
G01X10549Y16263D01*
G01X10564Y16270D01*
G01X10584Y16278D01*
G01X10634Y16292D01*
G01X10691Y16305D01*
G01X10719Y16311D01*
G01X10743Y16315D01*
G01X10764Y16317D01*
G01X10782Y16317D01*
G01X10786Y16317D01*
G01X10791Y16317D01*
G01X10796Y16317D01*
G01X10807Y16315D01*
G01X10811Y16313D01*
G01X10814Y16312D01*
G01X10817Y16311D01*
G01X10802Y15723D01*
G01X10869Y15723D01*
G01X10880Y15723D01*
G01X10891Y15723D01*
G01X10903Y15723D01*
G01X10914Y15724D01*
G01X10924Y15725D01*
G01X10932Y15725D01*
G01X10939Y15726D01*
G01X10943Y15726D01*
G01X10943Y15700D01*
G01X10942Y15677D01*
G01X10942Y15658D01*
G01X10941Y15644D01*
G01X10940Y15632D01*
G01X10938Y15622D01*
G01X10936Y15615D01*
G01X10934Y15609D01*
G01X10930Y15604D01*
G01X10926Y15600D01*
G01X10920Y15598D01*
G01X10914Y15598D01*
G37*

%LPC*%

%LPD*%
G36*
G01X10206Y15598D02*
G01X9809Y15598D01*
G01X9807Y15605D01*
G01X9805Y15614D01*
G01X9804Y15624D01*
G01X9803Y15634D01*
G01X9804Y15650D01*
G01X9805Y15663D01*
G01X9807Y15676D01*
G01X9809Y15686D01*
G01X9813Y15697D01*
G01X9818Y15709D01*
G01X9826Y15724D01*
G01X9835Y15740D01*
G01X9858Y15780D01*
G01X9888Y15823D01*
G01X9922Y15871D01*
G01X9963Y15925D01*
G01X10012Y15990D01*
G01X10046Y16042D01*
G01X10058Y16063D01*
G01X10066Y16084D01*
G01X10071Y16105D01*
G01X10073Y16126D01*
G01X10071Y16140D01*
G01X10068Y16153D01*
G01X10061Y16164D01*
G01X10053Y16174D01*
G01X10042Y16181D01*
G01X10030Y16186D01*
G01X10017Y16190D01*
G01X10002Y16190D01*
G01X9983Y16190D01*
G01X9963Y16188D01*
G01X9942Y16184D01*
G01X9919Y16180D01*
G01X9896Y16174D01*
G01X9876Y16167D01*
G01X9858Y16160D01*
G01X9843Y16153D01*
G01X9831Y16196D01*
G01X9827Y16251D01*
G01X9831Y16264D01*
G01X9843Y16276D01*
G01X9864Y16287D01*
G01X9893Y16298D01*
G01X9927Y16306D01*
G01X9964Y16313D01*
G01X10002Y16316D01*
G01X10043Y16317D01*
G01X10088Y16315D01*
G01X10127Y16307D01*
G01X10159Y16294D01*
G01X10184Y16276D01*
G01X10215Y16223D01*
G01X10226Y16149D01*
G01X10218Y16086D01*
G01X10194Y16026D01*
G01X10176Y15996D01*
G01X10153Y15961D01*
G01X10125Y15923D01*
G01X10093Y15880D01*
G01X10057Y15833D01*
G01X10027Y15791D01*
G01X10001Y15754D01*
G01X9981Y15723D01*
G01X10073Y15723D01*
G01X10131Y15724D01*
G01X10185Y15728D01*
G01X10223Y15733D01*
G01X10233Y15735D01*
G01X10236Y15736D01*
G01X10236Y15706D01*
G01X10235Y15682D01*
G01X10235Y15662D01*
G01X10234Y15646D01*
G01X10232Y15634D01*
G01X10231Y15624D01*
G01X10228Y15615D01*
G01X10226Y15609D01*
G01X10222Y15604D01*
G01X10218Y15600D01*
G01X10212Y15598D01*
G01X10206Y15598D01*
G37*

%LPC*%

%LPD*%
G54D19*
G01X2031Y898D03*
G54D20*
G01X2031Y3378D03*
G01X1125Y3378D03*
G01X2936Y3378D03*
G54D21*
G01X20741Y2153D03*
G01X21241Y2153D03*
G01X21741Y2153D03*
G01X22241Y2153D03*
G01X22241Y5303D03*
G01X21741Y5303D03*
G01X21241Y5303D03*
G01X20741Y5303D03*
G54D22*
G01X21491Y3728D03*
G54D23*
G01X2044Y8186D03*
G01X2044Y8442D03*
G01X2044Y8697D03*
G01X2044Y8954D03*
G01X2044Y9210D03*
G54D24*
G01X2044Y9603D03*
G01X2044Y7792D03*
G54D25*
G01X1237Y5497D03*
G01X1867Y5497D03*
G01X3325Y5498D03*
G01X2695Y5498D03*
G01X3837Y9197D03*
G01X4467Y9197D03*
G01X3837Y8397D03*
G01X4467Y8397D03*
G54D26*
G01X3330Y6892D03*
G01X3330Y6261D03*
G54D25*
G01X11225Y8898D03*
G01X10595Y8898D03*
G54D26*
G01X7931Y2703D03*
G01X7931Y3334D03*
G01X17531Y4103D03*
G01X17531Y4734D03*
G54D27*
G01X18731Y4448D03*
G01X18731Y2748D03*
G54D26*
G01X17530Y3392D03*
G01X17530Y2761D03*
G54D25*
G01X18137Y5197D03*
G01X18767Y5197D03*
G01X4025Y9998D03*
G01X3395Y9998D03*
G01X3725Y10798D03*
G01X3095Y10798D03*
G01X3725Y11598D03*
G01X3095Y11598D03*
G01X3725Y12338D03*
G01X3095Y12338D03*
G54D28*
G01X6431Y3405D03*
G01X6057Y4390D03*
G01X6805Y4390D03*
G54D26*
G01X6831Y2003D03*
G01X6831Y2634D03*
G54D25*
G01X3837Y697D03*
G01X4467Y697D03*
G54D29*
G01X5731Y798D03*
G01X5731Y2057D03*
G54D26*
G01X9760Y8921D03*
G01X9760Y8292D03*
G01X16731Y4103D03*
G01X16731Y4734D03*
G54D25*
G01X22335Y9498D03*
G01X21705Y9498D03*
G54D26*
G01X16731Y6003D03*
G01X16731Y6634D03*
G54D25*
G01X21405Y5978D03*
G01X20775Y5978D03*
G01X15195Y8808D03*
G01X14565Y8808D03*
G54D26*
G01X16731Y2803D03*
G01X16731Y3434D03*
G54D25*
G01X7937Y1997D03*
G01X8567Y1997D03*
G01X14837Y1097D03*
G01X15467Y1097D03*
G54D26*
G01X4331Y2003D03*
G01X4331Y2634D03*
G54D29*
G01X4331Y5398D03*
G01X4331Y4138D03*
G54D26*
G01X20470Y8092D03*
G01X20470Y7461D03*
G01X21251Y7484D03*
G01X21251Y8113D03*
G54D30*
G01X2119Y12236D03*
G01X2121Y12828D03*
G01X2121Y13418D03*
G54D31*
G01X526Y11258D03*
G54D30*
G01X2121Y14003D03*
G01X2120Y14598D03*
G01X2120Y15189D03*
G54D31*
G01X543Y16177D03*
G54D32*
G01X10791Y10498D03*
G01X10791Y10757D03*
G01X10791Y11007D03*
G01X10791Y11267D03*
G01X10791Y11528D03*
G01X10791Y11778D03*
G01X10791Y12038D03*
G01X10791Y12288D03*
G01X8511Y12288D03*
G01X8511Y12038D03*
G01X8511Y11778D03*
G01X8511Y11528D03*
G01X8511Y11267D03*
G01X8511Y11007D03*
G01X8511Y10757D03*
G01X8511Y10498D03*
G54D33*
G01X15602Y2586D03*
G01X15602Y2786D03*
G01X15602Y2976D03*
G01X15602Y3176D03*
G01X15602Y3376D03*
G01X15602Y3566D03*
G01X15602Y3766D03*
G01X15602Y3966D03*
G01X15602Y4156D03*
G01X15602Y4356D03*
G01X15602Y4556D03*
G01X15602Y4746D03*
G01X15602Y4946D03*
G01X15602Y5146D03*
G01X15602Y5336D03*
G01X15602Y5536D03*
G01X15602Y5736D03*
G01X15602Y5926D03*
G01X15602Y6126D03*
G01X15602Y6326D03*
G01X15602Y6526D03*
G01X15602Y6716D03*
G01X15602Y6916D03*
G01X15602Y7116D03*
G01X15602Y7306D03*
G54D34*
G01X14992Y7916D03*
G01X14792Y7916D03*
G01X14602Y7916D03*
G01X14402Y7916D03*
G01X14202Y7916D03*
G01X14012Y7916D03*
G01X13812Y7916D03*
G01X13612Y7916D03*
G01X13422Y7916D03*
G01X13222Y7916D03*
G01X13022Y7916D03*
G01X12832Y7916D03*
G01X12632Y7916D03*
G01X12432Y7916D03*
G01X12242Y7916D03*
G01X12042Y7916D03*
G01X11842Y7916D03*
G01X11652Y7916D03*
G01X11452Y7916D03*
G01X11252Y7916D03*
G01X11052Y7916D03*
G01X10862Y7916D03*
G01X10662Y7916D03*
G01X10462Y7916D03*
G01X10272Y7916D03*
G54D33*
G01X9662Y7306D03*
G01X9662Y7116D03*
G01X9662Y6916D03*
G01X9662Y6716D03*
G01X9662Y6526D03*
G01X9662Y6326D03*
G01X9662Y6126D03*
G01X9662Y5926D03*
G01X9662Y5736D03*
G01X9662Y5536D03*
G01X9662Y5336D03*
G01X9662Y5146D03*
G01X9662Y4946D03*
G01X9662Y4746D03*
G01X9662Y4556D03*
G01X9662Y4356D03*
G01X9662Y4156D03*
G01X9662Y3966D03*
G01X9662Y3766D03*
G01X9662Y3566D03*
G01X9662Y3376D03*
G01X9662Y3176D03*
G01X9662Y2976D03*
G01X9662Y2786D03*
G01X9662Y2586D03*
G54D34*
G01X10272Y1976D03*
G01X10462Y1976D03*
G01X10662Y1976D03*
G01X10862Y1976D03*
G01X11052Y1976D03*
G01X11252Y1976D03*
G01X11452Y1976D03*
G01X11652Y1976D03*
G01X11842Y1976D03*
G01X12042Y1976D03*
G01X12242Y1976D03*
G01X12432Y1976D03*
G01X12632Y1976D03*
G01X12832Y1976D03*
G01X13022Y1976D03*
G01X13222Y1976D03*
G01X13422Y1976D03*
G01X13612Y1976D03*
G01X13812Y1976D03*
G01X14012Y1976D03*
G01X14202Y1976D03*
G01X14402Y1976D03*
G01X14602Y1976D03*
G01X14792Y1976D03*
G01X14992Y1976D03*
G54D35*
G01X14501Y11857D03*
G01X14501Y12217D03*
G54D36*
G01X14361Y12867D03*
G01X14721Y12867D03*
G54D37*
G01X20000Y15911D03*
G36*
G01X15039Y15038D02*
G01X15039Y15352D01*
G01X15826Y15352D01*
G01X15826Y15038D01*
G01X15039Y15038D01*
G37*
G01X20000Y10345D03*
G01X19409Y10345D03*
G01X19409Y15911D03*
G01X18818Y15911D03*
G01X18818Y10345D03*
G01X18228Y10345D03*
G01X18228Y15911D03*
G01X17637Y15911D03*
G01X17637Y10345D03*
G01X17047Y10345D03*
G01X17047Y15911D03*
G01X16456Y15911D03*
G01X16456Y10345D03*
G01X15866Y10345D03*
G01X15866Y15911D03*
G36*
G01X15039Y14447D02*
G01X15039Y14762D01*
G01X15826Y14762D01*
G01X15826Y14447D01*
G01X15039Y14447D01*
G37*
G36*
G01X15039Y13856D02*
G01X15039Y14171D01*
G01X15826Y14171D01*
G01X15826Y13856D01*
G01X15039Y13856D01*
G37*
G36*
G01X15039Y13266D02*
G01X15039Y13581D01*
G01X15826Y13581D01*
G01X15826Y13266D01*
G01X15039Y13266D01*
G37*
G36*
G01X15039Y12675D02*
G01X15039Y12990D01*
G01X15826Y12990D01*
G01X15826Y12675D01*
G01X15039Y12675D01*
G37*
G36*
G01X15039Y12085D02*
G01X15039Y12400D01*
G01X15826Y12400D01*
G01X15826Y12085D01*
G01X15039Y12085D01*
G37*
G36*
G01X15039Y11494D02*
G01X15039Y11809D01*
G01X15826Y11809D01*
G01X15826Y11494D01*
G01X15039Y11494D01*
G37*
G36*
G01X15039Y10904D02*
G01X15039Y11219D01*
G01X15826Y11219D01*
G01X15826Y10904D01*
G01X15039Y10904D01*
G37*
G54D18*
G01X2631Y4598D03*
G01X5531Y4398D03*
G01X1631Y4698D03*
G01X3031Y9598D03*
G01X3431Y4098D03*
G01X2031Y4098D03*
G01X3931Y7798D03*
G01X4531Y9998D03*
G01X4231Y10798D03*
G01X4231Y11198D03*
G01X4211Y11738D03*
G01X4831Y7898D03*
G01X3331Y9298D03*
G01X5031Y5098D03*
G01X5131Y2798D03*
G01X2695Y8133D03*
G01X2161Y11867D03*
G01X8331Y4498D03*
G01X7431Y4498D03*
G01X4631Y6298D03*
G01X7331Y2798D03*
G01X4131Y1298D03*
G01X8231Y1498D03*
G01X14331Y998D03*
G01X13831Y498D03*
G01X16291Y4798D03*
G01X17531Y2298D03*
G01X17131Y4398D03*
G01X17131Y3698D03*
G01X17131Y2298D03*
G01X15941Y1407D03*
G01X16451Y5167D03*
G01X18211Y3967D03*
G01X15831Y498D03*
G01X14521Y5138D03*
G01X19791Y4567D03*
G01X21941Y5838D03*
G01X22791Y5848D03*
G01X21951Y6528D03*
G01X22551Y6838D03*
G01X14331Y5428D03*
G01X19981Y4328D03*
G01X14691Y9217D03*
G01X15291Y8238D03*
G01X15101Y9217D03*
G01X16241Y6007D03*
G01X7841Y8528D03*
G01X11761Y10767D03*
G01X6911Y638D03*
G01X9211Y1857D03*
G01X9931Y2228D03*
G01X11131Y3178D03*
G01X21241Y1717D03*
G01X22391Y6528D03*
G01X18271Y1778D03*
G01X14021Y3167D03*
G01X10391Y6107D03*
G01X10311Y5757D03*
G01X10951Y5917D03*
G01X11201Y5657D03*
G01X9341Y7788D03*
G01X9001Y7728D03*
G01X10611Y3388D03*
G01X8961Y4007D03*
G01X10611Y3817D03*
G01X8961Y4407D03*
G01X3371Y14657D03*
G01X2851Y14638D03*
G01X14511Y4788D03*
G01X8951Y4978D03*
G01X3571Y14348D03*
G01X2881Y14307D03*
G01X13931Y3857D03*
G01X8531Y5438D03*
G01X13721Y4107D03*
G01X8531Y5807D03*
G01X3761Y13857D03*
G01X2891Y13707D03*
G01X5011Y12902D03*
G01X3371Y12978D03*
G01X20131Y6028D03*
G01X22731Y7867D03*
G01X12951Y7228D03*
G01X15661Y7907D03*
G01X17881Y5978D03*
G01X18221Y10988D03*
G01X13741Y1148D03*
G01X18741Y11257D03*
G01X12351Y7307D03*
G01X12881Y6857D03*
G01X14641Y10317D03*
G01X14171Y10198D03*
G01X14281Y7198D03*
G01X13891Y7198D03*
G01X14991Y10357D03*
G01X15431Y10398D03*
G01X14441Y11078D03*
G01X17041Y11017D03*
G01X14801Y11317D03*
G01X17621Y11017D03*
G01X21841Y7578D03*
G01X20461Y8607D03*
G01X20861Y8628D03*
G01X14361Y13857D03*
G01X14371Y13338D03*
G01X18761Y8288D03*
G01X18121Y9617D03*
G01X20381Y9157D03*
G01X18681Y9528D03*
G01X10691Y4967D03*
G01X11721Y5078D03*
G01X9251Y11338D03*
G01X9261Y11028D03*
G01X9251Y10707D03*
G01X9251Y10378D03*
G01X8451Y9007D03*
G01X8031Y9017D03*
G01X10021Y12107D03*
G01X13381Y10028D03*
G01X13061Y8528D03*
G01X14931Y5807D03*
G01X8301Y438D03*
G01X9181Y1157D03*
G54D38*
G01X820Y6690D02*
G01X347Y6690D01*
G01X820Y10705D02*
G01X347Y10705D01*
G01X2277Y10705D02*
G01X1804Y10705D01*
G01X2277Y6690D02*
G01X1804Y6690D01*
M00*
M02*
