; Drill file
; Format: 2.4 (00.0000)
M48
INCH
T01C0.02
T02C0.039
T03C0.049
T04C0.083
T05C0.098
%
G05
G90
T01
X002440Y000810
X002090Y002780
X002090Y003090
X002470Y003870
X002410Y004840
X006660Y003780
X007690Y002690
X006560Y001940
X008750Y001370
X009220Y000900
X009860Y001710
X010160Y001810
X010530Y002030
X011480Y002620
X011810Y002840
X011840Y003150
X011420Y003930
X012910Y003530
X012560Y005210
X015060Y003430
X016720Y003840
X017630Y005280
X016720Y001960
X017910Y001340
X013280Y001810
X009570Y003590
X009000Y004400
X008970Y005090
X004560Y000370
T02
X014430Y001960
X014430Y003870
T03
X019440Y000910
X019440Y001910
X019440Y002910
X019440Y003910
X019440Y004910
T04
X000630Y002030
X000630Y003840
T05
X000630Y000590
X000630Y005280
M30
