%FSLAX32Y32*%
%MOMM*%
%LNLOETSTOP1*%
G71*
G01*
%ADD10C, 0.00*%
%ADD11C, 3.00*%
%ADD12C, 2.80*%
%ADD13C, 2.30*%
%ADD14C, 2.30*%
%LPD*%
G36*
X2163Y1156D02*
X2183Y1176D01*
X2183Y1316D01*
X2163Y1336D01*
X2003Y1336D01*
X1983Y1316D01*
X1983Y1176D01*
X2003Y1156D01*
X2163Y1156D01*
G37*
G54D10*
X2163Y1156D02*
X2183Y1176D01*
X2183Y1316D01*
X2163Y1336D01*
X2003Y1336D01*
X1983Y1316D01*
X1983Y1176D01*
X2003Y1156D01*
X2163Y1156D01*
G36*
X1393Y1156D02*
X1413Y1176D01*
X1413Y1316D01*
X1393Y1336D01*
X1233Y1336D01*
X1213Y1316D01*
X1213Y1176D01*
X1233Y1156D01*
X1393Y1156D01*
G37*
G54D10*
X1393Y1156D02*
X1413Y1176D01*
X1413Y1316D01*
X1393Y1336D01*
X1233Y1336D01*
X1213Y1316D01*
X1213Y1176D01*
X1233Y1156D01*
X1393Y1156D01*
G36*
X2039Y1221D02*
X2039Y1271D01*
X2089Y1271D01*
X2089Y1221D01*
X2039Y1221D01*
G37*
G36*
X1309Y1221D02*
X1309Y1271D01*
X1359Y1271D01*
X1359Y1221D01*
X1309Y1221D01*
G37*
G36*
X2163Y140D02*
X2183Y160D01*
X2183Y300D01*
X2163Y320D01*
X2003Y320D01*
X1983Y300D01*
X1983Y160D01*
X2003Y140D01*
X2163Y140D01*
G37*
G54D10*
X2163Y140D02*
X2183Y160D01*
X2183Y300D01*
X2163Y320D01*
X2003Y320D01*
X1983Y300D01*
X1983Y160D01*
X2003Y140D01*
X2163Y140D01*
G36*
X1393Y140D02*
X1413Y160D01*
X1413Y300D01*
X1393Y320D01*
X1233Y320D01*
X1213Y300D01*
X1213Y160D01*
X1233Y140D01*
X1393Y140D01*
G37*
G54D10*
X1393Y140D02*
X1413Y160D01*
X1413Y300D01*
X1393Y320D01*
X1233Y320D01*
X1213Y300D01*
X1213Y160D01*
X1233Y140D01*
X1393Y140D01*
G36*
X2039Y205D02*
X2039Y255D01*
X2089Y255D01*
X2089Y205D01*
X2039Y205D01*
G37*
G36*
X1309Y205D02*
X1309Y255D01*
X1359Y255D01*
X1359Y205D01*
X1309Y205D01*
G37*
G36*
X3465Y1156D02*
X3485Y1176D01*
X3485Y1316D01*
X3465Y1336D01*
X3305Y1336D01*
X3285Y1316D01*
X3285Y1176D01*
X3305Y1156D01*
X3465Y1156D01*
G37*
G54D10*
X3465Y1156D02*
X3485Y1176D01*
X3485Y1316D01*
X3465Y1336D01*
X3305Y1336D01*
X3285Y1316D01*
X3285Y1176D01*
X3305Y1156D01*
X3465Y1156D01*
G36*
X2695Y1156D02*
X2715Y1176D01*
X2715Y1316D01*
X2695Y1336D01*
X2535Y1336D01*
X2515Y1316D01*
X2515Y1176D01*
X2535Y1156D01*
X2695Y1156D01*
G37*
G54D10*
X2695Y1156D02*
X2715Y1176D01*
X2715Y1316D01*
X2695Y1336D01*
X2535Y1336D01*
X2515Y1316D01*
X2515Y1176D01*
X2535Y1156D01*
X2695Y1156D01*
G36*
X3340Y1221D02*
X3340Y1271D01*
X3390Y1271D01*
X3390Y1221D01*
X3340Y1221D01*
G37*
G36*
X2610Y1221D02*
X2610Y1271D01*
X2660Y1271D01*
X2660Y1221D01*
X2610Y1221D01*
G37*
G36*
X3465Y140D02*
X3485Y160D01*
X3485Y300D01*
X3465Y320D01*
X3305Y320D01*
X3285Y300D01*
X3285Y160D01*
X3305Y140D01*
X3465Y140D01*
G37*
G54D10*
X3465Y140D02*
X3485Y160D01*
X3485Y300D01*
X3465Y320D01*
X3305Y320D01*
X3285Y300D01*
X3285Y160D01*
X3305Y140D01*
X3465Y140D01*
G36*
X2695Y140D02*
X2715Y160D01*
X2715Y300D01*
X2695Y320D01*
X2535Y320D01*
X2515Y300D01*
X2515Y160D01*
X2535Y140D01*
X2695Y140D01*
G37*
G54D10*
X2695Y140D02*
X2715Y160D01*
X2715Y300D01*
X2695Y320D01*
X2535Y320D01*
X2515Y300D01*
X2515Y160D01*
X2535Y140D01*
X2695Y140D01*
G36*
X3340Y205D02*
X3340Y255D01*
X3390Y255D01*
X3390Y205D01*
X3340Y205D01*
G37*
G36*
X2610Y205D02*
X2610Y255D01*
X2660Y255D01*
X2660Y205D01*
X2610Y205D01*
G37*
G36*
X4767Y1156D02*
X4787Y1176D01*
X4787Y1316D01*
X4767Y1336D01*
X4607Y1336D01*
X4587Y1316D01*
X4587Y1176D01*
X4607Y1156D01*
X4767Y1156D01*
G37*
G54D10*
X4767Y1156D02*
X4787Y1176D01*
X4787Y1316D01*
X4767Y1336D01*
X4607Y1336D01*
X4587Y1316D01*
X4587Y1176D01*
X4607Y1156D01*
X4767Y1156D01*
G36*
X3997Y1156D02*
X4017Y1176D01*
X4017Y1316D01*
X3997Y1336D01*
X3837Y1336D01*
X3817Y1316D01*
X3817Y1176D01*
X3837Y1156D01*
X3997Y1156D01*
G37*
G54D10*
X3997Y1156D02*
X4017Y1176D01*
X4017Y1316D01*
X3997Y1336D01*
X3837Y1336D01*
X3817Y1316D01*
X3817Y1176D01*
X3837Y1156D01*
X3997Y1156D01*
G36*
X4642Y1221D02*
X4642Y1271D01*
X4692Y1271D01*
X4692Y1221D01*
X4642Y1221D01*
G37*
G36*
X3912Y1221D02*
X3912Y1271D01*
X3962Y1271D01*
X3962Y1221D01*
X3912Y1221D01*
G37*
G36*
X4767Y140D02*
X4787Y160D01*
X4787Y300D01*
X4767Y320D01*
X4607Y320D01*
X4587Y300D01*
X4587Y160D01*
X4607Y140D01*
X4767Y140D01*
G37*
G54D10*
X4767Y140D02*
X4787Y160D01*
X4787Y300D01*
X4767Y320D01*
X4607Y320D01*
X4587Y300D01*
X4587Y160D01*
X4607Y140D01*
X4767Y140D01*
G36*
X3997Y140D02*
X4017Y160D01*
X4017Y300D01*
X3997Y320D01*
X3837Y320D01*
X3817Y300D01*
X3817Y160D01*
X3837Y140D01*
X3997Y140D01*
G37*
G54D10*
X3997Y140D02*
X4017Y160D01*
X4017Y300D01*
X3997Y320D01*
X3837Y320D01*
X3817Y300D01*
X3817Y160D01*
X3837Y140D01*
X3997Y140D01*
G36*
X4642Y205D02*
X4642Y255D01*
X4692Y255D01*
X4692Y205D01*
X4642Y205D01*
G37*
G36*
X3912Y205D02*
X3912Y255D01*
X3962Y255D01*
X3962Y205D01*
X3912Y205D01*
G37*
G36*
X320Y888D02*
X455Y888D01*
X455Y808D01*
X320Y808D01*
X320Y888D01*
G37*
X159Y1341D02*
G54D11*
D03*
X159Y151D02*
G54D11*
D03*
X159Y976D02*
G54D12*
D03*
X159Y516D02*
G54D12*
D03*
G36*
X320Y688D02*
X455Y688D01*
X455Y608D01*
X320Y608D01*
X320Y688D01*
G37*
G36*
X321Y1135D02*
X456Y1135D01*
X456Y1055D01*
X321Y1055D01*
X321Y1135D01*
G37*
G36*
X321Y437D02*
X456Y437D01*
X456Y357D01*
X321Y357D01*
X321Y437D01*
G37*
X4937Y1246D02*
G54D13*
D03*
X4937Y992D02*
G54D13*
D03*
X4937Y738D02*
G54D13*
D03*
X4937Y484D02*
G54D13*
D03*
G36*
X705Y1300D02*
X835Y1300D01*
X835Y1160D01*
X705Y1160D01*
X705Y1300D01*
G37*
G36*
X895Y1300D02*
X1025Y1300D01*
X1025Y1160D01*
X895Y1160D01*
X895Y1300D01*
G37*
G36*
X705Y276D02*
X835Y276D01*
X835Y136D01*
X705Y136D01*
X705Y276D01*
G37*
G36*
X895Y276D02*
X1025Y276D01*
X1025Y136D01*
X895Y136D01*
X895Y276D01*
G37*
G36*
X723Y1036D02*
X833Y1036D01*
X833Y916D01*
X723Y916D01*
X723Y1036D01*
G37*
G36*
X893Y1036D02*
X1003Y1036D01*
X1003Y916D01*
X893Y916D01*
X893Y1036D01*
G37*
G36*
X731Y520D02*
X841Y520D01*
X841Y400D01*
X731Y400D01*
X731Y520D01*
G37*
G36*
X901Y520D02*
X1011Y520D01*
X1011Y400D01*
X901Y400D01*
X901Y520D01*
G37*
X3666Y983D02*
G54D14*
D03*
X3666Y499D02*
G54D14*
D03*
X4937Y230D02*
G54D13*
D03*
G36*
X1128Y732D02*
X1138Y722D01*
X1178Y722D01*
X1188Y732D01*
X1188Y792D01*
X1178Y802D01*
X1138Y802D01*
X1128Y792D01*
X1128Y732D01*
G37*
G54D10*
X1128Y732D02*
X1138Y722D01*
X1178Y722D01*
X1188Y732D01*
X1188Y792D01*
X1178Y802D01*
X1138Y802D01*
X1128Y792D01*
X1128Y732D01*
G36*
X1133Y787D02*
X1183Y787D01*
X1183Y737D01*
X1133Y737D01*
X1133Y787D01*
G37*
G36*
X1278Y787D02*
X1328Y787D01*
X1328Y737D01*
X1278Y737D01*
X1278Y787D01*
G37*
G36*
X1278Y732D02*
X1288Y722D01*
X1328Y722D01*
X1338Y732D01*
X1338Y792D01*
X1328Y802D01*
X1288Y802D01*
X1278Y792D01*
X1278Y732D01*
G37*
G54D10*
X1278Y732D02*
X1288Y722D01*
X1328Y722D01*
X1338Y732D01*
X1338Y792D01*
X1328Y802D01*
X1288Y802D01*
X1278Y792D01*
X1278Y732D01*
M02*
