%FSLAX32Y32*%
%MOMM*%
%LNKUPFERSEITE1*%
G71*
G01*
%ADD10C, 0.00*%
%ADD11C, 0.25*%
%ADD12C, 2.70*%
%ADD13C, 2.50*%
%ADD14C, 2.00*%
%ADD15C, 0.62*%
%ADD16C, 0.20*%
%ADD17C, 2.00*%
%ADD18C, 0.05*%
%ADD19C, 0.30*%
%LPD*%
G36*
X2163Y1156D02*
X2183Y1176D01*
X2183Y1316D01*
X2163Y1336D01*
X2003Y1336D01*
X1983Y1316D01*
X1983Y1176D01*
X2003Y1156D01*
X2163Y1156D01*
G37*
G54D10*
X2163Y1156D02*
X2183Y1176D01*
X2183Y1316D01*
X2163Y1336D01*
X2003Y1336D01*
X1983Y1316D01*
X1983Y1176D01*
X2003Y1156D01*
X2163Y1156D01*
G36*
X1393Y1156D02*
X1413Y1176D01*
X1413Y1316D01*
X1393Y1336D01*
X1233Y1336D01*
X1213Y1316D01*
X1213Y1176D01*
X1233Y1156D01*
X1393Y1156D01*
G37*
G54D10*
X1393Y1156D02*
X1413Y1176D01*
X1413Y1316D01*
X1393Y1336D01*
X1233Y1336D01*
X1213Y1316D01*
X1213Y1176D01*
X1233Y1156D01*
X1393Y1156D01*
G36*
X2039Y1221D02*
X2039Y1271D01*
X2089Y1271D01*
X2089Y1221D01*
X2039Y1221D01*
G37*
G36*
X1309Y1221D02*
X1309Y1271D01*
X1359Y1271D01*
X1359Y1221D01*
X1309Y1221D01*
G37*
G36*
X2163Y140D02*
X2183Y160D01*
X2183Y300D01*
X2163Y320D01*
X2003Y320D01*
X1983Y300D01*
X1983Y160D01*
X2003Y140D01*
X2163Y140D01*
G37*
G54D10*
X2163Y140D02*
X2183Y160D01*
X2183Y300D01*
X2163Y320D01*
X2003Y320D01*
X1983Y300D01*
X1983Y160D01*
X2003Y140D01*
X2163Y140D01*
G36*
X1393Y140D02*
X1413Y160D01*
X1413Y300D01*
X1393Y320D01*
X1233Y320D01*
X1213Y300D01*
X1213Y160D01*
X1233Y140D01*
X1393Y140D01*
G37*
G54D10*
X1393Y140D02*
X1413Y160D01*
X1413Y300D01*
X1393Y320D01*
X1233Y320D01*
X1213Y300D01*
X1213Y160D01*
X1233Y140D01*
X1393Y140D01*
G36*
X2039Y205D02*
X2039Y255D01*
X2089Y255D01*
X2089Y205D01*
X2039Y205D01*
G37*
G36*
X1309Y205D02*
X1309Y255D01*
X1359Y255D01*
X1359Y205D01*
X1309Y205D01*
G37*
G36*
X3465Y1156D02*
X3485Y1176D01*
X3485Y1316D01*
X3465Y1336D01*
X3305Y1336D01*
X3285Y1316D01*
X3285Y1176D01*
X3305Y1156D01*
X3465Y1156D01*
G37*
G54D10*
X3465Y1156D02*
X3485Y1176D01*
X3485Y1316D01*
X3465Y1336D01*
X3305Y1336D01*
X3285Y1316D01*
X3285Y1176D01*
X3305Y1156D01*
X3465Y1156D01*
G36*
X2695Y1156D02*
X2715Y1176D01*
X2715Y1316D01*
X2695Y1336D01*
X2535Y1336D01*
X2515Y1316D01*
X2515Y1176D01*
X2535Y1156D01*
X2695Y1156D01*
G37*
G54D10*
X2695Y1156D02*
X2715Y1176D01*
X2715Y1316D01*
X2695Y1336D01*
X2535Y1336D01*
X2515Y1316D01*
X2515Y1176D01*
X2535Y1156D01*
X2695Y1156D01*
G36*
X3340Y1221D02*
X3340Y1271D01*
X3390Y1271D01*
X3390Y1221D01*
X3340Y1221D01*
G37*
G36*
X2610Y1221D02*
X2610Y1271D01*
X2660Y1271D01*
X2660Y1221D01*
X2610Y1221D01*
G37*
G36*
X3465Y140D02*
X3485Y160D01*
X3485Y300D01*
X3465Y320D01*
X3305Y320D01*
X3285Y300D01*
X3285Y160D01*
X3305Y140D01*
X3465Y140D01*
G37*
G54D10*
X3465Y140D02*
X3485Y160D01*
X3485Y300D01*
X3465Y320D01*
X3305Y320D01*
X3285Y300D01*
X3285Y160D01*
X3305Y140D01*
X3465Y140D01*
G36*
X2695Y140D02*
X2715Y160D01*
X2715Y300D01*
X2695Y320D01*
X2535Y320D01*
X2515Y300D01*
X2515Y160D01*
X2535Y140D01*
X2695Y140D01*
G37*
G54D10*
X2695Y140D02*
X2715Y160D01*
X2715Y300D01*
X2695Y320D01*
X2535Y320D01*
X2515Y300D01*
X2515Y160D01*
X2535Y140D01*
X2695Y140D01*
G36*
X3340Y205D02*
X3340Y255D01*
X3390Y255D01*
X3390Y205D01*
X3340Y205D01*
G37*
G36*
X2610Y205D02*
X2610Y255D01*
X2660Y255D01*
X2660Y205D01*
X2610Y205D01*
G37*
G36*
X4767Y1156D02*
X4787Y1176D01*
X4787Y1316D01*
X4767Y1336D01*
X4607Y1336D01*
X4587Y1316D01*
X4587Y1176D01*
X4607Y1156D01*
X4767Y1156D01*
G37*
G54D10*
X4767Y1156D02*
X4787Y1176D01*
X4787Y1316D01*
X4767Y1336D01*
X4607Y1336D01*
X4587Y1316D01*
X4587Y1176D01*
X4607Y1156D01*
X4767Y1156D01*
G36*
X3997Y1156D02*
X4017Y1176D01*
X4017Y1316D01*
X3997Y1336D01*
X3837Y1336D01*
X3817Y1316D01*
X3817Y1176D01*
X3837Y1156D01*
X3997Y1156D01*
G37*
G54D10*
X3997Y1156D02*
X4017Y1176D01*
X4017Y1316D01*
X3997Y1336D01*
X3837Y1336D01*
X3817Y1316D01*
X3817Y1176D01*
X3837Y1156D01*
X3997Y1156D01*
G36*
X4642Y1221D02*
X4642Y1271D01*
X4692Y1271D01*
X4692Y1221D01*
X4642Y1221D01*
G37*
G36*
X3912Y1221D02*
X3912Y1271D01*
X3962Y1271D01*
X3962Y1221D01*
X3912Y1221D01*
G37*
G36*
X4767Y140D02*
X4787Y160D01*
X4787Y300D01*
X4767Y320D01*
X4607Y320D01*
X4587Y300D01*
X4587Y160D01*
X4607Y140D01*
X4767Y140D01*
G37*
G54D10*
X4767Y140D02*
X4787Y160D01*
X4787Y300D01*
X4767Y320D01*
X4607Y320D01*
X4587Y300D01*
X4587Y160D01*
X4607Y140D01*
X4767Y140D01*
G36*
X3997Y140D02*
X4017Y160D01*
X4017Y300D01*
X3997Y320D01*
X3837Y320D01*
X3817Y300D01*
X3817Y160D01*
X3837Y140D01*
X3997Y140D01*
G37*
G54D10*
X3997Y140D02*
X4017Y160D01*
X4017Y300D01*
X3997Y320D01*
X3837Y320D01*
X3817Y300D01*
X3817Y160D01*
X3837Y140D01*
X3997Y140D01*
G36*
X4642Y205D02*
X4642Y255D01*
X4692Y255D01*
X4692Y205D01*
X4642Y205D01*
G37*
G36*
X3912Y205D02*
X3912Y255D01*
X3962Y255D01*
X3962Y205D01*
X3912Y205D01*
G37*
G54D11*
X1302Y1278D02*
X1302Y1405D01*
X3746Y1405D01*
X3905Y1246D01*
G54D11*
X2604Y1405D02*
X2604Y1246D01*
G54D11*
X1302Y230D02*
X1302Y71D01*
X3746Y71D01*
X3905Y230D01*
G54D11*
X2604Y230D02*
X2604Y71D01*
G36*
X320Y888D02*
X455Y888D01*
X455Y808D01*
X320Y808D01*
X320Y888D01*
G37*
X159Y1341D02*
G54D12*
D03*
X159Y151D02*
G54D12*
D03*
X159Y976D02*
G54D13*
D03*
X159Y516D02*
G54D13*
D03*
G36*
X320Y688D02*
X455Y688D01*
X455Y608D01*
X320Y608D01*
X320Y688D01*
G37*
G36*
X321Y1135D02*
X456Y1135D01*
X456Y1055D01*
X321Y1055D01*
X321Y1135D01*
G37*
G36*
X321Y437D02*
X456Y437D01*
X456Y357D01*
X321Y357D01*
X321Y437D01*
G37*
G54D11*
X421Y1095D02*
X532Y1095D01*
X532Y1405D01*
X1302Y1405D01*
X1302Y1262D01*
G54D11*
X159Y1206D02*
X159Y182D01*
X175Y166D01*
X4937Y1246D02*
G54D14*
D03*
X4937Y992D02*
G54D14*
D03*
X4937Y738D02*
G54D14*
D03*
X4937Y484D02*
G54D14*
D03*
X532Y786D02*
G54D15*
D03*
X532Y706D02*
G54D15*
D03*
G54D11*
X405Y849D02*
X468Y849D01*
X524Y794D01*
G54D11*
X429Y643D02*
X468Y643D01*
X532Y706D01*
G36*
X705Y1300D02*
X835Y1300D01*
X835Y1160D01*
X705Y1160D01*
X705Y1300D01*
G37*
G36*
X895Y1300D02*
X1025Y1300D01*
X1025Y1160D01*
X895Y1160D01*
X895Y1300D01*
G37*
G54D11*
X3921Y230D02*
X3921Y1214D01*
X3913Y1222D01*
G36*
X705Y276D02*
X835Y276D01*
X835Y136D01*
X705Y136D01*
X705Y276D01*
G37*
G36*
X895Y276D02*
X1025Y276D01*
X1025Y136D01*
X895Y136D01*
X895Y276D01*
G37*
G36*
X723Y1036D02*
X833Y1036D01*
X833Y916D01*
X723Y916D01*
X723Y1036D01*
G37*
G36*
X893Y1036D02*
X1003Y1036D01*
X1003Y916D01*
X893Y916D01*
X893Y1036D01*
G37*
G36*
X731Y520D02*
X841Y520D01*
X841Y400D01*
X731Y400D01*
X731Y520D01*
G37*
G36*
X901Y520D02*
X1011Y520D01*
X1011Y400D01*
X901Y400D01*
X901Y520D01*
G37*
G54D11*
X405Y397D02*
X508Y397D01*
X516Y389D01*
X516Y397D01*
G54D11*
X952Y460D02*
X952Y198D01*
G54D11*
X960Y1230D02*
X960Y976D01*
G54D11*
X786Y452D02*
X786Y976D01*
G54D11*
X754Y206D02*
X619Y206D01*
G54D11*
X746Y1230D02*
X611Y1230D01*
X611Y1230D02*
G54D15*
D03*
X619Y206D02*
G54D15*
D03*
G54D11*
X3921Y1254D02*
X3929Y1254D01*
X4080Y1405D01*
X4842Y1405D01*
X4945Y1254D01*
X1159Y94D02*
G54D15*
D03*
G54D11*
X516Y397D02*
X516Y174D01*
X627Y63D01*
X1127Y63D01*
X1159Y95D01*
X2901Y999D02*
G54D15*
D03*
X2432Y912D02*
G54D15*
D03*
G54D16*
X2897Y1000D02*
X2738Y1000D01*
X2651Y913D01*
X2428Y913D01*
X2504Y435D02*
G54D15*
D03*
G54D16*
X2500Y436D02*
X2500Y841D01*
X2428Y913D01*
X2917Y666D02*
G54D15*
D03*
G54D16*
X2912Y667D02*
X2897Y667D01*
X2651Y913D01*
X3666Y983D02*
G54D17*
D03*
X3666Y499D02*
G54D17*
D03*
X3008Y800D02*
G54D15*
D03*
G54D16*
X3008Y802D02*
X3485Y802D01*
X3667Y984D01*
X3000Y721D02*
G54D15*
D03*
G54D16*
X3000Y722D02*
X3445Y722D01*
X3659Y508D01*
X4247Y975D02*
G54D15*
D03*
X4247Y499D02*
G54D15*
D03*
G54D16*
X4247Y976D02*
X4247Y500D01*
X2222Y348D02*
G54D15*
D03*
G54D16*
X2127Y262D02*
X2135Y262D01*
X2222Y349D01*
X2278Y1293D02*
G54D15*
D03*
G54D16*
X2278Y1294D02*
X2119Y1294D01*
G54D16*
X3993Y1190D02*
X4159Y1190D01*
X4247Y1103D01*
X4247Y968D01*
G54D16*
X3953Y206D02*
X4135Y206D01*
X4247Y317D01*
X4247Y508D01*
G54D16*
X2580Y460D02*
X2643Y460D01*
X2778Y325D01*
X2778Y159D01*
X3350Y159D01*
X3366Y174D01*
X2580Y459D02*
G54D15*
D03*
X3191Y1324D02*
G54D15*
D03*
G54D16*
X3191Y1325D02*
X3334Y1325D01*
X3366Y1294D01*
X4477Y1340D02*
G54D15*
D03*
G54D16*
X4477Y1341D02*
X4580Y1341D01*
X4620Y1302D01*
X4548Y340D02*
G54D15*
D03*
G54D16*
X4548Y341D02*
X4564Y341D01*
X4643Y262D01*
X3373Y459D02*
G54D15*
D03*
X2675Y515D02*
G54D15*
D03*
G54D16*
X2675Y516D02*
X3310Y516D01*
X3366Y460D01*
X4937Y230D02*
G54D14*
D03*
X3278Y896D02*
G54D15*
D03*
G54D16*
X3278Y897D02*
X3358Y897D01*
X3596Y1135D01*
X3739Y1135D01*
X3826Y1048D01*
X3826Y873D01*
X3826Y872D02*
G54D15*
D03*
X2286Y1118D02*
G54D15*
D03*
G54D16*
X2286Y1119D02*
X2286Y301D01*
X2334Y254D01*
X2342Y229D02*
G54D15*
D03*
X1667Y492D02*
G54D15*
D03*
X1953Y682D02*
G54D15*
D03*
X1691Y960D02*
G54D15*
D03*
G54D16*
X1953Y682D02*
X1897Y682D01*
X1683Y897D01*
X1683Y960D01*
X1691Y968D01*
X1691Y1397D01*
G54D11*
X1159Y95D02*
X1159Y349D01*
X1302Y492D01*
X1667Y492D01*
X627Y984D02*
G54D15*
D03*
G54D11*
X619Y992D02*
X762Y992D01*
X770Y984D01*
G36*
X1128Y732D02*
X1138Y722D01*
X1178Y722D01*
X1188Y732D01*
X1188Y792D01*
X1178Y802D01*
X1138Y802D01*
X1128Y792D01*
X1128Y732D01*
G37*
G54D10*
X1128Y732D02*
X1138Y722D01*
X1178Y722D01*
X1188Y732D01*
X1188Y792D01*
X1178Y802D01*
X1138Y802D01*
X1128Y792D01*
X1128Y732D01*
G36*
X1133Y787D02*
X1183Y787D01*
X1183Y737D01*
X1133Y737D01*
X1133Y787D01*
G37*
G36*
X1278Y787D02*
X1328Y787D01*
X1328Y737D01*
X1278Y737D01*
X1278Y787D01*
G37*
G36*
X1278Y732D02*
X1288Y722D01*
X1328Y722D01*
X1338Y732D01*
X1338Y792D01*
X1328Y802D01*
X1288Y802D01*
X1278Y792D01*
X1278Y732D01*
G37*
G54D10*
X1278Y732D02*
X1288Y722D01*
X1328Y722D01*
X1338Y732D01*
X1338Y792D01*
X1328Y802D01*
X1288Y802D01*
X1278Y792D01*
X1278Y732D01*
G54D11*
X786Y770D02*
X1151Y770D01*
G54D11*
X1310Y762D02*
X1659Y762D01*
X1659Y500D01*
G36*
X8Y1492D02*
X484Y1492D01*
X484Y1230D01*
X437Y1182D01*
X198Y1182D01*
X198Y325D01*
X468Y325D01*
X468Y135D01*
X564Y40D01*
X564Y16D01*
X8Y16D01*
X8Y1492D01*
G37*
G54D18*
X8Y1492D02*
X484Y1492D01*
X484Y1230D01*
X437Y1182D01*
X198Y1182D01*
X198Y325D01*
X468Y325D01*
X468Y135D01*
X564Y40D01*
X564Y16D01*
X8Y16D01*
X8Y1492D01*
%LNAUGENFREISTANZEN*%
%LPC*%
X159Y1341D02*
G54D19*
D03*
X159Y151D02*
G54D19*
D03*
X159Y976D02*
G54D19*
D03*
X159Y516D02*
G54D19*
D03*
X4937Y1246D02*
G54D19*
D03*
X4937Y992D02*
G54D19*
D03*
X4937Y738D02*
G54D19*
D03*
X4937Y484D02*
G54D19*
D03*
X532Y786D02*
G54D19*
D03*
X532Y706D02*
G54D19*
D03*
X611Y1230D02*
G54D19*
D03*
X619Y206D02*
G54D19*
D03*
X1159Y94D02*
G54D19*
D03*
X2901Y999D02*
G54D19*
D03*
X2432Y912D02*
G54D19*
D03*
X2504Y435D02*
G54D19*
D03*
X2917Y666D02*
G54D19*
D03*
X3666Y983D02*
G54D19*
D03*
X3666Y499D02*
G54D19*
D03*
X3008Y800D02*
G54D19*
D03*
X3000Y721D02*
G54D19*
D03*
X4247Y975D02*
G54D19*
D03*
X4247Y499D02*
G54D19*
D03*
X2222Y348D02*
G54D19*
D03*
X2278Y1293D02*
G54D19*
D03*
X2580Y459D02*
G54D19*
D03*
X3191Y1324D02*
G54D19*
D03*
X4477Y1340D02*
G54D19*
D03*
X4548Y340D02*
G54D19*
D03*
X3373Y459D02*
G54D19*
D03*
X2675Y515D02*
G54D19*
D03*
X4937Y230D02*
G54D19*
D03*
X3278Y896D02*
G54D19*
D03*
X3826Y872D02*
G54D19*
D03*
X2286Y1118D02*
G54D19*
D03*
X2342Y229D02*
G54D19*
D03*
X1667Y492D02*
G54D19*
D03*
X1953Y682D02*
G54D19*
D03*
X1691Y960D02*
G54D19*
D03*
X627Y984D02*
G54D19*
D03*
M02*
