  0
SECTION
  2
HEADER
  9
$ANGBASE
  50
0.0
  9
$ANGDIR
  70
  1
  9
$MEASUREMENT
  70
0
  0
ENDSEC
  0
SECTION
  2
TABLES
  0
TABLE
  2
LTYPE
  70
1
  0
LTYPE
  2
CONTINUOUS
  70
0
  3
Solid line
  72
65
  73
0
  40
0.0
  0
ENDTAB
  0
TABLE
  2
STYLE
  70
4
  0
STYLE
  2
KICAD
  70
0
  40
0
  41
1
  42
1
  50
0
  71
0
  3
isocp.shx
  0
STYLE
  2
KICADB
  70
0
  40
0
  41
1
  42
1
  50
0
  71
0
  3
isocp.shx
  0
STYLE
  2
KICADI
  70
0
  40
0
  41
1
  42
1
  50
15
  71
0
  3
isocp.shx
  0
STYLE
  2
KICADBI
  70
0
  40
0
  41
1
  42
1
  50
15
  71
0
  3
isocp.shx
  0
ENDTAB
  0
TABLE
  2
LAYER
  70
30
  0
LAYER
  2
BLACK
  70
0
  62
7
  6
CONTINUOUS
  0
LAYER
  2
GRAY1
  70
0
  62
251
  6
CONTINUOUS
  0
LAYER
  2
GRAY2
  70
0
  62
8
  6
CONTINUOUS
  0
LAYER
  2
GRAY3
  70
0
  62
9
  6
CONTINUOUS
  0
LAYER
  2
WHITE
  70
0
  62
7
  6
CONTINUOUS
  0
LAYER
  2
LYELLOW
  70
0
  62
51
  6
CONTINUOUS
  0
LAYER
  2
BLUE1
  70
0
  62
178
  6
CONTINUOUS
  0
LAYER
  2
GREEN1
  70
0
  62
98
  6
CONTINUOUS
  0
LAYER
  2
CYAN1
  70
0
  62
138
  6
CONTINUOUS
  0
LAYER
  2
RED1
  70
0
  62
18
  6
CONTINUOUS
  0
LAYER
  2
MAGENTA1
  70
0
  62
228
  6
CONTINUOUS
  0
LAYER
  2
BROWN1
  70
0
  62
58
  6
CONTINUOUS
  0
LAYER
  2
BLUE2
  70
0
  62
5
  6
CONTINUOUS
  0
LAYER
  2
GREEN2
  70
0
  62
3
  6
CONTINUOUS
  0
LAYER
  2
CYAN2
  70
0
  62
4
  6
CONTINUOUS
  0
LAYER
  2
RED2
  70
0
  62
1
  6
CONTINUOUS
  0
LAYER
  2
MAGENTA2
  70
0
  62
6
  6
CONTINUOUS
  0
LAYER
  2
BROWN2
  70
0
  62
54
  6
CONTINUOUS
  0
LAYER
  2
BLUE3
  70
0
  62
171
  6
CONTINUOUS
  0
LAYER
  2
GREEN3
  70
0
  62
91
  6
CONTINUOUS
  0
LAYER
  2
CYAN3
  70
0
  62
131
  6
CONTINUOUS
  0
LAYER
  2
RED3
  70
0
  62
11
  6
CONTINUOUS
  0
LAYER
  2
MAGENTA3
  70
0
  62
221
  6
CONTINUOUS
  0
LAYER
  2
YELLOW3
  70
0
  62
2
  6
CONTINUOUS
  0
LAYER
  2
BLUE4
  70
0
  62
5
  6
CONTINUOUS
  0
LAYER
  2
GREEN4
  70
0
  62
3
  6
CONTINUOUS
  0
LAYER
  2
CYAN4
  70
0
  62
4
  6
CONTINUOUS
  0
LAYER
  2
RED4
  70
0
  62
1
  6
CONTINUOUS
  0
LAYER
  2
MAGENTA4
  70
0
  62
6
  6
CONTINUOUS
  0
LAYER
  2
YELLOW4
  70
0
  62
2
  6
CONTINUOUS
  0
ENDTAB
  0
ENDSEC
  0
SECTION
  2
ENTITIES
0
LINE
8
Black
10
31.2408
20
-28.8849
11
31.2408
21
-28.8747
0
LINE
8
Black
10
31.0908
20
-28.8849
11
31.0908
21
-28.8747
0
ARC
8
Black
10
31.1658
20
-28.8747
40
0.075
50
360
51
540
0
ARC
8
Black
10
31.1658
20
-28.8849
40
0.075
50
180
51
360
0
LINE
8
Black
10
31.1658
20
-28.9599
11
74.628
21
-28.9599
0
LINE
8
Black
10
31.1658
20
-28.8099
11
74.628
21
-28.8099
0
ARC
8
Black
10
74.628
20
-28.8849
40
0.075
50
270
51
450
0
ARC
8
Black
10
31.1658
20
-28.8849
40
0.075
50
90
51
270
0
LINE
8
Black
10
74.703
20
-43.1343
11
74.703
21
-28.8849
0
LINE
8
Black
10
74.553
20
-43.1343
11
74.553
21
-28.8849
0
ARC
8
Black
10
74.628
20
-28.8849
40
0.075
50
360
51
540
0
ARC
8
Black
10
74.628
20
-43.1343
40
0.075
50
180
51
360
0
LINE
8
Black
10
31.1658
20
-43.2093
11
74.628
21
-43.2093
0
LINE
8
Black
10
31.1658
20
-43.0593
11
74.628
21
-43.0593
0
ARC
8
Black
10
74.628
20
-43.1343
40
0.075
50
270
51
450
0
ARC
8
Black
10
31.1658
20
-43.1343
40
0.075
50
90
51
270
0
LINE
8
Black
10
31.2408
20
-43.1343
11
31.2408
21
-28.8798
0
LINE
8
Black
10
31.0908
20
-43.1343
11
31.0908
21
-28.8798
0
ARC
8
Black
10
31.1658
20
-28.8798
40
0.075
50
360
51
540
0
ARC
8
Black
10
31.1658
20
-43.1343
40
0.075
50
180
51
360
0
LINE
8
Black
10
36.5665
20
-36.4395
11
36.9665
21
-36.8395
0
LINE
8
Black
10
36.9665
20
-36.4395
11
36.5665
21
-36.8395
0
LINE
8
Black
10
36.5665
20
-41.71
11
36.9665
21
-42.11
0
LINE
8
Black
10
36.9665
20
-41.71
11
36.5665
21
-42.11
0
LINE
8
Black
10
38.916
20
-35.36
11
39.316
21
-35.76
0
LINE
8
Black
10
39.316
20
-35.36
11
38.916
21
-35.76
0
LINE
8
Black
10
39.6145
20
-30.026
11
40.0145
21
-30.426
0
LINE
8
Black
10
40.0145
20
-30.026
11
39.6145
21
-30.426
0
LINE
8
Black
10
41.5195
20
-37.4555
11
41.9195
21
-37.8555
0
LINE
8
Black
10
41.9195
20
-37.4555
11
41.5195
21
-37.8555
0
LINE
8
Black
10
41.5195
20
-39.043
11
41.9195
21
-39.443
0
LINE
8
Black
10
41.9195
20
-39.043
11
41.5195
21
-39.443
0
LINE
8
Black
10
41.583
20
-40.567
11
41.983
21
-40.967
0
LINE
8
Black
10
41.983
20
-40.567
11
41.583
21
-40.967
0
LINE
8
Black
10
44.8748
20
-30.3257
11
45.2748
21
-30.7257
0
LINE
8
Black
10
45.2748
20
-30.3257
11
44.8748
21
-30.7257
0
LINE
8
Black
10
46.3455
20
-32.3755
11
46.7455
21
-32.7755
0
LINE
8
Black
10
46.7455
20
-32.3755
11
46.3455
21
-32.7755
0
LINE
8
Black
10
50.219
20
-42.2815
11
50.619
21
-42.6815
0
LINE
8
Black
10
50.619
20
-42.2815
11
50.219
21
-42.6815
0
LINE
8
Black
10
52.886
20
-35.741
11
53.286
21
-36.141
0
LINE
8
Black
10
53.286
20
-35.741
11
52.886
21
-36.141
0
LINE
8
Black
10
54.029
20
-35.614
11
54.429
21
-36.014
0
LINE
8
Black
10
54.429
20
-35.614
11
54.029
21
-36.014
0
LINE
8
Black
10
54.537
20
-32.439
11
54.937
21
-32.839
0
LINE
8
Black
10
54.937
20
-32.439
11
54.537
21
-32.839
0
LINE
8
Black
10
54.9815
20
-37.8365
11
55.3815
21
-38.2365
0
LINE
8
Black
10
55.3815
20
-37.8365
11
54.9815
21
-38.2365
0
LINE
8
Black
10
55.299
20
-33.074
11
55.699
21
-33.474
0
LINE
8
Black
10
55.699
20
-33.074
11
55.299
21
-33.474
0
LINE
8
Black
10
55.3625
20
-34.725
11
55.7625
21
-35.125
0
LINE
8
Black
10
55.7625
20
-34.725
11
55.3625
21
-35.125
0
LINE
8
Black
10
55.426
20
-41.964
11
55.826
21
-42.364
0
LINE
8
Black
10
55.826
20
-41.964
11
55.426
21
-42.364
0
LINE
8
Black
10
55.4768
20
-37.1888
11
55.8768
21
-37.5888
0
LINE
8
Black
10
55.8768
20
-37.1888
11
55.4768
21
-37.5888
0
LINE
8
Black
10
56.0356
20
-35.868
11
56.4356
21
-36.268
0
LINE
8
Black
10
56.4356
20
-35.868
11
56.0356
21
-36.268
0
LINE
8
Black
10
57.712
20
-35.0425
11
58.112
21
-35.4425
0
LINE
8
Black
10
58.112
20
-35.0425
11
57.712
21
-35.4425
0
LINE
8
Black
10
57.966
20
-35.868
11
58.366
21
-36.268
0
LINE
8
Black
10
58.366
20
-35.868
11
57.966
21
-36.268
0
LINE
8
Black
10
58.6645
20
-36.4395
11
59.0645
21
-36.8395
0
LINE
8
Black
10
59.0645
20
-36.4395
11
58.6645
21
-36.8395
0
LINE
8
Black
10
58.7585
20
-33.5414
11
59.1585
21
-33.9414
0
LINE
8
Black
10
59.1585
20
-33.5414
11
58.7585
21
-33.9414
0
LINE
8
Black
10
59.363
20
-38.8525
11
59.763
21
-39.2525
0
LINE
8
Black
10
59.763
20
-38.8525
11
59.363
21
-39.2525
0
LINE
8
Black
10
59.4265
20
-31.423
11
59.8265
21
-31.823
0
LINE
8
Black
10
59.8265
20
-31.423
11
59.4265
21
-31.823
0
LINE
8
Black
10
59.8456
20
-29.8533
11
60.2456
21
-30.2533
0
LINE
8
Black
10
60.2456
20
-29.8533
11
59.8456
21
-30.2533
0
LINE
8
Black
10
60.125
20
-41.202
11
60.525
21
-41.602
0
LINE
8
Black
10
60.525
20
-41.202
11
60.125
21
-41.602
0
LINE
8
Black
10
61.268
20
-31.8675
11
61.668
21
-32.2675
0
LINE
8
Black
10
61.668
20
-31.8675
11
61.268
21
-32.2675
0
LINE
8
Black
10
61.268
20
-40.44
11
61.668
21
-40.84
0
LINE
8
Black
10
61.668
20
-40.44
11
61.268
21
-40.84
0
LINE
8
Black
10
61.5855
20
-37.138
11
61.9855
21
-37.538
0
LINE
8
Black
10
61.9855
20
-37.138
11
61.5855
21
-37.538
0
LINE
8
Black
10
61.5855
20
-38.662
11
61.9855
21
-39.062
0
LINE
8
Black
10
61.9855
20
-38.662
11
61.5855
21
-39.062
0
LINE
8
Black
10
61.8395
20
-34.9155
11
62.2395
21
-35.3155
0
LINE
8
Black
10
62.2395
20
-34.9155
11
61.8395
21
-35.3155
0
LINE
8
Black
10
61.8395
20
-36.1855
11
62.2395
21
-36.5855
0
LINE
8
Black
10
62.2395
20
-36.1855
11
61.8395
21
-36.5855
0
LINE
8
Black
10
61.9665
20
-31.042
11
62.3665
21
-31.442
0
LINE
8
Black
10
62.3665
20
-31.042
11
61.9665
21
-31.442
0
LINE
8
Black
10
61.9665
20
-33.455
11
62.3665
21
-33.855
0
LINE
8
Black
10
62.3665
20
-33.455
11
61.9665
21
-33.855
0
LINE
8
Black
10
62.03
20
-41.9005
11
62.43
21
-42.3005
0
LINE
8
Black
10
62.43
20
-41.9005
11
62.03
21
-42.3005
0
LINE
8
Black
10
67.0465
20
-33.3915
11
67.4465
21
-33.7915
0
LINE
8
Black
10
67.4465
20
-33.3915
11
67.0465
21
-33.7915
0
LINE
8
Black
10
67.5545
20
-38.0905
11
67.9545
21
-38.4905
0
LINE
8
Black
10
67.9545
20
-38.0905
11
67.5545
21
-38.4905
0
LINE
8
Black
10
68.253
20
-34.9155
11
68.653
21
-35.3155
0
LINE
8
Black
10
68.653
20
-34.9155
11
68.253
21
-35.3155
0
LINE
8
Black
10
68.634
20
-41.9005
11
69.034
21
-42.3005
0
LINE
8
Black
10
69.034
20
-41.9005
11
68.634
21
-42.3005
0
LINE
8
Black
10
69.2055
20
-35.2965
11
69.6055
21
-35.6965
0
LINE
8
Black
10
69.6055
20
-35.2965
11
69.2055
21
-35.6965
0
CIRCLE
8
Black
10
46.4515
20
-40.7264
40
0.4064
0
CIRCLE
8
Black
10
47.5132
20
-30.1396
40
0.4064
0
CIRCLE
8
Black
10
54.102
20
-41.9735
40
0.4064
0
LINE
8
Black
10
33.8051
20
-47.8664
11
33.8051
21
-44.8664
0
LINE
8
Black
10
33.8051
20
-44.8664
11
34.5194
21
-44.8664
0
LINE
8
Black
10
34.5194
20
-44.8664
11
34.9479
21
-45.0093
0
LINE
8
Black
10
34.9479
20
-45.0093
11
35.2337
21
-45.295
0
LINE
8
Black
10
35.2337
20
-45.295
11
35.3765
21
-45.5807
0
LINE
8
Black
10
35.3765
20
-45.5807
11
35.5194
21
-46.1521
0
LINE
8
Black
10
35.5194
20
-46.1521
11
35.5194
21
-46.5807
0
LINE
8
Black
10
35.5194
20
-46.5807
11
35.3765
21
-47.1521
0
LINE
8
Black
10
35.3765
20
-47.1521
11
35.2337
21
-47.4379
0
LINE
8
Black
10
35.2337
20
-47.4379
11
34.9479
21
-47.7236
0
LINE
8
Black
10
34.9479
20
-47.7236
11
34.5194
21
-47.8664
0
LINE
8
Black
10
34.5194
20
-47.8664
11
33.8051
21
-47.8664
0
LINE
8
Black
10
36.8051
20
-47.8664
11
36.8051
21
-45.8664
0
LINE
8
Black
10
36.8051
20
-46.4379
11
36.9479
21
-46.1521
0
LINE
8
Black
10
36.9479
20
-46.1521
11
37.0908
21
-46.0093
0
LINE
8
Black
10
37.0908
20
-46.0093
11
37.3765
21
-45.8664
0
LINE
8
Black
10
37.3765
20
-45.8664
11
37.6622
21
-45.8664
0
LINE
8
Black
10
38.6622
20
-47.8664
11
38.6622
21
-45.8664
0
LINE
8
Black
10
38.6622
20
-44.8664
11
38.5194
21
-45.0093
0
LINE
8
Black
10
38.5194
20
-45.0093
11
38.6622
21
-45.1521
0
LINE
8
Black
10
38.6622
20
-45.1521
11
38.8051
21
-45.0093
0
LINE
8
Black
10
38.8051
20
-45.0093
11
38.6622
21
-44.8664
0
LINE
8
Black
10
38.6622
20
-44.8664
11
38.6622
21
-45.1521
0
LINE
8
Black
10
40.5194
20
-47.8664
11
40.2337
21
-47.7236
0
LINE
8
Black
10
40.2337
20
-47.7236
11
40.0908
21
-47.4379
0
LINE
8
Black
10
40.0908
20
-47.4379
11
40.0908
21
-44.8664
0
LINE
8
Black
10
42.0908
20
-47.8664
11
41.8051
21
-47.7236
0
LINE
8
Black
10
41.8051
20
-47.7236
11
41.6622
21
-47.4379
0
LINE
8
Black
10
41.6622
20
-47.4379
11
41.6622
21
-44.8664
0
LINE
8
Black
10
45.5194
20
-47.8664
11
45.5194
21
-44.8664
0
LINE
8
Black
10
45.5194
20
-44.8664
11
46.5194
21
-47.0093
0
LINE
8
Black
10
46.5194
20
-47.0093
11
47.5194
21
-44.8664
0
LINE
8
Black
10
47.5194
20
-44.8664
11
47.5194
21
-47.8664
0
LINE
8
Black
10
50.2337
20
-47.8664
11
50.2337
21
-46.295
0
LINE
8
Black
10
50.2337
20
-46.295
11
50.0908
21
-46.0093
0
LINE
8
Black
10
50.0908
20
-46.0093
11
49.8051
21
-45.8664
0
LINE
8
Black
10
49.8051
20
-45.8664
11
49.2337
21
-45.8664
0
LINE
8
Black
10
49.2337
20
-45.8664
11
48.9479
21
-46.0093
0
LINE
8
Black
10
50.2337
20
-47.7236
11
49.9479
21
-47.8664
0
LINE
8
Black
10
49.9479
20
-47.8664
11
49.2337
21
-47.8664
0
LINE
8
Black
10
49.2337
20
-47.8664
11
48.9479
21
-47.7236
0
LINE
8
Black
10
48.9479
20
-47.7236
11
48.8051
21
-47.4379
0
LINE
8
Black
10
48.8051
20
-47.4379
11
48.8051
21
-47.1521
0
LINE
8
Black
10
48.8051
20
-47.1521
11
48.9479
21
-46.8664
0
LINE
8
Black
10
48.9479
20
-46.8664
11
49.2337
21
-46.7236
0
LINE
8
Black
10
49.2337
20
-46.7236
11
49.9479
21
-46.7236
0
LINE
8
Black
10
49.9479
20
-46.7236
11
50.2337
21
-46.5807
0
LINE
8
Black
10
51.6622
20
-45.8664
11
51.6622
21
-48.8664
0
LINE
8
Black
10
51.6622
20
-46.0093
11
51.9479
21
-45.8664
0
LINE
8
Black
10
51.9479
20
-45.8664
11
52.5194
21
-45.8664
0
LINE
8
Black
10
52.5194
20
-45.8664
11
52.8051
21
-46.0093
0
LINE
8
Black
10
52.8051
20
-46.0093
11
52.9479
21
-46.1521
0
LINE
8
Black
10
52.9479
20
-46.1521
11
53.0908
21
-46.4379
0
LINE
8
Black
10
53.0908
20
-46.4379
11
53.0908
21
-47.295
0
LINE
8
Black
10
53.0908
20
-47.295
11
52.9479
21
-47.5807
0
LINE
8
Black
10
52.9479
20
-47.5807
11
52.8051
21
-47.7236
0
LINE
8
Black
10
52.8051
20
-47.7236
11
52.5194
21
-47.8664
0
LINE
8
Black
10
52.5194
20
-47.8664
11
51.9479
21
-47.8664
0
LINE
8
Black
10
51.9479
20
-47.8664
11
51.6622
21
-47.7236
0
LINE
8
Black
10
54.3765
20
-47.5807
11
54.5194
21
-47.7236
0
LINE
8
Black
10
54.5194
20
-47.7236
11
54.3765
21
-47.8664
0
LINE
8
Black
10
54.3765
20
-47.8664
11
54.2337
21
-47.7236
0
LINE
8
Black
10
54.2337
20
-47.7236
11
54.3765
21
-47.5807
0
LINE
8
Black
10
54.3765
20
-47.5807
11
54.3765
21
-47.8664
0
LINE
8
Black
10
54.3765
20
-46.0093
11
54.5194
21
-46.1521
0
LINE
8
Black
10
54.5194
20
-46.1521
11
54.3765
21
-46.295
0
LINE
8
Black
10
54.3765
20
-46.295
11
54.2337
21
-46.1521
0
LINE
8
Black
10
54.2337
20
-46.1521
11
54.3765
21
-46.0093
0
LINE
8
Black
10
54.3765
20
-46.0093
11
54.3765
21
-46.295
0
LINE
8
Black
10
30.6908
20
-52.6093
11
31.0908
21
-53.0093
0
LINE
8
Black
10
31.0908
20
-52.6093
11
30.6908
21
-53.0093
0
LINE
8
Black
10
34.3765
20
-51.1664
11
34.6622
21
-51.1664
0
LINE
8
Black
10
34.6622
20
-51.1664
11
34.9479
21
-51.3093
0
LINE
8
Black
10
34.9479
20
-51.3093
11
35.0908
21
-51.4521
0
LINE
8
Black
10
35.0908
20
-51.4521
11
35.2337
21
-51.7379
0
LINE
8
Black
10
35.2337
20
-51.7379
11
35.3765
21
-52.3093
0
LINE
8
Black
10
35.3765
20
-52.3093
11
35.3765
21
-53.0236
0
LINE
8
Black
10
35.3765
20
-53.0236
11
35.2337
21
-53.595
0
LINE
8
Black
10
35.2337
20
-53.595
11
35.0908
21
-53.8807
0
LINE
8
Black
10
35.0908
20
-53.8807
11
34.9479
21
-54.0236
0
LINE
8
Black
10
34.9479
20
-54.0236
11
34.6622
21
-54.1664
0
LINE
8
Black
10
34.6622
20
-54.1664
11
34.3765
21
-54.1664
0
LINE
8
Black
10
34.3765
20
-54.1664
11
34.0908
21
-54.0236
0
LINE
8
Black
10
34.0908
20
-54.0236
11
33.9479
21
-53.8807
0
LINE
8
Black
10
33.9479
20
-53.8807
11
33.8051
21
-53.595
0
LINE
8
Black
10
33.8051
20
-53.595
11
33.6622
21
-53.0236
0
LINE
8
Black
10
33.6622
20
-53.0236
11
33.6622
21
-52.3093
0
LINE
8
Black
10
33.6622
20
-52.3093
11
33.8051
21
-51.7379
0
LINE
8
Black
10
33.8051
20
-51.7379
11
33.9479
21
-51.4521
0
LINE
8
Black
10
33.9479
20
-51.4521
11
34.0908
21
-51.3093
0
LINE
8
Black
10
34.0908
20
-51.3093
11
34.3765
21
-51.1664
0
LINE
8
Black
10
36.6622
20
-53.8807
11
36.8051
21
-54.0236
0
LINE
8
Black
10
36.8051
20
-54.0236
11
36.6622
21
-54.1664
0
LINE
8
Black
10
36.6622
20
-54.1664
11
36.5194
21
-54.0236
0
LINE
8
Black
10
36.5194
20
-54.0236
11
36.6622
21
-53.8807
0
LINE
8
Black
10
36.6622
20
-53.8807
11
36.6622
21
-54.1664
0
LINE
8
Black
10
39.3765
20
-52.1664
11
39.3765
21
-54.1664
0
LINE
8
Black
10
38.6622
20
-51.0236
11
37.9479
21
-53.1664
0
LINE
8
Black
10
37.9479
20
-53.1664
11
39.8051
21
-53.1664
0
LINE
8
Black
10
41.5194
20
-51.1664
11
41.8051
21
-51.1664
0
LINE
8
Black
10
41.8051
20
-51.1664
11
42.0908
21
-51.3093
0
LINE
8
Black
10
42.0908
20
-51.3093
11
42.2337
21
-51.4521
0
LINE
8
Black
10
42.2337
20
-51.4521
11
42.3765
21
-51.7379
0
LINE
8
Black
10
42.3765
20
-51.7379
11
42.5194
21
-52.3093
0
LINE
8
Black
10
42.5194
20
-52.3093
11
42.5194
21
-53.0236
0
LINE
8
Black
10
42.5194
20
-53.0236
11
42.3765
21
-53.595
0
LINE
8
Black
10
42.3765
20
-53.595
11
42.2337
21
-53.8807
0
LINE
8
Black
10
42.2337
20
-53.8807
11
42.0908
21
-54.0236
0
LINE
8
Black
10
42.0908
20
-54.0236
11
41.8051
21
-54.1664
0
LINE
8
Black
10
41.8051
20
-54.1664
11
41.5194
21
-54.1664
0
LINE
8
Black
10
41.5194
20
-54.1664
11
41.2337
21
-54.0236
0
LINE
8
Black
10
41.2337
20
-54.0236
11
41.0908
21
-53.8807
0
LINE
8
Black
10
41.0908
20
-53.8807
11
40.9479
21
-53.595
0
LINE
8
Black
10
40.9479
20
-53.595
11
40.8051
21
-53.0236
0
LINE
8
Black
10
40.8051
20
-53.0236
11
40.8051
21
-52.3093
0
LINE
8
Black
10
40.8051
20
-52.3093
11
40.9479
21
-51.7379
0
LINE
8
Black
10
40.9479
20
-51.7379
11
41.0908
21
-51.4521
0
LINE
8
Black
10
41.0908
20
-51.4521
11
41.2337
21
-51.3093
0
LINE
8
Black
10
41.2337
20
-51.3093
11
41.5194
21
-51.1664
0
LINE
8
Black
10
43.8051
20
-54.1664
11
43.8051
21
-52.1664
0
LINE
8
Black
10
43.8051
20
-52.4521
11
43.9479
21
-52.3093
0
LINE
8
Black
10
43.9479
20
-52.3093
11
44.2337
21
-52.1664
0
LINE
8
Black
10
44.2337
20
-52.1664
11
44.6622
21
-52.1664
0
LINE
8
Black
10
44.6622
20
-52.1664
11
44.9479
21
-52.3093
0
LINE
8
Black
10
44.9479
20
-52.3093
11
45.0908
21
-52.595
0
LINE
8
Black
10
45.0908
20
-52.595
11
45.0908
21
-54.1664
0
LINE
8
Black
10
45.0908
20
-52.595
11
45.2337
21
-52.3093
0
LINE
8
Black
10
45.2337
20
-52.3093
11
45.5194
21
-52.1664
0
LINE
8
Black
10
45.5194
20
-52.1664
11
45.9479
21
-52.1664
0
LINE
8
Black
10
45.9479
20
-52.1664
11
46.2337
21
-52.3093
0
LINE
8
Black
10
46.2337
20
-52.3093
11
46.3765
21
-52.595
0
LINE
8
Black
10
46.3765
20
-52.595
11
46.3765
21
-54.1664
0
LINE
8
Black
10
47.8051
20
-54.1664
11
47.8051
21
-52.1664
0
LINE
8
Black
10
47.8051
20
-52.4521
11
47.9479
21
-52.3093
0
LINE
8
Black
10
47.9479
20
-52.3093
11
48.2337
21
-52.1664
0
LINE
8
Black
10
48.2337
20
-52.1664
11
48.6622
21
-52.1664
0
LINE
8
Black
10
48.6622
20
-52.1664
11
48.9479
21
-52.3093
0
LINE
8
Black
10
48.9479
20
-52.3093
11
49.0908
21
-52.595
0
LINE
8
Black
10
49.0908
20
-52.595
11
49.0908
21
-54.1664
0
LINE
8
Black
10
49.0908
20
-52.595
11
49.2337
21
-52.3093
0
LINE
8
Black
10
49.2337
20
-52.3093
11
49.5194
21
-52.1664
0
LINE
8
Black
10
49.5194
20
-52.1664
11
49.9479
21
-52.1664
0
LINE
8
Black
10
49.9479
20
-52.1664
11
50.2337
21
-52.3093
0
LINE
8
Black
10
50.2337
20
-52.3093
11
50.3765
21
-52.595
0
LINE
8
Black
10
50.3765
20
-52.595
11
50.3765
21
-54.1664
0
LINE
8
Black
10
56.2337
20
-51.0236
11
53.6622
21
-54.8807
0
LINE
8
Black
10
60.0908
20
-51.1664
11
60.3765
21
-51.1664
0
LINE
8
Black
10
60.3765
20
-51.1664
11
60.6622
21
-51.3093
0
LINE
8
Black
10
60.6622
20
-51.3093
11
60.8051
21
-51.4521
0
LINE
8
Black
10
60.8051
20
-51.4521
11
60.9479
21
-51.7379
0
LINE
8
Black
10
60.9479
20
-51.7379
11
61.0908
21
-52.3093
0
LINE
8
Black
10
61.0908
20
-52.3093
11
61.0908
21
-53.0236
0
LINE
8
Black
10
61.0908
20
-53.0236
11
60.9479
21
-53.595
0
LINE
8
Black
10
60.9479
20
-53.595
11
60.8051
21
-53.8807
0
LINE
8
Black
10
60.8051
20
-53.8807
11
60.6622
21
-54.0236
0
LINE
8
Black
10
60.6622
20
-54.0236
11
60.3765
21
-54.1664
0
LINE
8
Black
10
60.3765
20
-54.1664
11
60.0908
21
-54.1664
0
LINE
8
Black
10
60.0908
20
-54.1664
11
59.8051
21
-54.0236
0
LINE
8
Black
10
59.8051
20
-54.0236
11
59.6622
21
-53.8807
0
LINE
8
Black
10
59.6622
20
-53.8807
11
59.5194
21
-53.595
0
LINE
8
Black
10
59.5194
20
-53.595
11
59.3765
21
-53.0236
0
LINE
8
Black
10
59.3765
20
-53.0236
11
59.3765
21
-52.3093
0
LINE
8
Black
10
59.3765
20
-52.3093
11
59.5194
21
-51.7379
0
LINE
8
Black
10
59.5194
20
-51.7379
11
59.6622
21
-51.4521
0
LINE
8
Black
10
59.6622
20
-51.4521
11
59.8051
21
-51.3093
0
LINE
8
Black
10
59.8051
20
-51.3093
11
60.0908
21
-51.1664
0
LINE
8
Black
10
62.3765
20
-53.8807
11
62.5194
21
-54.0236
0
LINE
8
Black
10
62.5194
20
-54.0236
11
62.3765
21
-54.1664
0
LINE
8
Black
10
62.3765
20
-54.1664
11
62.2337
21
-54.0236
0
LINE
8
Black
10
62.2337
20
-54.0236
11
62.3765
21
-53.8807
0
LINE
8
Black
10
62.3765
20
-53.8807
11
62.3765
21
-54.1664
0
LINE
8
Black
10
64.3765
20
-51.1664
11
64.6622
21
-51.1664
0
LINE
8
Black
10
64.6622
20
-51.1664
11
64.9479
21
-51.3093
0
LINE
8
Black
10
64.9479
20
-51.3093
11
65.0908
21
-51.4521
0
LINE
8
Black
10
65.0908
20
-51.4521
11
65.2337
21
-51.7379
0
LINE
8
Black
10
65.2337
20
-51.7379
11
65.3765
21
-52.3093
0
LINE
8
Black
10
65.3765
20
-52.3093
11
65.3765
21
-53.0236
0
LINE
8
Black
10
65.3765
20
-53.0236
11
65.2337
21
-53.595
0
LINE
8
Black
10
65.2337
20
-53.595
11
65.0908
21
-53.8807
0
LINE
8
Black
10
65.0908
20
-53.8807
11
64.9479
21
-54.0236
0
LINE
8
Black
10
64.9479
20
-54.0236
11
64.6622
21
-54.1664
0
LINE
8
Black
10
64.6622
20
-54.1664
11
64.3765
21
-54.1664
0
LINE
8
Black
10
64.3765
20
-54.1664
11
64.0908
21
-54.0236
0
LINE
8
Black
10
64.0908
20
-54.0236
11
63.9479
21
-53.8807
0
LINE
8
Black
10
63.9479
20
-53.8807
11
63.8051
21
-53.595
0
LINE
8
Black
10
63.8051
20
-53.595
11
63.6622
21
-53.0236
0
LINE
8
Black
10
63.6622
20
-53.0236
11
63.6622
21
-52.3093
0
LINE
8
Black
10
63.6622
20
-52.3093
11
63.8051
21
-51.7379
0
LINE
8
Black
10
63.8051
20
-51.7379
11
63.9479
21
-51.4521
0
LINE
8
Black
10
63.9479
20
-51.4521
11
64.0908
21
-51.3093
0
LINE
8
Black
10
64.0908
20
-51.3093
11
64.3765
21
-51.1664
0
LINE
8
Black
10
68.2337
20
-54.1664
11
66.5194
21
-54.1664
0
LINE
8
Black
10
67.3765
20
-54.1664
11
67.3765
21
-51.1664
0
LINE
8
Black
10
67.3765
20
-51.1664
11
67.0908
21
-51.595
0
LINE
8
Black
10
67.0908
20
-51.595
11
66.8051
21
-51.8807
0
LINE
8
Black
10
66.8051
20
-51.8807
11
66.5194
21
-52.0236
0
LINE
8
Black
10
70.8051
20
-51.1664
11
70.2337
21
-51.1664
0
LINE
8
Black
10
70.2337
20
-51.1664
11
69.9479
21
-51.3093
0
LINE
8
Black
10
69.9479
20
-51.3093
11
69.8051
21
-51.4521
0
LINE
8
Black
10
69.8051
20
-51.4521
11
69.5194
21
-51.8807
0
LINE
8
Black
10
69.5194
20
-51.8807
11
69.3765
21
-52.4521
0
LINE
8
Black
10
69.3765
20
-52.4521
11
69.3765
21
-53.595
0
LINE
8
Black
10
69.3765
20
-53.595
11
69.5194
21
-53.8807
0
LINE
8
Black
10
69.5194
20
-53.8807
11
69.6622
21
-54.0236
0
LINE
8
Black
10
69.6622
20
-54.0236
11
69.9479
21
-54.1664
0
LINE
8
Black
10
69.9479
20
-54.1664
11
70.5194
21
-54.1664
0
LINE
8
Black
10
70.5194
20
-54.1664
11
70.8051
21
-54.0236
0
LINE
8
Black
10
70.8051
20
-54.0236
11
70.9479
21
-53.8807
0
LINE
8
Black
10
70.9479
20
-53.8807
11
71.0908
21
-53.595
0
LINE
8
Black
10
71.0908
20
-53.595
11
71.0908
21
-52.8807
0
LINE
8
Black
10
71.0908
20
-52.8807
11
70.9479
21
-52.595
0
LINE
8
Black
10
70.9479
20
-52.595
11
70.8051
21
-52.4521
0
LINE
8
Black
10
70.8051
20
-52.4521
11
70.5194
21
-52.3093
0
LINE
8
Black
10
70.5194
20
-52.3093
11
69.9479
21
-52.3093
0
LINE
8
Black
10
69.9479
20
-52.3093
11
69.6622
21
-52.4521
0
LINE
8
Black
10
69.6622
20
-52.4521
11
69.5194
21
-52.595
0
LINE
8
Black
10
69.5194
20
-52.595
11
69.3765
21
-52.8807
0
LINE
8
Black
10
72.2337
20
-51.1664
11
72.2337
21
-51.7379
0
LINE
8
Black
10
73.3765
20
-51.1664
11
73.3765
21
-51.7379
0
LINE
8
Black
10
77.8051
20
-55.3093
11
77.6622
21
-55.1664
0
LINE
8
Black
10
77.6622
20
-55.1664
11
77.3765
21
-54.7379
0
LINE
8
Black
10
77.3765
20
-54.7379
11
77.2337
21
-54.4521
0
LINE
8
Black
10
77.2337
20
-54.4521
11
77.0908
21
-54.0236
0
LINE
8
Black
10
77.0908
20
-54.0236
11
76.9479
21
-53.3093
0
LINE
8
Black
10
76.9479
20
-53.3093
11
76.9479
21
-52.7379
0
LINE
8
Black
10
76.9479
20
-52.7379
11
77.0908
21
-52.0236
0
LINE
8
Black
10
77.0908
20
-52.0236
11
77.2337
21
-51.595
0
LINE
8
Black
10
77.2337
20
-51.595
11
77.3765
21
-51.3093
0
LINE
8
Black
10
77.3765
20
-51.3093
11
77.6622
21
-50.8807
0
LINE
8
Black
10
77.6622
20
-50.8807
11
77.8051
21
-50.7379
0
LINE
8
Black
10
80.2337
20
-52.1664
11
80.2337
21
-54.1664
0
LINE
8
Black
10
79.5194
20
-51.0236
11
78.8051
21
-53.1664
0
LINE
8
Black
10
78.8051
20
-53.1664
11
80.6622
21
-53.1664
0
LINE
8
Black
10
83.3765
20
-54.1664
11
81.6622
21
-54.1664
0
LINE
8
Black
10
82.5194
20
-54.1664
11
82.5194
21
-51.1664
0
LINE
8
Black
10
82.5194
20
-51.1664
11
82.2337
21
-51.595
0
LINE
8
Black
10
82.2337
20
-51.595
11
81.9479
21
-51.8807
0
LINE
8
Black
10
81.9479
20
-51.8807
11
81.6622
21
-52.0236
0
LINE
8
Black
10
86.9479
20
-54.1664
11
86.9479
21
-51.1664
0
LINE
8
Black
10
88.2337
20
-54.1664
11
88.2337
21
-52.595
0
LINE
8
Black
10
88.2337
20
-52.595
11
88.0908
21
-52.3093
0
LINE
8
Black
10
88.0908
20
-52.3093
11
87.8051
21
-52.1664
0
LINE
8
Black
10
87.8051
20
-52.1664
11
87.3765
21
-52.1664
0
LINE
8
Black
10
87.3765
20
-52.1664
11
87.0908
21
-52.3093
0
LINE
8
Black
10
87.0908
20
-52.3093
11
86.9479
21
-52.4521
0
LINE
8
Black
10
90.0908
20
-54.1664
11
89.8051
21
-54.0236
0
LINE
8
Black
10
89.8051
20
-54.0236
11
89.6622
21
-53.8807
0
LINE
8
Black
10
89.6622
20
-53.8807
11
89.5194
21
-53.595
0
LINE
8
Black
10
89.5194
20
-53.595
11
89.5194
21
-52.7379
0
LINE
8
Black
10
89.5194
20
-52.7379
11
89.6622
21
-52.4521
0
LINE
8
Black
10
89.6622
20
-52.4521
11
89.8051
21
-52.3093
0
LINE
8
Black
10
89.8051
20
-52.3093
11
90.0908
21
-52.1664
0
LINE
8
Black
10
90.0908
20
-52.1664
11
90.5194
21
-52.1664
0
LINE
8
Black
10
90.5194
20
-52.1664
11
90.8051
21
-52.3093
0
LINE
8
Black
10
90.8051
20
-52.3093
11
90.9479
21
-52.4521
0
LINE
8
Black
10
90.9479
20
-52.4521
11
91.0908
21
-52.7379
0
LINE
8
Black
10
91.0908
20
-52.7379
11
91.0908
21
-53.595
0
LINE
8
Black
10
91.0908
20
-53.595
11
90.9479
21
-53.8807
0
LINE
8
Black
10
90.9479
20
-53.8807
11
90.8051
21
-54.0236
0
LINE
8
Black
10
90.8051
20
-54.0236
11
90.5194
21
-54.1664
0
LINE
8
Black
10
90.5194
20
-54.1664
11
90.0908
21
-54.1664
0
LINE
8
Black
10
92.8051
20
-54.1664
11
92.5194
21
-54.0236
0
LINE
8
Black
10
92.5194
20
-54.0236
11
92.3765
21
-53.7379
0
LINE
8
Black
10
92.3765
20
-53.7379
11
92.3765
21
-51.1664
0
LINE
8
Black
10
95.0908
20
-54.0236
11
94.8051
21
-54.1664
0
LINE
8
Black
10
94.8051
20
-54.1664
11
94.2337
21
-54.1664
0
LINE
8
Black
10
94.2337
20
-54.1664
11
93.9479
21
-54.0236
0
LINE
8
Black
10
93.9479
20
-54.0236
11
93.8051
21
-53.7379
0
LINE
8
Black
10
93.8051
20
-53.7379
11
93.8051
21
-52.595
0
LINE
8
Black
10
93.8051
20
-52.595
11
93.9479
21
-52.3093
0
LINE
8
Black
10
93.9479
20
-52.3093
11
94.2337
21
-52.1664
0
LINE
8
Black
10
94.2337
20
-52.1664
11
94.8051
21
-52.1664
0
LINE
8
Black
10
94.8051
20
-52.1664
11
95.0908
21
-52.3093
0
LINE
8
Black
10
95.0908
20
-52.3093
11
95.2337
21
-52.595
0
LINE
8
Black
10
95.2337
20
-52.595
11
95.2337
21
-52.8807
0
LINE
8
Black
10
95.2337
20
-52.8807
11
93.8051
21
-53.1664
0
LINE
8
Black
10
96.3765
20
-54.0236
11
96.6622
21
-54.1664
0
LINE
8
Black
10
96.6622
20
-54.1664
11
97.2337
21
-54.1664
0
LINE
8
Black
10
97.2337
20
-54.1664
11
97.5194
21
-54.0236
0
LINE
8
Black
10
97.5194
20
-54.0236
11
97.6622
21
-53.7379
0
LINE
8
Black
10
97.6622
20
-53.7379
11
97.6622
21
-53.595
0
LINE
8
Black
10
97.6622
20
-53.595
11
97.5194
21
-53.3093
0
LINE
8
Black
10
97.5194
20
-53.3093
11
97.2337
21
-53.1664
0
LINE
8
Black
10
97.2337
20
-53.1664
11
96.8051
21
-53.1664
0
LINE
8
Black
10
96.8051
20
-53.1664
11
96.5194
21
-53.0236
0
LINE
8
Black
10
96.5194
20
-53.0236
11
96.3765
21
-52.7379
0
LINE
8
Black
10
96.3765
20
-52.7379
11
96.3765
21
-52.595
0
LINE
8
Black
10
96.3765
20
-52.595
11
96.5194
21
-52.3093
0
LINE
8
Black
10
96.5194
20
-52.3093
11
96.8051
21
-52.1664
0
LINE
8
Black
10
96.8051
20
-52.1664
11
97.2337
21
-52.1664
0
LINE
8
Black
10
97.2337
20
-52.1664
11
97.5194
21
-52.3093
0
LINE
8
Black
10
98.6622
20
-55.3093
11
98.8051
21
-55.1664
0
LINE
8
Black
10
98.8051
20
-55.1664
11
99.0908
21
-54.7379
0
LINE
8
Black
10
99.0908
20
-54.7379
11
99.2337
21
-54.4521
0
LINE
8
Black
10
99.2337
20
-54.4521
11
99.3765
21
-54.0236
0
LINE
8
Black
10
99.3765
20
-54.0236
11
99.5194
21
-53.3093
0
LINE
8
Black
10
99.5194
20
-53.3093
11
99.5194
21
-52.7379
0
LINE
8
Black
10
99.5194
20
-52.7379
11
99.3765
21
-52.0236
0
LINE
8
Black
10
99.3765
20
-52.0236
11
99.2337
21
-51.595
0
LINE
8
Black
10
99.2337
20
-51.595
11
99.0908
21
-51.3093
0
LINE
8
Black
10
99.0908
20
-51.3093
11
98.8051
21
-50.8807
0
LINE
8
Black
10
98.8051
20
-50.8807
11
98.6622
21
-50.7379
0
CIRCLE
8
Black
10
30.6844
20
-56.7693
40
0.4064
0
LINE
8
Black
10
34.3765
20
-55.1264
11
34.6622
21
-55.1264
0
LINE
8
Black
10
34.6622
20
-55.1264
11
34.9479
21
-55.2693
0
LINE
8
Black
10
34.9479
20
-55.2693
11
35.0908
21
-55.4121
0
LINE
8
Black
10
35.0908
20
-55.4121
11
35.2337
21
-55.6979
0
LINE
8
Black
10
35.2337
20
-55.6979
11
35.3765
21
-56.2693
0
LINE
8
Black
10
35.3765
20
-56.2693
11
35.3765
21
-56.9836
0
LINE
8
Black
10
35.3765
20
-56.9836
11
35.2337
21
-57.555
0
LINE
8
Black
10
35.2337
20
-57.555
11
35.0908
21
-57.8407
0
LINE
8
Black
10
35.0908
20
-57.8407
11
34.9479
21
-57.9836
0
LINE
8
Black
10
34.9479
20
-57.9836
11
34.6622
21
-58.1264
0
LINE
8
Black
10
34.6622
20
-58.1264
11
34.3765
21
-58.1264
0
LINE
8
Black
10
34.3765
20
-58.1264
11
34.0908
21
-57.9836
0
LINE
8
Black
10
34.0908
20
-57.9836
11
33.9479
21
-57.8407
0
LINE
8
Black
10
33.9479
20
-57.8407
11
33.8051
21
-57.555
0
LINE
8
Black
10
33.8051
20
-57.555
11
33.6622
21
-56.9836
0
LINE
8
Black
10
33.6622
20
-56.9836
11
33.6622
21
-56.2693
0
LINE
8
Black
10
33.6622
20
-56.2693
11
33.8051
21
-55.6979
0
LINE
8
Black
10
33.8051
20
-55.6979
11
33.9479
21
-55.4121
0
LINE
8
Black
10
33.9479
20
-55.4121
11
34.0908
21
-55.2693
0
LINE
8
Black
10
34.0908
20
-55.2693
11
34.3765
21
-55.1264
0
LINE
8
Black
10
36.6622
20
-57.8407
11
36.8051
21
-57.9836
0
LINE
8
Black
10
36.8051
20
-57.9836
11
36.6622
21
-58.1264
0
LINE
8
Black
10
36.6622
20
-58.1264
11
36.5194
21
-57.9836
0
LINE
8
Black
10
36.5194
20
-57.9836
11
36.6622
21
-57.8407
0
LINE
8
Black
10
36.6622
20
-57.8407
11
36.6622
21
-58.1264
0
LINE
8
Black
10
38.5194
20
-56.4121
11
38.2337
21
-56.2693
0
LINE
8
Black
10
38.2337
20
-56.2693
11
38.0908
21
-56.1264
0
LINE
8
Black
10
38.0908
20
-56.1264
11
37.9479
21
-55.8407
0
LINE
8
Black
10
37.9479
20
-55.8407
11
37.9479
21
-55.6979
0
LINE
8
Black
10
37.9479
20
-55.6979
11
38.0908
21
-55.4121
0
LINE
8
Black
10
38.0908
20
-55.4121
11
38.2337
21
-55.2693
0
LINE
8
Black
10
38.2337
20
-55.2693
11
38.5194
21
-55.1264
0
LINE
8
Black
10
38.5194
20
-55.1264
11
39.0908
21
-55.1264
0
LINE
8
Black
10
39.0908
20
-55.1264
11
39.3765
21
-55.2693
0
LINE
8
Black
10
39.3765
20
-55.2693
11
39.5194
21
-55.4121
0
LINE
8
Black
10
39.5194
20
-55.4121
11
39.6622
21
-55.6979
0
LINE
8
Black
10
39.6622
20
-55.6979
11
39.6622
21
-55.8407
0
LINE
8
Black
10
39.6622
20
-55.8407
11
39.5194
21
-56.1264
0
LINE
8
Black
10
39.5194
20
-56.1264
11
39.3765
21
-56.2693
0
LINE
8
Black
10
39.3765
20
-56.2693
11
39.0908
21
-56.4121
0
LINE
8
Black
10
39.0908
20
-56.4121
11
38.5194
21
-56.4121
0
LINE
8
Black
10
38.5194
20
-56.4121
11
38.2337
21
-56.555
0
LINE
8
Black
10
38.2337
20
-56.555
11
38.0908
21
-56.6979
0
LINE
8
Black
10
38.0908
20
-56.6979
11
37.9479
21
-56.9836
0
LINE
8
Black
10
37.9479
20
-56.9836
11
37.9479
21
-57.555
0
LINE
8
Black
10
37.9479
20
-57.555
11
38.0908
21
-57.8407
0
LINE
8
Black
10
38.0908
20
-57.8407
11
38.2337
21
-57.9836
0
LINE
8
Black
10
38.2337
20
-57.9836
11
38.5194
21
-58.1264
0
LINE
8
Black
10
38.5194
20
-58.1264
11
39.0908
21
-58.1264
0
LINE
8
Black
10
39.0908
20
-58.1264
11
39.3765
21
-57.9836
0
LINE
8
Black
10
39.3765
20
-57.9836
11
39.5194
21
-57.8407
0
LINE
8
Black
10
39.5194
20
-57.8407
11
39.6622
21
-57.555
0
LINE
8
Black
10
39.6622
20
-57.555
11
39.6622
21
-56.9836
0
LINE
8
Black
10
39.6622
20
-56.9836
11
39.5194
21
-56.6979
0
LINE
8
Black
10
39.5194
20
-56.6979
11
39.3765
21
-56.555
0
LINE
8
Black
10
39.3765
20
-56.555
11
39.0908
21
-56.4121
0
LINE
8
Black
10
42.5194
20
-58.1264
11
40.8051
21
-58.1264
0
LINE
8
Black
10
41.6622
20
-58.1264
11
41.6622
21
-55.1264
0
LINE
8
Black
10
41.6622
20
-55.1264
11
41.3765
21
-55.555
0
LINE
8
Black
10
41.3765
20
-55.555
11
41.0908
21
-55.8407
0
LINE
8
Black
10
41.0908
20
-55.8407
11
40.8051
21
-55.9836
0
LINE
8
Black
10
43.8051
20
-58.1264
11
43.8051
21
-56.1264
0
LINE
8
Black
10
43.8051
20
-56.4121
11
43.9479
21
-56.2693
0
LINE
8
Black
10
43.9479
20
-56.2693
11
44.2337
21
-56.1264
0
LINE
8
Black
10
44.2337
20
-56.1264
11
44.6622
21
-56.1264
0
LINE
8
Black
10
44.6622
20
-56.1264
11
44.9479
21
-56.2693
0
LINE
8
Black
10
44.9479
20
-56.2693
11
45.0908
21
-56.555
0
LINE
8
Black
10
45.0908
20
-56.555
11
45.0908
21
-58.1264
0
LINE
8
Black
10
45.0908
20
-56.555
11
45.2337
21
-56.2693
0
LINE
8
Black
10
45.2337
20
-56.2693
11
45.5194
21
-56.1264
0
LINE
8
Black
10
45.5194
20
-56.1264
11
45.9479
21
-56.1264
0
LINE
8
Black
10
45.9479
20
-56.1264
11
46.2337
21
-56.2693
0
LINE
8
Black
10
46.2337
20
-56.2693
11
46.3765
21
-56.555
0
LINE
8
Black
10
46.3765
20
-56.555
11
46.3765
21
-58.1264
0
LINE
8
Black
10
47.8051
20
-58.1264
11
47.8051
21
-56.1264
0
LINE
8
Black
10
47.8051
20
-56.4121
11
47.9479
21
-56.2693
0
LINE
8
Black
10
47.9479
20
-56.2693
11
48.2337
21
-56.1264
0
LINE
8
Black
10
48.2337
20
-56.1264
11
48.6622
21
-56.1264
0
LINE
8
Black
10
48.6622
20
-56.1264
11
48.9479
21
-56.2693
0
LINE
8
Black
10
48.9479
20
-56.2693
11
49.0908
21
-56.555
0
LINE
8
Black
10
49.0908
20
-56.555
11
49.0908
21
-58.1264
0
LINE
8
Black
10
49.0908
20
-56.555
11
49.2337
21
-56.2693
0
LINE
8
Black
10
49.2337
20
-56.2693
11
49.5194
21
-56.1264
0
LINE
8
Black
10
49.5194
20
-56.1264
11
49.9479
21
-56.1264
0
LINE
8
Black
10
49.9479
20
-56.1264
11
50.2337
21
-56.2693
0
LINE
8
Black
10
50.2337
20
-56.2693
11
50.3765
21
-56.555
0
LINE
8
Black
10
50.3765
20
-56.555
11
50.3765
21
-58.1264
0
LINE
8
Black
10
56.2337
20
-54.9836
11
53.6622
21
-58.8407
0
LINE
8
Black
10
60.0908
20
-55.1264
11
60.3765
21
-55.1264
0
LINE
8
Black
10
60.3765
20
-55.1264
11
60.6622
21
-55.2693
0
LINE
8
Black
10
60.6622
20
-55.2693
11
60.8051
21
-55.4121
0
LINE
8
Black
10
60.8051
20
-55.4121
11
60.9479
21
-55.6979
0
LINE
8
Black
10
60.9479
20
-55.6979
11
61.0908
21
-56.2693
0
LINE
8
Black
10
61.0908
20
-56.2693
11
61.0908
21
-56.9836
0
LINE
8
Black
10
61.0908
20
-56.9836
11
60.9479
21
-57.555
0
LINE
8
Black
10
60.9479
20
-57.555
11
60.8051
21
-57.8407
0
LINE
8
Black
10
60.8051
20
-57.8407
11
60.6622
21
-57.9836
0
LINE
8
Black
10
60.6622
20
-57.9836
11
60.3765
21
-58.1264
0
LINE
8
Black
10
60.3765
20
-58.1264
11
60.0908
21
-58.1264
0
LINE
8
Black
10
60.0908
20
-58.1264
11
59.8051
21
-57.9836
0
LINE
8
Black
10
59.8051
20
-57.9836
11
59.6622
21
-57.8407
0
LINE
8
Black
10
59.6622
20
-57.8407
11
59.5194
21
-57.555
0
LINE
8
Black
10
59.5194
20
-57.555
11
59.3765
21
-56.9836
0
LINE
8
Black
10
59.3765
20
-56.9836
11
59.3765
21
-56.2693
0
LINE
8
Black
10
59.3765
20
-56.2693
11
59.5194
21
-55.6979
0
LINE
8
Black
10
59.5194
20
-55.6979
11
59.6622
21
-55.4121
0
LINE
8
Black
10
59.6622
20
-55.4121
11
59.8051
21
-55.2693
0
LINE
8
Black
10
59.8051
20
-55.2693
11
60.0908
21
-55.1264
0
LINE
8
Black
10
62.3765
20
-57.8407
11
62.5194
21
-57.9836
0
LINE
8
Black
10
62.5194
20
-57.9836
11
62.3765
21
-58.1264
0
LINE
8
Black
10
62.3765
20
-58.1264
11
62.2337
21
-57.9836
0
LINE
8
Black
10
62.2337
20
-57.9836
11
62.3765
21
-57.8407
0
LINE
8
Black
10
62.3765
20
-57.8407
11
62.3765
21
-58.1264
0
LINE
8
Black
10
64.3765
20
-55.1264
11
64.6622
21
-55.1264
0
LINE
8
Black
10
64.6622
20
-55.1264
11
64.9479
21
-55.2693
0
LINE
8
Black
10
64.9479
20
-55.2693
11
65.0908
21
-55.4121
0
LINE
8
Black
10
65.0908
20
-55.4121
11
65.2337
21
-55.6979
0
LINE
8
Black
10
65.2337
20
-55.6979
11
65.3765
21
-56.2693
0
LINE
8
Black
10
65.3765
20
-56.2693
11
65.3765
21
-56.9836
0
LINE
8
Black
10
65.3765
20
-56.9836
11
65.2337
21
-57.555
0
LINE
8
Black
10
65.2337
20
-57.555
11
65.0908
21
-57.8407
0
LINE
8
Black
10
65.0908
20
-57.8407
11
64.9479
21
-57.9836
0
LINE
8
Black
10
64.9479
20
-57.9836
11
64.6622
21
-58.1264
0
LINE
8
Black
10
64.6622
20
-58.1264
11
64.3765
21
-58.1264
0
LINE
8
Black
10
64.3765
20
-58.1264
11
64.0908
21
-57.9836
0
LINE
8
Black
10
64.0908
20
-57.9836
11
63.9479
21
-57.8407
0
LINE
8
Black
10
63.9479
20
-57.8407
11
63.8051
21
-57.555
0
LINE
8
Black
10
63.8051
20
-57.555
11
63.6622
21
-56.9836
0
LINE
8
Black
10
63.6622
20
-56.9836
11
63.6622
21
-56.2693
0
LINE
8
Black
10
63.6622
20
-56.2693
11
63.8051
21
-55.6979
0
LINE
8
Black
10
63.8051
20
-55.6979
11
63.9479
21
-55.4121
0
LINE
8
Black
10
63.9479
20
-55.4121
11
64.0908
21
-55.2693
0
LINE
8
Black
10
64.0908
20
-55.2693
11
64.3765
21
-55.1264
0
LINE
8
Black
10
66.3765
20
-55.1264
11
68.2337
21
-55.1264
0
LINE
8
Black
10
68.2337
20
-55.1264
11
67.2337
21
-56.2693
0
LINE
8
Black
10
67.2337
20
-56.2693
11
67.6622
21
-56.2693
0
LINE
8
Black
10
67.6622
20
-56.2693
11
67.9479
21
-56.4121
0
LINE
8
Black
10
67.9479
20
-56.4121
11
68.0908
21
-56.555
0
LINE
8
Black
10
68.0908
20
-56.555
11
68.2337
21
-56.8407
0
LINE
8
Black
10
68.2337
20
-56.8407
11
68.2337
21
-57.555
0
LINE
8
Black
10
68.2337
20
-57.555
11
68.0908
21
-57.8407
0
LINE
8
Black
10
68.0908
20
-57.8407
11
67.9479
21
-57.9836
0
LINE
8
Black
10
67.9479
20
-57.9836
11
67.6622
21
-58.1264
0
LINE
8
Black
10
67.6622
20
-58.1264
11
66.8051
21
-58.1264
0
LINE
8
Black
10
66.8051
20
-58.1264
11
66.5194
21
-57.9836
0
LINE
8
Black
10
66.5194
20
-57.9836
11
66.3765
21
-57.8407
0
LINE
8
Black
10
69.3765
20
-55.4121
11
69.5194
21
-55.2693
0
LINE
8
Black
10
69.5194
20
-55.2693
11
69.8051
21
-55.1264
0
LINE
8
Black
10
69.8051
20
-55.1264
11
70.5194
21
-55.1264
0
LINE
8
Black
10
70.5194
20
-55.1264
11
70.8051
21
-55.2693
0
LINE
8
Black
10
70.8051
20
-55.2693
11
70.9479
21
-55.4121
0
LINE
8
Black
10
70.9479
20
-55.4121
11
71.0908
21
-55.6979
0
LINE
8
Black
10
71.0908
20
-55.6979
11
71.0908
21
-55.9836
0
LINE
8
Black
10
71.0908
20
-55.9836
11
70.9479
21
-56.4121
0
LINE
8
Black
10
70.9479
20
-56.4121
11
69.2337
21
-58.1264
0
LINE
8
Black
10
69.2337
20
-58.1264
11
71.0908
21
-58.1264
0
LINE
8
Black
10
72.2337
20
-55.1264
11
72.2337
21
-55.6979
0
LINE
8
Black
10
73.3765
20
-55.1264
11
73.3765
21
-55.6979
0
LINE
8
Black
10
77.8051
20
-59.2693
11
77.6622
21
-59.1264
0
LINE
8
Black
10
77.6622
20
-59.1264
11
77.3765
21
-58.6979
0
LINE
8
Black
10
77.3765
20
-58.6979
11
77.2337
21
-58.4121
0
LINE
8
Black
10
77.2337
20
-58.4121
11
77.0908
21
-57.9836
0
LINE
8
Black
10
77.0908
20
-57.9836
11
76.9479
21
-57.2693
0
LINE
8
Black
10
76.9479
20
-57.2693
11
76.9479
21
-56.6979
0
LINE
8
Black
10
76.9479
20
-56.6979
11
77.0908
21
-55.9836
0
LINE
8
Black
10
77.0908
20
-55.9836
11
77.2337
21
-55.555
0
LINE
8
Black
10
77.2337
20
-55.555
11
77.3765
21
-55.2693
0
LINE
8
Black
10
77.3765
20
-55.2693
11
77.6622
21
-54.8407
0
LINE
8
Black
10
77.6622
20
-54.8407
11
77.8051
21
-54.6979
0
LINE
8
Black
10
78.6622
20
-55.1264
11
80.5194
21
-55.1264
0
LINE
8
Black
10
80.5194
20
-55.1264
11
79.5194
21
-56.2693
0
LINE
8
Black
10
79.5194
20
-56.2693
11
79.9479
21
-56.2693
0
LINE
8
Black
10
79.9479
20
-56.2693
11
80.2337
21
-56.4121
0
LINE
8
Black
10
80.2337
20
-56.4121
11
80.3765
21
-56.555
0
LINE
8
Black
10
80.3765
20
-56.555
11
80.5194
21
-56.8407
0
LINE
8
Black
10
80.5194
20
-56.8407
11
80.5194
21
-57.555
0
LINE
8
Black
10
80.5194
20
-57.555
11
80.3765
21
-57.8407
0
LINE
8
Black
10
80.3765
20
-57.8407
11
80.2337
21
-57.9836
0
LINE
8
Black
10
80.2337
20
-57.9836
11
79.9479
21
-58.1264
0
LINE
8
Black
10
79.9479
20
-58.1264
11
79.0908
21
-58.1264
0
LINE
8
Black
10
79.0908
20
-58.1264
11
78.8051
21
-57.9836
0
LINE
8
Black
10
78.8051
20
-57.9836
11
78.6622
21
-57.8407
0
LINE
8
Black
10
84.0908
20
-58.1264
11
84.0908
21
-55.1264
0
LINE
8
Black
10
85.3765
20
-58.1264
11
85.3765
21
-56.555
0
LINE
8
Black
10
85.3765
20
-56.555
11
85.2337
21
-56.2693
0
LINE
8
Black
10
85.2337
20
-56.2693
11
84.9479
21
-56.1264
0
LINE
8
Black
10
84.9479
20
-56.1264
11
84.5194
21
-56.1264
0
LINE
8
Black
10
84.5194
20
-56.1264
11
84.2337
21
-56.2693
0
LINE
8
Black
10
84.2337
20
-56.2693
11
84.0908
21
-56.4121
0
LINE
8
Black
10
87.2337
20
-58.1264
11
86.9479
21
-57.9836
0
LINE
8
Black
10
86.9479
20
-57.9836
11
86.8051
21
-57.8407
0
LINE
8
Black
10
86.8051
20
-57.8407
11
86.6622
21
-57.555
0
LINE
8
Black
10
86.6622
20
-57.555
11
86.6622
21
-56.6979
0
LINE
8
Black
10
86.6622
20
-56.6979
11
86.8051
21
-56.4121
0
LINE
8
Black
10
86.8051
20
-56.4121
11
86.9479
21
-56.2693
0
LINE
8
Black
10
86.9479
20
-56.2693
11
87.2337
21
-56.1264
0
LINE
8
Black
10
87.2337
20
-56.1264
11
87.6622
21
-56.1264
0
LINE
8
Black
10
87.6622
20
-56.1264
11
87.9479
21
-56.2693
0
LINE
8
Black
10
87.9479
20
-56.2693
11
88.0908
21
-56.4121
0
LINE
8
Black
10
88.0908
20
-56.4121
11
88.2337
21
-56.6979
0
LINE
8
Black
10
88.2337
20
-56.6979
11
88.2337
21
-57.555
0
LINE
8
Black
10
88.2337
20
-57.555
11
88.0908
21
-57.8407
0
LINE
8
Black
10
88.0908
20
-57.8407
11
87.9479
21
-57.9836
0
LINE
8
Black
10
87.9479
20
-57.9836
11
87.6622
21
-58.1264
0
LINE
8
Black
10
87.6622
20
-58.1264
11
87.2337
21
-58.1264
0
LINE
8
Black
10
89.9479
20
-58.1264
11
89.6622
21
-57.9836
0
LINE
8
Black
10
89.6622
20
-57.9836
11
89.5194
21
-57.6979
0
LINE
8
Black
10
89.5194
20
-57.6979
11
89.5194
21
-55.1264
0
LINE
8
Black
10
92.2337
20
-57.9836
11
91.9479
21
-58.1264
0
LINE
8
Black
10
91.9479
20
-58.1264
11
91.3765
21
-58.1264
0
LINE
8
Black
10
91.3765
20
-58.1264
11
91.0908
21
-57.9836
0
LINE
8
Black
10
91.0908
20
-57.9836
11
90.9479
21
-57.6979
0
LINE
8
Black
10
90.9479
20
-57.6979
11
90.9479
21
-56.555
0
LINE
8
Black
10
90.9479
20
-56.555
11
91.0908
21
-56.2693
0
LINE
8
Black
10
91.0908
20
-56.2693
11
91.3765
21
-56.1264
0
LINE
8
Black
10
91.3765
20
-56.1264
11
91.9479
21
-56.1264
0
LINE
8
Black
10
91.9479
20
-56.1264
11
92.2337
21
-56.2693
0
LINE
8
Black
10
92.2337
20
-56.2693
11
92.3765
21
-56.555
0
LINE
8
Black
10
92.3765
20
-56.555
11
92.3765
21
-56.8407
0
LINE
8
Black
10
92.3765
20
-56.8407
11
90.9479
21
-57.1264
0
LINE
8
Black
10
93.5194
20
-57.9836
11
93.8051
21
-58.1264
0
LINE
8
Black
10
93.8051
20
-58.1264
11
94.3765
21
-58.1264
0
LINE
8
Black
10
94.3765
20
-58.1264
11
94.6622
21
-57.9836
0
LINE
8
Black
10
94.6622
20
-57.9836
11
94.8051
21
-57.6979
0
LINE
8
Black
10
94.8051
20
-57.6979
11
94.8051
21
-57.555
0
LINE
8
Black
10
94.8051
20
-57.555
11
94.6622
21
-57.2693
0
LINE
8
Black
10
94.6622
20
-57.2693
11
94.3765
21
-57.1264
0
LINE
8
Black
10
94.3765
20
-57.1264
11
93.9479
21
-57.1264
0
LINE
8
Black
10
93.9479
20
-57.1264
11
93.6622
21
-56.9836
0
LINE
8
Black
10
93.6622
20
-56.9836
11
93.5194
21
-56.6979
0
LINE
8
Black
10
93.5194
20
-56.6979
11
93.5194
21
-56.555
0
LINE
8
Black
10
93.5194
20
-56.555
11
93.6622
21
-56.2693
0
LINE
8
Black
10
93.6622
20
-56.2693
11
93.9479
21
-56.1264
0
LINE
8
Black
10
93.9479
20
-56.1264
11
94.3765
21
-56.1264
0
LINE
8
Black
10
94.3765
20
-56.1264
11
94.6622
21
-56.2693
0
LINE
8
Black
10
95.8051
20
-59.2693
11
95.9479
21
-59.1264
0
LINE
8
Black
10
95.9479
20
-59.1264
11
96.2337
21
-58.6979
0
LINE
8
Black
10
96.2337
20
-58.6979
11
96.3765
21
-58.4121
0
LINE
8
Black
10
96.3765
20
-58.4121
11
96.5194
21
-57.9836
0
LINE
8
Black
10
96.5194
20
-57.9836
11
96.6622
21
-57.2693
0
LINE
8
Black
10
96.6622
20
-57.2693
11
96.6622
21
-56.6979
0
LINE
8
Black
10
96.6622
20
-56.6979
11
96.5194
21
-55.9836
0
LINE
8
Black
10
96.5194
20
-55.9836
11
96.3765
21
-55.555
0
LINE
8
Black
10
96.3765
20
-55.555
11
96.2337
21
-55.2693
0
LINE
8
Black
10
96.2337
20
-55.2693
11
95.9479
21
-54.8407
0
LINE
8
Black
10
95.9479
20
-54.8407
11
95.8051
21
-54.6979
  0
ENDSEC
  0
EOF
