G04 #@! TF.FileFunction,Copper,L2,Bot,Signal*
%FSLAX46Y46*%
G04 Gerber Fmt 4.6, Leading zero omitted, Abs format (unit mm)*
G04 Created by KiCad (PCBNEW 4.0.2-stable) date 04.08.2016 21:20:42*
%MOMM*%
G01*
G04 APERTURE LIST*
%ADD10C,0.100000*%
%ADD11C,0.300000*%
%ADD12R,2.000000X1.400000*%
%ADD13R,2.000000X1.100000*%
%ADD14R,1.200000X0.900000*%
%ADD15R,2.000000X1.600000*%
%ADD16C,1.397000*%
%ADD17C,3.000000*%
%ADD18R,1.200000X0.750000*%
%ADD19C,0.600000*%
%ADD20C,0.250000*%
G04 APERTURE END LIST*
D10*
D11*
X32455598Y-41673328D02*
X34455598Y-41673328D01*
X33027027Y-41006661D01*
X34455598Y-40339994D01*
X32455598Y-40339994D01*
X32550836Y-38625709D02*
X32455598Y-38816185D01*
X32455598Y-39197137D01*
X32550836Y-39387614D01*
X32741312Y-39482852D01*
X33503217Y-39482852D01*
X33693693Y-39387614D01*
X33788931Y-39197137D01*
X33788931Y-38816185D01*
X33693693Y-38625709D01*
X33503217Y-38530471D01*
X33312741Y-38530471D01*
X33122265Y-39482852D01*
X34455598Y-37863804D02*
X32455598Y-37387613D01*
X33884170Y-37006661D01*
X32455598Y-36625708D01*
X34455598Y-36149518D01*
X34265122Y-35482852D02*
X34360360Y-35387614D01*
X34455598Y-35197137D01*
X34455598Y-34720947D01*
X34360360Y-34530471D01*
X34265122Y-34435233D01*
X34074646Y-34339994D01*
X33884170Y-34339994D01*
X33598455Y-34435233D01*
X32455598Y-35578090D01*
X32455598Y-34339994D01*
D12*
X39900500Y-41033500D03*
D13*
X39900500Y-39433500D03*
D12*
X39900500Y-37833500D03*
X44300500Y-37833500D03*
D13*
X44300500Y-39433500D03*
D12*
X44300500Y-41033500D03*
D14*
X63543000Y-36576000D03*
X65743000Y-36576000D03*
D15*
X51275000Y-40640000D03*
X56675000Y-40640000D03*
X69946500Y-40703500D03*
X64546500Y-40703500D03*
X51275000Y-31940500D03*
X56675000Y-31940500D03*
X70010000Y-32067500D03*
X64610000Y-32067500D03*
X39781500Y-31940500D03*
X45181500Y-31940500D03*
D16*
X46736000Y-40640000D03*
X54102000Y-41973500D03*
X47815500Y-30416500D03*
D17*
X35915600Y-31800800D03*
D18*
X54036000Y-36880800D03*
X52136000Y-36880800D03*
D19*
X61785500Y-38862000D03*
X44958000Y-30289500D03*
X39814500Y-30226000D03*
X62166500Y-33655000D03*
X62039500Y-36385500D03*
X68453000Y-35115500D03*
X62039500Y-35115500D03*
X53086000Y-35941000D03*
X60325000Y-41402000D03*
X61468000Y-40640000D03*
X54737000Y-32639000D03*
X62166500Y-31242000D03*
X46545500Y-32575500D03*
X48514000Y-40894000D03*
X55562500Y-34925000D03*
X39116000Y-35560000D03*
X36766500Y-36639500D03*
X68834000Y-42100500D03*
X62230000Y-42100500D03*
X56235600Y-36068000D03*
X57912000Y-35242500D03*
X54229000Y-35814000D03*
X69405500Y-35496500D03*
X59626500Y-31623000D03*
X67754500Y-38290500D03*
X41783000Y-40767000D03*
X41719500Y-39243000D03*
X41719500Y-37655500D03*
X61468000Y-32067500D03*
X55499000Y-33274000D03*
X59563000Y-39052500D03*
X58864500Y-36639500D03*
X58864500Y-33591500D03*
X55676800Y-37388800D03*
X67246500Y-33591500D03*
X50419000Y-42481500D03*
X55626000Y-42164000D03*
X61785500Y-37338000D03*
X55181500Y-38036500D03*
X36766500Y-41910000D03*
X58166000Y-36068000D03*
D20*
X62357000Y-38290500D02*
X62357000Y-37762000D01*
X62357000Y-38290500D02*
X61785500Y-38862000D01*
X62357000Y-37762000D02*
X63543000Y-36576000D01*
X41021000Y-30099000D02*
X41021000Y-30035500D01*
X41084500Y-30035500D02*
X41021000Y-30099000D01*
X44704000Y-30035500D02*
X41084500Y-30035500D01*
X44958000Y-30289500D02*
X44704000Y-30035500D01*
X41021000Y-30035500D02*
X41211500Y-30035500D01*
X39814500Y-30226000D02*
X40005000Y-30035500D01*
X40005000Y-30035500D02*
X41021000Y-30035500D01*
X61341000Y-34480500D02*
X62166500Y-33655000D01*
X61341000Y-35687000D02*
X61341000Y-34480500D01*
X62039500Y-36385500D02*
X61341000Y-35687000D01*
X68580000Y-35115500D02*
X68453000Y-35115500D01*
X62039500Y-35115500D02*
X68580000Y-35115500D01*
X46736000Y-37338000D02*
X46736000Y-40640000D01*
X48450500Y-35623500D02*
X46736000Y-37338000D01*
X52768500Y-35623500D02*
X48450500Y-35623500D01*
X53086000Y-35941000D02*
X52768500Y-35623500D01*
X59563000Y-40640000D02*
X56675000Y-40640000D01*
X60325000Y-41402000D02*
X59563000Y-40640000D01*
X61531500Y-40703500D02*
X64546500Y-40703500D01*
X61468000Y-40640000D02*
X61531500Y-40703500D01*
X56675000Y-32639000D02*
X54737000Y-32639000D01*
X64610000Y-32067500D02*
X62992000Y-32067500D01*
X62992000Y-32067500D02*
X62166500Y-31242000D01*
X44800500Y-32575500D02*
X46545500Y-32575500D01*
X52136000Y-36880800D02*
X49377600Y-36880800D01*
X48514000Y-37744400D02*
X48514000Y-40894000D01*
X49377600Y-36880800D02*
X48514000Y-37744400D01*
X55689500Y-35750500D02*
X57404000Y-35750500D01*
X57404000Y-35750500D02*
X57912000Y-35242500D01*
X54229000Y-35814000D02*
X55372000Y-35814000D01*
X55372000Y-35814000D02*
X55562500Y-35623500D01*
X37846000Y-35560000D02*
X39116000Y-35560000D01*
X36766500Y-36639500D02*
X37846000Y-35560000D01*
X62230000Y-42100500D02*
X68834000Y-42100500D01*
X55562500Y-34925000D02*
X55562500Y-35623500D01*
X55562500Y-35623500D02*
X55689500Y-35750500D01*
X55689500Y-35750500D02*
X56235600Y-36068000D01*
X69405500Y-35496500D02*
X69405500Y-34226500D01*
X69405500Y-34226500D02*
X65722500Y-30543500D01*
X65722500Y-30543500D02*
X61849000Y-30543500D01*
X61849000Y-30543500D02*
X61277500Y-31115000D01*
X61277500Y-31115000D02*
X60896500Y-31496000D01*
X59753500Y-31496000D02*
X59626500Y-31623000D01*
X60896500Y-31496000D02*
X59753500Y-31496000D01*
X61277500Y-31115000D02*
X61214000Y-31178500D01*
X65743000Y-36576000D02*
X65743000Y-37422000D01*
X66611500Y-38290500D02*
X67754500Y-38290500D01*
X65743000Y-37422000D02*
X66611500Y-38290500D01*
X39900500Y-41033500D02*
X41516500Y-41033500D01*
X41516500Y-41033500D02*
X41783000Y-40767000D01*
X41465500Y-39433500D02*
X41656000Y-39243000D01*
X41656000Y-39243000D02*
X41719500Y-39243000D01*
X41465500Y-39433500D02*
X39900500Y-39433500D01*
X41541500Y-37833500D02*
X41719500Y-37655500D01*
X39900500Y-37833500D02*
X41541500Y-37833500D01*
X53594000Y-34798000D02*
X54419500Y-34798000D01*
X60896500Y-32639000D02*
X61468000Y-32067500D01*
X58801000Y-32639000D02*
X60896500Y-32639000D01*
X58039000Y-33401000D02*
X58801000Y-32639000D01*
X57086500Y-33401000D02*
X58039000Y-33401000D01*
X56388000Y-34099500D02*
X57086500Y-33401000D01*
X55118000Y-34099500D02*
X56388000Y-34099500D01*
X54419500Y-34798000D02*
X55118000Y-34099500D01*
X44300500Y-37833500D02*
X44300500Y-35011000D01*
X44513500Y-34798000D02*
X53594000Y-34798000D01*
X53594000Y-34798000D02*
X53657500Y-34798000D01*
X44300500Y-35011000D02*
X44513500Y-34798000D01*
X42608500Y-39433500D02*
X44300500Y-39433500D01*
X42418000Y-39243000D02*
X42608500Y-39433500D01*
X42418000Y-35814000D02*
X42418000Y-39243000D01*
X44005500Y-34226500D02*
X42418000Y-35814000D01*
X50038000Y-34226500D02*
X44005500Y-34226500D01*
X50800000Y-33464500D02*
X50038000Y-34226500D01*
X55308500Y-33464500D02*
X50800000Y-33464500D01*
X55499000Y-33274000D02*
X55308500Y-33464500D01*
X50292000Y-38665998D02*
X49726002Y-38665998D01*
X45050000Y-41783000D02*
X44300500Y-41033500D01*
X49212500Y-41783000D02*
X45050000Y-41783000D01*
X49720500Y-41275000D02*
X49212500Y-41783000D01*
X49720500Y-38671500D02*
X49720500Y-41275000D01*
X49726002Y-38665998D02*
X49720500Y-38671500D01*
X59176498Y-38665998D02*
X50292000Y-38665998D01*
X50292000Y-38665998D02*
X50234002Y-38665998D01*
X59563000Y-39052500D02*
X59176498Y-38665998D01*
X58801000Y-36576000D02*
X58864500Y-36639500D01*
X58801000Y-33655000D02*
X58801000Y-36576000D01*
X58864500Y-33591500D02*
X58801000Y-33655000D01*
X62801500Y-32956500D02*
X63436500Y-33591500D01*
X61595000Y-32956500D02*
X62801500Y-32956500D01*
X60769500Y-33782000D02*
X61595000Y-32956500D01*
X60769500Y-37084000D02*
X60769500Y-33782000D01*
X60452000Y-37401500D02*
X60769500Y-37084000D01*
X55676800Y-37388800D02*
X60452000Y-37401500D01*
X63436500Y-33591500D02*
X67246500Y-33591500D01*
X50419000Y-42481500D02*
X52070000Y-42481500D01*
X55181500Y-41719500D02*
X55626000Y-42164000D01*
X55181500Y-40957500D02*
X55181500Y-41719500D01*
X54610000Y-40386000D02*
X55181500Y-40957500D01*
X53149500Y-40386000D02*
X54610000Y-40386000D01*
X52832000Y-40703500D02*
X53149500Y-40386000D01*
X52832000Y-41719500D02*
X52832000Y-40703500D01*
X52070000Y-42481500D02*
X52832000Y-41719500D01*
X55181500Y-38036500D02*
X61087000Y-38036500D01*
X61087000Y-38036500D02*
X61785500Y-37338000D01*
X39781500Y-31940500D02*
X42354500Y-31940500D01*
X49560500Y-33655000D02*
X51275000Y-31940500D01*
X44069000Y-33655000D02*
X49560500Y-33655000D01*
X42354500Y-31940500D02*
X44069000Y-33655000D01*
X51656000Y-31907500D02*
X51656000Y-32067500D01*
X36766500Y-41910000D02*
X37782500Y-41910000D01*
X49560500Y-42354500D02*
X51275000Y-40640000D01*
X38227000Y-42354500D02*
X49560500Y-42354500D01*
X37782500Y-41910000D02*
X38227000Y-42354500D01*
X69946500Y-40703500D02*
X69532500Y-40703500D01*
X69532500Y-40703500D02*
X68326000Y-39497000D01*
X68326000Y-39497000D02*
X62738000Y-39497000D01*
X62738000Y-39497000D02*
X62547500Y-39687500D01*
X62547500Y-39687500D02*
X59182000Y-39687500D01*
X59182000Y-39687500D02*
X58610500Y-39116000D01*
X58610500Y-39116000D02*
X52799000Y-39116000D01*
X52799000Y-39116000D02*
X51275000Y-40640000D01*
X70010000Y-32067500D02*
X70010000Y-34704000D01*
X70421500Y-35115500D02*
X70421500Y-40228500D01*
X70010000Y-34704000D02*
X70421500Y-35115500D01*
X70421500Y-40228500D02*
X69946500Y-40703500D01*
X51625500Y-32288500D02*
X51275000Y-32639000D01*
X39400500Y-32575500D02*
X39687500Y-32575500D01*
X39400500Y-32575500D02*
X39400500Y-32862500D01*
X39400500Y-32862500D02*
X35941000Y-36322000D01*
X35941000Y-36322000D02*
X35941000Y-41084500D01*
X35941000Y-41084500D02*
X36766500Y-41910000D01*
X57708800Y-36322000D02*
X57912000Y-36322000D01*
X57912000Y-36322000D02*
X58166000Y-36068000D01*
X54864000Y-36880800D02*
X54036000Y-36880800D01*
X55270400Y-36474400D02*
X54864000Y-36880800D01*
X55676800Y-36474400D02*
X55270400Y-36474400D01*
X56134000Y-36931600D02*
X55676800Y-36474400D01*
X57099200Y-36931600D02*
X56134000Y-36931600D01*
X57708800Y-36322000D02*
X57099200Y-36931600D01*
M02*
