;PTH Drill file created by EasyEDA 
M48
INCH,LZ
;Holesize 1 = 0.012 INCH
T01C0.012
;Holesize 2 = 0.028 INCH
T02C0.028
%
G05
G90
T01
X002631Y004598
X005531Y004398
X001631Y004698
X003031Y009598
X003431Y004098
X002031Y004098
X003931Y007798
X004531Y009998
X004231Y010798
X004231Y011198
X004211Y011738
X004831Y007898
X003331Y009298
X005031Y005098
X005131Y002798
X002695Y008133
X002161Y011867
X008331Y004498
X007431Y004498
X004631Y006298
X007331Y002798
X004131Y001298
X008231Y001498
X014331Y000998
X013831Y000498
X016291Y004798
X017531Y002298
X017131Y004398
X017131Y003698
X017131Y002298
X015941Y001407
X016451Y005167
X018211Y003967
X015831Y000498
X014521Y005138
X019791Y004567
X021941Y005838
X022791Y005848
X021951Y006528
X022551Y006838
X014331Y005428
X019981Y004328
X014691Y009217
X015291Y008238
X015101Y009217
X016241Y006007
X007841Y008528
X011761Y010767
X006911Y000638
X009211Y001857
X009931Y002228
X011131Y003178
X021241Y001717
X022391Y006528
X018271Y001778
X014021Y003167
X010391Y006107
X010311Y005757
X010951Y005917
X011201Y005657
X009341Y007788
X009001Y007728
X010611Y003388
X008961Y004007
X010611Y003817
X008961Y004407
X003371Y014657
X002851Y014638
X014511Y004788
X008951Y004978
X003571Y014348
X002881Y014307
X013931Y003857
X008531Y005438
X013721Y004107
X008531Y005807
X003761Y013857
X002891Y013707
X005011Y012902
X003371Y012978
X020131Y006028
X022731Y007867
X012951Y007228
X015661Y007907
X017881Y005978
X018221Y010988
X013741Y001148
X018741Y011257
X012351Y007307
X012881Y006857
X014641Y010317
X014171Y010198
X014281Y007198
X013891Y007198
X014991Y010357
X015431Y010398
X014441Y011078
X017041Y011017
X014801Y011317
X017621Y011017
X021841Y007578
X020461Y008607
X020861Y008628
X014361Y013857
X014371Y013338
X018761Y008288
X018121Y009617
X020381Y009157
X018681Y009528
X010691Y004967
X011721Y005078
X009251Y011338
X009261Y011028
X009251Y010707
X009251Y010378
X008451Y009007
X008031Y009017
X010021Y012107
X013381Y010028
X013061Y008528
X014931Y005807
X008301Y000438
X009181Y001157
T02
X000328Y006690G85X000840Y006690
X000328Y010705G85X000840Y010705
X001785Y010705G85X002297Y010705
X001785Y006690G85X002297Y006690
M30
