G04 ---------------------------- Layer name :BOTTOM LAYER*
G04 EasyEDA v5.7.22, Tue, 28 Aug 2018 07:39:09 GMT*
G04 bfd24f9e386c429bb71d77877026fdf2*
G04 Gerber Generator version 0.2*
G04 Scale: 100 percent, Rotated: No, Reflected: No *
G04 Dimensions in inches *
G04 leading zeros omitted , absolute positions ,2 integer and 4 decimal *
%FSLAX24Y24*%
%MOIN*%
G90*
G70D02*

%ADD13C,0.020000*%
%ADD14C,0.010000*%
%ADD18C,0.024400*%
%ADD38C,0.051181*%
%ADD39R,0.196850X0.023620*%

%LPD*%
G54D13*
G01X2631Y4598D02*
G01X5331Y4598D01*
G01X5531Y4398D01*
G01X6631Y5998D02*
G01X6631Y5598D01*
G01X6331Y5298D01*
G01X6031Y5298D01*
G01X5331Y4598D01*
G01X1631Y4698D02*
G01X1731Y4698D01*
G01X3031Y5598D01*
G01X3031Y8598D01*
G01X3031Y9598D01*
G01X3431Y4098D02*
G01X2031Y4098D01*
G54D14*
G01X6631Y9148D02*
G01X4981Y9148D01*
G01X4531Y9598D01*
G01X4531Y9998D01*
G01X6631Y9463D02*
G01X4966Y9463D01*
G01X4831Y9598D01*
G01X4831Y10198D01*
G01X4231Y10798D01*
G01X6631Y9776D02*
G01X5152Y9776D01*
G01X5031Y9898D01*
G01X5031Y10398D01*
G01X4231Y11198D01*
G01X4211Y11738D02*
G01X4331Y11617D01*
G01X4331Y11498D01*
G01X5231Y10598D01*
G01X5231Y10098D01*
G01X6631Y10091D01*
G54D13*
G01X3031Y9598D02*
G01X4031Y9598D01*
G01X4731Y8898D01*
G01X4831Y8798D01*
G01X5031Y8798D01*
G01X6596Y8798D01*
G01X6631Y8832D01*
G01X6631Y8517D02*
G01X5451Y8517D01*
G01X4831Y7898D01*
G01X3331Y9298D02*
G01X3331Y7498D01*
G01X4231Y6198D01*
G01X5031Y5098D01*
G01X5131Y2798D02*
G01X5131Y3998D01*
G01X5531Y4398D01*
G54D14*
G01X2695Y8134D02*
G01X2695Y10934D01*
G01X2431Y11198D01*
G01X2431Y11598D01*
G01X2161Y11867D01*
G01X8331Y4498D02*
G01X7431Y4498D01*
G01X3931Y7798D02*
G01X3931Y7498D01*
G01X4431Y6998D01*
G01X4431Y6498D01*
G01X4631Y6298D01*
G54D13*
G01X5131Y2798D02*
G01X7331Y2798D01*
G01X4131Y1298D02*
G01X8031Y1298D01*
G01X8231Y1498D01*
G01X13831Y498D02*
G01X14331Y998D01*
G01X17131Y3698D02*
G01X17131Y4398D01*
G01X16291Y4798D02*
G01X17231Y4798D01*
G01X17531Y4498D01*
G01X17531Y2298D01*
G01X14331Y998D02*
G01X15111Y1167D01*
G01X15941Y1407D01*
G01X15941Y1407D01*
G01X17131Y2298D02*
G01X17131Y3698D01*
G01X18211Y3967D02*
G01X18211Y4348D01*
G01X17391Y5167D01*
G01X16451Y5167D01*
G01X13831Y498D02*
G01X15831Y498D01*
G54D14*
G01X19791Y4567D02*
G01X18421Y4567D01*
G01X17531Y5457D01*
G01X16281Y5457D01*
G01X15931Y5107D01*
G01X14551Y5107D01*
G01X14521Y5138D01*
G01X21941Y5838D02*
G01X21941Y6517D01*
G01X21951Y6528D01*
G01X22791Y5848D02*
G01X22791Y6598D01*
G01X22551Y6838D01*
G01X14331Y5428D02*
G01X15931Y5428D01*
G01X16201Y5698D01*
G01X17591Y5698D01*
G01X18461Y4828D01*
G01X19961Y4828D01*
G01X20131Y4657D01*
G01X20131Y4478D01*
G01X19981Y4328D01*
G54D13*
G01X14691Y9217D02*
G01X14691Y8567D01*
G01X14971Y8288D01*
G01X15241Y8288D01*
G01X15291Y8238D01*
G01X16241Y6007D02*
G01X16241Y7867D01*
G01X15241Y8867D01*
G01X15241Y9078D01*
G01X15101Y9217D01*
G01X6631Y8517D02*
G01X7831Y8517D01*
G01X7841Y8528D01*
G01X15101Y9217D02*
G01X15960Y9217D01*
G01X15964Y10778D01*
G01X11771Y10778D01*
G01X11761Y10767D01*
G54D14*
G01X6910Y637D02*
G01X7990Y637D01*
G01X9211Y1857D01*
G01X9931Y2228D02*
G01X9941Y2228D01*
G01X10851Y3138D01*
G01X11091Y3138D01*
G01X11131Y3178D01*
G01X21241Y1717D02*
G01X21241Y4348D01*
G01X22361Y5467D01*
G01X22361Y6498D01*
G01X22391Y6528D01*
G01X18271Y1778D02*
G01X16863Y1936D01*
G01X16101Y2698D01*
G01X16101Y3067D01*
G01X15501Y3188D01*
G01X14861Y3278D01*
G01X14551Y3317D01*
G01X14191Y3167D01*
G01X14021Y3167D01*
G01X6631Y6313D02*
G01X9756Y6313D01*
G01X10311Y5757D01*
G01X6631Y6628D02*
G01X7831Y6628D01*
G01X7961Y6498D01*
G01X10081Y6488D01*
G01X10081Y6417D01*
G01X10391Y6107D01*
G01X6631Y6942D02*
G01X7776Y6942D01*
G01X8041Y6678D01*
G01X10191Y6678D01*
G01X10951Y5917D01*
G01X11201Y5657D02*
G01X11191Y6007D01*
G01X11001Y6507D01*
G01X10971Y6657D01*
G01X10801Y6888D01*
G01X8131Y6848D01*
G01X7741Y7238D01*
G01X6651Y7238D01*
G01X6631Y7257D01*
G01X6631Y7888D02*
G01X9181Y7988D01*
G01X9341Y7788D01*
G01X9001Y7728D02*
G01X8471Y7728D01*
G01X8371Y7628D01*
G01X7861Y7688D01*
G01X7731Y7557D01*
G01X6646Y7557D01*
G01X6631Y7573D01*
G01X10611Y3388D02*
G01X10541Y3388D01*
G01X10381Y3228D01*
G01X9741Y3228D01*
G01X8961Y4007D01*
G01X10611Y3817D02*
G01X10611Y3757D01*
G01X10281Y3428D01*
G01X9791Y3428D01*
G01X9241Y3978D01*
G01X9241Y4128D01*
G01X8961Y4407D01*
G01X3370Y14658D02*
G01X2871Y14658D01*
G01X2851Y14638D01*
G01X14511Y4788D02*
G01X14491Y3528D01*
G01X11201Y3657D01*
G01X10841Y4098D01*
G01X10381Y4088D01*
G01X10261Y3898D01*
G01X10261Y3698D01*
G01X10201Y3638D01*
G01X10041Y3638D01*
G01X9241Y4438D01*
G01X9241Y4688D01*
G01X8951Y4978D01*
G01X2881Y14307D02*
G01X3570Y14307D01*
G01X3570Y14348D01*
G01X13931Y3857D02*
G01X13421Y3857D01*
G01X13401Y3838D01*
G01X11301Y3838D01*
G01X11181Y3957D01*
G01X11181Y4028D01*
G01X10941Y4267D01*
G01X9711Y4267D01*
G01X9611Y4367D01*
G01X9611Y4598D01*
G01X9241Y4967D01*
G01X9241Y5107D01*
G01X9041Y5307D01*
G01X8601Y5307D01*
G01X8531Y5438D01*
G01X13721Y4107D02*
G01X13341Y4107D01*
G01X13241Y4007D01*
G01X11481Y4007D01*
G01X11041Y4457D01*
G01X10021Y4457D01*
G01X9471Y5007D01*
G01X9471Y5157D01*
G01X9171Y5457D01*
G01X9161Y5457D01*
G01X9081Y5538D01*
G01X8791Y5538D01*
G01X8701Y5628D01*
G01X8681Y5628D01*
G01X8591Y5717D01*
G01X8591Y5748D01*
G01X8531Y5807D01*
G01X2891Y13708D02*
G01X3611Y13708D01*
G01X3761Y13857D01*
G01X5011Y12902D02*
G01X3446Y12902D01*
G01X3370Y12978D01*
G54D13*
G01X20131Y6028D02*
G01X21051Y6028D01*
G01X21451Y6428D01*
G01X21451Y6588D01*
G01X21921Y7057D01*
G01X21921Y7057D01*
G01X22731Y7867D01*
G54D14*
G01X12951Y7228D02*
G01X13221Y6748D01*
G01X13941Y6717D01*
G01X14211Y6607D01*
G01X15661Y7907D01*
G01X17881Y5978D02*
G01X17881Y10388D01*
G01X18051Y10557D01*
G01X18221Y10988D01*
G01X13741Y1148D02*
G01X13991Y1148D01*
G01X14131Y1238D01*
G01X14241Y1298D01*
G01X14491Y1328D01*
G01X15611Y1578D01*
G01X15811Y1657D01*
G01X16061Y1657D01*
G01X16291Y1428D01*
G01X16291Y1038D01*
G01X16501Y828D01*
G01X20531Y828D01*
G01X20801Y1088D01*
G01X20801Y5048D01*
G01X20221Y5628D01*
G01X20111Y5628D01*
G01X19811Y5928D01*
G01X19811Y6188D01*
G01X20021Y6398D01*
G01X19411Y7007D01*
G01X19411Y9405D01*
G01X18741Y10076D01*
G01X18741Y11257D01*
G01X12881Y6857D02*
G01X12881Y6878D01*
G01X12621Y7138D01*
G01X12621Y7407D01*
G01X12911Y7728D01*
G01X13891Y8398D01*
G01X13981Y8728D01*
G01X13981Y9507D01*
G01X14309Y9836D01*
G01X14641Y10317D01*
G01X12351Y7308D02*
G01X12351Y7437D01*
G01X12801Y7887D01*
G01X13741Y8517D01*
G01X13801Y8798D01*
G01X13820Y9087D01*
G01X13820Y9847D01*
G01X14171Y10198D01*
G01X13891Y7198D02*
G01X13891Y8107D01*
G01X14051Y8298D01*
G01X14157Y8663D01*
G01X14211Y9367D01*
G01X14521Y9698D01*
G01X15301Y9698D01*
G01X14991Y10357D01*
G01X14281Y7198D02*
G01X14411Y9338D01*
G01X14591Y9488D01*
G01X15491Y9507D01*
G01X15431Y10398D01*
G01X17621Y11017D02*
G01X17621Y11288D01*
G01X17341Y11567D01*
G01X16601Y11567D01*
G01X16101Y11067D01*
G01X14451Y11067D01*
G01X14441Y11078D01*
G01X17041Y11017D02*
G01X17171Y11017D01*
G01X17441Y10748D01*
G01X17771Y10748D01*
G01X17911Y10888D01*
G01X17911Y11407D01*
G01X17571Y11748D01*
G01X16351Y11748D01*
G01X15961Y11357D01*
G01X14841Y11357D01*
G01X14801Y11317D01*
G01X21841Y7578D02*
G01X21841Y7536D01*
G01X22120Y7257D01*
G01X20860Y8628D02*
G01X20860Y9458D01*
G01X19391Y10837D01*
G01X19431Y11567D01*
G01X19320Y11728D01*
G01X18841Y12098D01*
G01X17081Y13857D01*
G01X14361Y13857D01*
G01X20460Y8608D02*
G01X20460Y8717D01*
G01X20670Y8928D01*
G01X20670Y9355D01*
G01X20341Y9467D01*
G01X19181Y10798D01*
G01X19220Y11528D01*
G01X18760Y11917D01*
G01X17201Y13328D01*
G01X14381Y13328D01*
G01X14371Y13338D01*
G01X18761Y8288D02*
G01X18761Y8978D01*
G01X18121Y9617D01*
G01X20381Y9157D02*
G01X18991Y10748D01*
G01X19041Y11467D01*
G01X18661Y11738D01*
G01X18441Y11367D01*
G01X18481Y10717D01*
G01X18521Y9928D01*
G01X18681Y9528D01*
G01X10691Y4967D02*
G01X11231Y4967D01*
G01X11721Y5078D01*
G01X6630Y11352D02*
G01X9236Y11352D01*
G01X9251Y11338D01*
G01X6630Y11037D02*
G01X9251Y11037D01*
G01X9261Y11028D01*
G01X6630Y10722D02*
G01X9236Y10722D01*
G01X9251Y10707D01*
G01X6630Y10407D02*
G01X9221Y10407D01*
G01X9251Y10378D01*
G01X8451Y9007D02*
G01X9501Y9007D01*
G01X9951Y9458D01*
G01X11160Y9458D01*
G01X13820Y9460D01*
G01X13820Y9398D01*
G01X14641Y10317D02*
G01X14641Y10428D01*
G01X14521Y10548D01*
G01X14131Y10548D01*
G01X13940Y10428D01*
G01X13851Y10267D01*
G01X13651Y9938D01*
G01X13651Y9688D01*
G01X13621Y9657D01*
G01X10271Y9657D01*
G01X9741Y10057D01*
G01X9271Y10067D01*
G01X8031Y9017D01*
G01X10021Y12107D02*
G01X10021Y11517D01*
G01X10060Y11478D01*
G01X10091Y10228D01*
G01X10460Y9878D01*
G01X13070Y9878D01*
G01X13381Y10028D01*
G01X14931Y5807D02*
G01X13421Y5807D01*
G01X11971Y7257D01*
G01X11971Y7517D01*
G01X12121Y7667D01*
G01X12201Y7667D01*
G01X13061Y8528D01*
G01X8301Y438D02*
G01X8461Y438D01*
G01X9181Y1157D01*
G01X6631Y5998D02*
G01X5161Y5998D01*
G01X5151Y5988D01*
G01X5151Y7838D01*
G01X5521Y8207D01*
G01X6625Y8207D01*
G01X6631Y8202D01*
G54D39*
G01X6631Y5998D03*
G01X6631Y6313D03*
G01X6631Y6628D03*
G01X6631Y6942D03*
G01X6631Y7257D03*
G01X6631Y7573D03*
G01X6631Y7888D03*
G01X6631Y8203D03*
G01X6631Y8517D03*
G01X6631Y8832D03*
G01X6631Y9147D03*
G01X6631Y9462D03*
G01X6631Y9777D03*
G01X6631Y10092D03*
G01X6631Y10407D03*
G01X6631Y11036D03*
G01X6631Y10721D03*
G01X6631Y11351D03*
G54D18*
G01X2631Y4598D03*
G01X5531Y4398D03*
G01X1631Y4698D03*
G01X3031Y9598D03*
G01X3431Y4098D03*
G01X2031Y4098D03*
G01X3931Y7798D03*
G01X4531Y9998D03*
G01X4231Y10798D03*
G01X4231Y11198D03*
G01X4211Y11738D03*
G01X4831Y7898D03*
G01X3331Y9298D03*
G01X5031Y5098D03*
G01X5131Y2798D03*
G01X2695Y8133D03*
G01X2161Y11867D03*
G01X8331Y4498D03*
G01X7431Y4498D03*
G01X4631Y6298D03*
G01X7331Y2798D03*
G01X4131Y1298D03*
G01X8231Y1498D03*
G01X14331Y998D03*
G01X13831Y498D03*
G01X16291Y4798D03*
G01X17531Y2298D03*
G01X17131Y4398D03*
G01X17131Y3698D03*
G01X17131Y2298D03*
G01X15941Y1407D03*
G01X16451Y5167D03*
G01X18211Y3967D03*
G01X15831Y498D03*
G01X14521Y5138D03*
G01X19791Y4567D03*
G01X21941Y5838D03*
G01X22791Y5848D03*
G01X21951Y6528D03*
G01X22551Y6838D03*
G01X14331Y5428D03*
G01X19981Y4328D03*
G01X14691Y9217D03*
G01X15291Y8238D03*
G01X15101Y9217D03*
G01X16241Y6007D03*
G01X7841Y8528D03*
G01X11761Y10767D03*
G01X6911Y638D03*
G01X9211Y1857D03*
G01X9931Y2228D03*
G01X11131Y3178D03*
G01X21241Y1717D03*
G01X22391Y6528D03*
G01X18271Y1778D03*
G01X14021Y3167D03*
G01X10391Y6107D03*
G01X10311Y5757D03*
G01X10951Y5917D03*
G01X11201Y5657D03*
G01X9341Y7788D03*
G01X9001Y7728D03*
G01X10611Y3388D03*
G01X8961Y4007D03*
G01X10611Y3817D03*
G01X8961Y4407D03*
G01X3371Y14657D03*
G01X2851Y14638D03*
G01X14511Y4788D03*
G01X8951Y4978D03*
G01X3571Y14348D03*
G01X2881Y14307D03*
G01X13931Y3857D03*
G01X8531Y5438D03*
G01X13721Y4107D03*
G01X8531Y5807D03*
G01X3761Y13857D03*
G01X2891Y13707D03*
G01X5011Y12902D03*
G01X3371Y12978D03*
G01X20131Y6028D03*
G01X22731Y7867D03*
G01X12951Y7228D03*
G01X15661Y7907D03*
G01X17881Y5978D03*
G01X18221Y10988D03*
G01X13741Y1148D03*
G01X18741Y11257D03*
G01X12351Y7307D03*
G01X12881Y6857D03*
G01X14641Y10317D03*
G01X14171Y10198D03*
G01X14281Y7198D03*
G01X13891Y7198D03*
G01X14991Y10357D03*
G01X15431Y10398D03*
G01X14441Y11078D03*
G01X17041Y11017D03*
G01X14801Y11317D03*
G01X17621Y11017D03*
G01X21841Y7578D03*
G01X20461Y8607D03*
G01X20861Y8628D03*
G01X14361Y13857D03*
G01X14371Y13338D03*
G01X18761Y8288D03*
G01X18121Y9617D03*
G01X20381Y9157D03*
G01X18681Y9528D03*
G01X10691Y4967D03*
G01X11721Y5078D03*
G01X9251Y11338D03*
G01X9261Y11028D03*
G01X9251Y10707D03*
G01X9251Y10378D03*
G01X8451Y9007D03*
G01X8031Y9017D03*
G01X10021Y12107D03*
G01X13381Y10028D03*
G01X13061Y8528D03*
G01X14931Y5807D03*
G01X8301Y438D03*
G01X9181Y1157D03*
G54D38*
G01X820Y6690D02*
G01X347Y6690D01*
G01X820Y10705D02*
G01X347Y10705D01*
G01X2277Y10705D02*
G01X1804Y10705D01*
G01X2277Y6690D02*
G01X1804Y6690D01*
M00*
M02*
